<?xml version="1.0" encoding="utf-8"?>
<!DOCTYPE svg PUBLIC "-//W3C//DTD SVG 1.1//EN" "http://www.w3.org/Graphics/SVG/1.1/DTD/svg11.dtd">
<!-- Generated by graphviz version 8.1.0 (20230707.0739)
 --><!-- Pages: 1 --><svg height="116pt" viewBox="0.00 0.00 674.32 116.00" width="674pt" xmlns="http://www.w3.org/2000/svg" xmlns:xlink="http://www.w3.org/1999/xlink">
<g class="graph" id="graph0" transform="scale(1 1) rotate(0) translate(4 112)">
<polygon fill="white" points="-4,4 -4,-112 670.32,-112 670.32,4 -4,4" stroke="none"/>
<!-- A -->
<g class="node" id="node1"><a xlink:href="https://mindset.umc.edu/blsa-explore-me/index.html?search=PFX3Bt6SG0y2"><title>A</title><ellipse cx="332.9" cy="-18" fill="#ffc09f" rx="171.11" ry="18" stroke="black"/><text font-family="Times,serif" font-size="14.00" text-anchor="middle" x="332.9" y="-12.95">Derived::der_anthropometry::intweightloss</text></a></g>
<!-- B -->
<g class="node" id="node2"><a xlink:href="https://mindset.umc.edu/blsa-explore-me/index.html?search=jJU9gIGUxt"><title>B</title><ellipse cx="161.9" cy="-90" fill="#a0ced9" rx="161.9" ry="18" stroke="black"/><text font-family="Times,serif" font-size="14.00" text-anchor="middle" x="161.9" y="-84.95">OC::BLSA_General_Interview::ghsx19a</text></a></g>
<!-- B&#45;&gt;A -->
<g class="edge" id="edge1">
<title>B-&gt;A</title>
<path d="M202.86,-72.23C226.48,-62.56 256.4,-50.32 281.58,-40.01" fill="none" stroke="black"/>
<polygon fill="black" points="282.76,-42.9 290.68,-35.87 280.1,-36.42 282.76,-42.9" stroke="black"/>
</g>
<!-- C -->
<g class="node" id="node3"><a xlink:href="https://mindset.umc.edu/blsa-explore-me/index.html?search=LTdoM9v3x4"><title>C</title><ellipse cx="503.9" cy="-90" fill="#a0ced9" rx="162.41" ry="18" stroke="black"/><text font-family="Times,serif" font-size="14.00" text-anchor="middle" x="503.9" y="-84.95">OC::BLSA_General_Interview::ghsx19b</text></a></g>
<!-- C&#45;&gt;A -->
<g class="edge" id="edge2">
<title>C-&gt;A</title>
<path d="M462.94,-72.23C439.32,-62.56 409.41,-50.32 384.23,-40.01" fill="none" stroke="black"/>
<polygon fill="black" points="385.7,-36.42 375.12,-35.87 383.05,-42.9 385.7,-36.42" stroke="black"/>
</g>
</g>
</svg>