<?xml version="1.0" encoding="utf-8"?>
<!DOCTYPE svg PUBLIC "-//W3C//DTD SVG 1.1//EN" "http://www.w3.org/Graphics/SVG/1.1/DTD/svg11.dtd">
<!-- Generated by graphviz version 8.1.0 (20230707.0739)
 --><!-- Pages: 1 --><svg height="188pt" viewBox="0.00 0.00 3806.36 188.00" width="3806pt" xmlns="http://www.w3.org/2000/svg" xmlns:xlink="http://www.w3.org/1999/xlink">
<g class="graph" id="graph0" transform="scale(1 1) rotate(0) translate(4 184)">
<polygon fill="white" points="-4,4 -4,-184 3802.36,-184 3802.36,4 -4,4" stroke="none"/>
<!-- A -->
<g class="node" id="node1"><a xlink:href="https://mindset.umc.edu/blsa-explore-me/index.html?search=sXXWsuC1UE"><title>A</title><ellipse cx="152.18" cy="-162" fill="#a0ced9" rx="152.18" ry="18" stroke="black"/><text font-family="Times,serif" font-size="14.00" text-anchor="middle" x="152.18" y="-156.95">OC::BLSA_General_Interview::pf13a</text></a></g>
<!-- H -->
<g class="node" id="node8"><a xlink:href="https://mindset.umc.edu/blsa-explore-me/index.html?search=E26C5RJI040a"><title>H</title><ellipse cx="470.18" cy="-90" fill="#a0ced9" rx="170.09" ry="18" stroke="black"/><text font-family="Times,serif" font-size="14.00" text-anchor="middle" x="470.18" y="-84.95">Derived::der_physicalfunction::ADL_walk</text></a></g>
<!-- A&#45;&gt;H -->
<g class="edge" id="edge1">
<title>A-&gt;H</title>
<path d="M221.96,-145.64C270.97,-134.85 336.69,-120.38 388.19,-109.05" fill="none" stroke="black"/>
<polygon fill="black" points="388.61,-112.32 397.63,-106.75 387.11,-105.48 388.61,-112.32" stroke="black"/>
</g>
<!-- B -->
<g class="node" id="node2"><a xlink:href="https://mindset.umc.edu/blsa-explore-me/index.html?search=yEo1i4Aex7"><title>B</title><ellipse cx="3328.18" cy="-162" fill="#a0ced9" rx="148.08" ry="18" stroke="black"/><text font-family="Times,serif" font-size="14.00" text-anchor="middle" x="3328.18" y="-156.95">OC::BLSA_General_Interview::pf12</text></a></g>
<!-- Q -->
<g class="node" id="node17"><a xlink:href="https://mindset.umc.edu/blsa-explore-me/index.html?search=K2Ci4A7z6XKD"><title>Q</title><ellipse cx="3328.18" cy="-90" fill="#a0ced9" rx="171.11" ry="18" stroke="black"/><text font-family="Times,serif" font-size="14.00" text-anchor="middle" x="3328.18" y="-84.95">Derived::der_physicalfunction::ADL_toilet</text></a></g>
<!-- B&#45;&gt;Q -->
<g class="edge" id="edge2">
<title>B-&gt;Q</title>
<path d="M3328.18,-143.7C3328.18,-136.24 3328.18,-127.32 3328.18,-118.97" fill="none" stroke="black"/>
<polygon fill="black" points="3331.68,-119.1 3328.18,-109.1 3324.68,-119.1 3331.68,-119.1" stroke="black"/>
</g>
<!-- C -->
<g class="node" id="node3"><a xlink:href="https://mindset.umc.edu/blsa-explore-me/index.html?search=aXjk9rVus4"><title>C</title><ellipse cx="1420.18" cy="-162" fill="#a0ced9" rx="148.08" ry="18" stroke="black"/><text font-family="Times,serif" font-size="14.00" text-anchor="middle" x="1420.18" y="-156.95">OC::BLSA_General_Interview::pf08</text></a></g>
<!-- L -->
<g class="node" id="node12"><a xlink:href="https://mindset.umc.edu/blsa-explore-me/index.html?search=NwdUrAqCQE1g"><title>L</title><ellipse cx="1717.18" cy="-90" fill="#a0ced9" rx="170.09" ry="18" stroke="black"/><text font-family="Times,serif" font-size="14.00" text-anchor="middle" x="1717.18" y="-84.95">Derived::der_physicalfunction::ADL_trans</text></a></g>
<!-- C&#45;&gt;L -->
<g class="edge" id="edge3">
<title>C-&gt;L</title>
<path d="M1486.09,-145.46C1531.29,-134.81 1591.46,-120.63 1639.07,-109.41" fill="none" stroke="black"/>
<polygon fill="black" points="1639.72,-112.62 1648.65,-106.92 1638.11,-105.8 1639.72,-112.62" stroke="black"/>
</g>
<!-- D -->
<g class="node" id="node4"><a xlink:href="https://mindset.umc.edu/blsa-explore-me/index.html?search=jDEOyEbBxi"><title>D</title><ellipse cx="1738.18" cy="-162" fill="#a0ced9" rx="152.18" ry="18" stroke="black"/><text font-family="Times,serif" font-size="14.00" text-anchor="middle" x="1738.18" y="-156.95">OC::BLSA_General_Interview::pf08a</text></a></g>
<!-- D&#45;&gt;L -->
<g class="edge" id="edge4">
<title>D-&gt;L</title>
<path d="M1732.99,-143.7C1730.7,-136.07 1727.95,-126.92 1725.4,-118.4" fill="none" stroke="black"/>
<polygon fill="black" points="1728.53,-117.68 1722.31,-109.1 1721.83,-119.69 1728.53,-117.68" stroke="black"/>
</g>
<!-- E -->
<g class="node" id="node5"><a xlink:href="https://mindset.umc.edu/blsa-explore-me/index.html?search=XnFwqv2o03TH"><title>E</title><ellipse cx="1896.18" cy="-18" fill="#ffc09f" rx="171.11" ry="18" stroke="black"/><text font-family="Times,serif" font-size="14.00" text-anchor="middle" x="1896.18" y="-12.95">Derived::der_physicalfunction::ADL_Total</text></a></g>
<!-- F -->
<g class="node" id="node6"><a xlink:href="https://mindset.umc.edu/blsa-explore-me/index.html?search=YTqjlaHfVK"><title>F</title><ellipse cx="470.18" cy="-162" fill="#a0ced9" rx="148.08" ry="18" stroke="black"/><text font-family="Times,serif" font-size="14.00" text-anchor="middle" x="470.18" y="-156.95">OC::BLSA_General_Interview::pf13</text></a></g>
<!-- F&#45;&gt;H -->
<g class="edge" id="edge5">
<title>F-&gt;H</title>
<path d="M470.18,-143.7C470.18,-136.24 470.18,-127.32 470.18,-118.97" fill="none" stroke="black"/>
<polygon fill="black" points="473.68,-119.1 470.18,-109.1 466.68,-119.1 473.68,-119.1" stroke="black"/>
</g>
<!-- G -->
<g class="node" id="node7"><a xlink:href="https://mindset.umc.edu/blsa-explore-me/index.html?search=zq4dGUjdnm"><title>G</title><ellipse cx="2056.18" cy="-162" fill="#a0ced9" rx="148.08" ry="18" stroke="black"/><text font-family="Times,serif" font-size="14.00" text-anchor="middle" x="2056.18" y="-156.95">OC::BLSA_General_Interview::pf10</text></a></g>
<!-- N -->
<g class="node" id="node14"><a xlink:href="https://mindset.umc.edu/blsa-explore-me/index.html?search=enXRf3o78odQ"><title>N</title><ellipse cx="2076.18" cy="-90" fill="#a0ced9" rx="171.11" ry="18" stroke="black"/><text font-family="Times,serif" font-size="14.00" text-anchor="middle" x="2076.18" y="-84.95">Derived::der_physicalfunction::ADL_dress</text></a></g>
<!-- G&#45;&gt;N -->
<g class="edge" id="edge6">
<title>G-&gt;N</title>
<path d="M2061.12,-143.7C2063.28,-136.15 2065.86,-127.12 2068.27,-118.68" fill="none" stroke="black"/>
<polygon fill="black" points="2071.91,-119.68 2071.29,-109.1 2065.18,-117.76 2071.91,-119.68" stroke="black"/>
</g>
<!-- H&#45;&gt;E -->
<g class="edge" id="edge7">
<title>H-&gt;E</title>
<path d="M621.77,-81.56C892.09,-68.29 1455.03,-40.66 1733.28,-27" fill="none" stroke="black"/>
<polygon fill="black" points="1733.06,-30.46 1742.87,-26.48 1732.71,-23.47 1733.06,-30.46" stroke="black"/>
</g>
<!-- I -->
<g class="node" id="node9"><a xlink:href="https://mindset.umc.edu/blsa-explore-me/index.html?search=KQo8PJqMTE"><title>I</title><ellipse cx="784.18" cy="-162" fill="#a0ced9" rx="148.08" ry="18" stroke="black"/><text font-family="Times,serif" font-size="14.00" text-anchor="middle" x="784.18" y="-156.95">OC::BLSA_General_Interview::pf09</text></a></g>
<!-- J -->
<g class="node" id="node10"><a xlink:href="https://mindset.umc.edu/blsa-explore-me/index.html?search=ajjT349LFj4U"><title>J</title><ellipse cx="1102.18" cy="-90" fill="#a0ced9" rx="172.14" ry="18" stroke="black"/><text font-family="Times,serif" font-size="14.00" text-anchor="middle" x="1102.18" y="-84.95">Derived::der_physicalfunction::ADL_bathe</text></a></g>
<!-- I&#45;&gt;J -->
<g class="edge" id="edge8">
<title>I-&gt;J</title>
<path d="M853.57,-145.72C902.55,-134.94 968.38,-120.45 1020,-109.09" fill="none" stroke="black"/>
<polygon fill="black" points="1020.44,-112.36 1029.45,-106.79 1018.93,-105.52 1020.44,-112.36" stroke="black"/>
</g>
<!-- J&#45;&gt;E -->
<g class="edge" id="edge9">
<title>J-&gt;E</title>
<path d="M1230.63,-77.68C1375.18,-64.93 1609.15,-44.3 1757.69,-31.21" fill="none" stroke="black"/>
<polygon fill="black" points="1757.58,-34.64 1767.24,-30.28 1756.97,-27.67 1757.58,-34.64" stroke="black"/>
</g>
<!-- K -->
<g class="node" id="node11"><a xlink:href="https://mindset.umc.edu/blsa-explore-me/index.html?search=izeTS21xDA"><title>K</title><ellipse cx="3646.18" cy="-162" fill="#a0ced9" rx="152.18" ry="18" stroke="black"/><text font-family="Times,serif" font-size="14.00" text-anchor="middle" x="3646.18" y="-156.95">OC::BLSA_General_Interview::pf12a</text></a></g>
<!-- K&#45;&gt;Q -->
<g class="edge" id="edge10">
<title>K-&gt;Q</title>
<path d="M3576.39,-145.64C3527.39,-134.85 3461.67,-120.38 3410.16,-109.05" fill="none" stroke="black"/>
<polygon fill="black" points="3411.25,-105.48 3400.73,-106.75 3409.74,-112.32 3411.25,-105.48" stroke="black"/>
</g>
<!-- L&#45;&gt;E -->
<g class="edge" id="edge11">
<title>L-&gt;E</title>
<path d="M1760.05,-72.23C1784.89,-62.52 1816.37,-50.21 1842.8,-39.87" fill="none" stroke="black"/>
<polygon fill="black" points="1843.99,-42.77 1852.03,-35.87 1841.44,-36.26 1843.99,-42.77" stroke="black"/>
</g>
<!-- M -->
<g class="node" id="node13"><a xlink:href="https://mindset.umc.edu/blsa-explore-me/index.html?search=gN9OE0PYh1"><title>M</title><ellipse cx="1102.18" cy="-162" fill="#a0ced9" rx="152.18" ry="18" stroke="black"/><text font-family="Times,serif" font-size="14.00" text-anchor="middle" x="1102.18" y="-156.95">OC::BLSA_General_Interview::pf09a</text></a></g>
<!-- M&#45;&gt;J -->
<g class="edge" id="edge12">
<title>M-&gt;J</title>
<path d="M1102.18,-143.7C1102.18,-136.24 1102.18,-127.32 1102.18,-118.97" fill="none" stroke="black"/>
<polygon fill="black" points="1105.68,-119.1 1102.18,-109.1 1098.68,-119.1 1105.68,-119.1" stroke="black"/>
</g>
<!-- N&#45;&gt;E -->
<g class="edge" id="edge13">
<title>N-&gt;E</title>
<path d="M2033.06,-72.23C2007.98,-62.48 1976.15,-50.1 1949.5,-39.74" fill="none" stroke="black"/>
<polygon fill="black" points="1951.15,-36.24 1940.56,-35.87 1948.62,-42.76 1951.15,-36.24" stroke="black"/>
</g>
<!-- O -->
<g class="node" id="node15"><a xlink:href="https://mindset.umc.edu/blsa-explore-me/index.html?search=vtF7ZvQL28eI"><title>O</title><ellipse cx="2692.18" cy="-90" fill="#a0ced9" rx="162.93" ry="18" stroke="black"/><text font-family="Times,serif" font-size="14.00" text-anchor="middle" x="2692.18" y="-84.95">Derived::der_physicalfunction::ADL_eat</text></a></g>
<!-- O&#45;&gt;E -->
<g class="edge" id="edge14">
<title>O-&gt;E</title>
<path d="M2567.8,-78.06C2423.26,-65.35 2185.4,-44.43 2034.97,-31.21" fill="none" stroke="black"/>
<polygon fill="black" points="2035.56,-27.66 2025.29,-30.27 2034.94,-34.63 2035.56,-27.66" stroke="black"/>
</g>
<!-- P -->
<g class="node" id="node16"><a xlink:href="https://mindset.umc.edu/blsa-explore-me/index.html?search=NBbZnysjjl"><title>P</title><ellipse cx="2692.18" cy="-162" fill="#a0ced9" rx="148.08" ry="18" stroke="black"/><text font-family="Times,serif" font-size="14.00" text-anchor="middle" x="2692.18" y="-156.95">OC::BLSA_General_Interview::pf11</text></a></g>
<!-- P&#45;&gt;O -->
<g class="edge" id="edge15">
<title>P-&gt;O</title>
<path d="M2692.18,-143.7C2692.18,-136.24 2692.18,-127.32 2692.18,-118.97" fill="none" stroke="black"/>
<polygon fill="black" points="2695.68,-119.1 2692.18,-109.1 2688.68,-119.1 2695.68,-119.1" stroke="black"/>
</g>
<!-- Q&#45;&gt;E -->
<g class="edge" id="edge16">
<title>Q-&gt;E</title>
<path d="M3175.61,-81.54C2903.9,-68.26 2338.57,-40.63 2059.39,-26.98" fill="none" stroke="black"/>
<polygon fill="black" points="2059.93,-23.45 2049.77,-26.46 2059.58,-30.44 2059.93,-23.45" stroke="black"/>
</g>
<!-- R -->
<g class="node" id="node18"><a xlink:href="https://mindset.umc.edu/blsa-explore-me/index.html?search=HJHmfRsLe6"><title>R</title><ellipse cx="3010.18" cy="-162" fill="#a0ced9" rx="152.18" ry="18" stroke="black"/><text font-family="Times,serif" font-size="14.00" text-anchor="middle" x="3010.18" y="-156.95">OC::BLSA_General_Interview::pf11a</text></a></g>
<!-- R&#45;&gt;O -->
<g class="edge" id="edge17">
<title>R-&gt;O</title>
<path d="M2940.39,-145.64C2891.22,-134.81 2825.21,-120.28 2773.62,-108.93" fill="none" stroke="black"/>
<polygon fill="black" points="2774.69,-105.36 2764.18,-106.63 2773.19,-112.2 2774.69,-105.36" stroke="black"/>
</g>
<!-- S -->
<g class="node" id="node19"><a xlink:href="https://mindset.umc.edu/blsa-explore-me/index.html?search=tkErnLo2t9"><title>S</title><ellipse cx="2374.18" cy="-162" fill="#a0ced9" rx="152.18" ry="18" stroke="black"/><text font-family="Times,serif" font-size="14.00" text-anchor="middle" x="2374.18" y="-156.95">OC::BLSA_General_Interview::pf10a</text></a></g>
<!-- S&#45;&gt;N -->
<g class="edge" id="edge18">
<title>S-&gt;N</title>
<path d="M2307.67,-145.38C2262.38,-134.74 2202.24,-120.61 2154.61,-109.42" fill="none" stroke="black"/>
<polygon fill="black" points="2155.56,-105.82 2145.03,-106.94 2153.96,-112.63 2155.56,-105.82" stroke="black"/>
</g>
</g>
</svg>