<?xml version="1.0" encoding="utf-8"?>
<!DOCTYPE svg PUBLIC "-//W3C//DTD SVG 1.1//EN" "http://www.w3.org/Graphics/SVG/1.1/DTD/svg11.dtd">
<!-- Generated by graphviz version 8.1.0 (20230707.0739)
 --><!-- Pages: 1 --><svg height="188pt" viewBox="0.00 0.00 2093.50 188.00" width="2094pt" xmlns="http://www.w3.org/2000/svg" xmlns:xlink="http://www.w3.org/1999/xlink">
<g class="graph" id="graph0" transform="scale(1 1) rotate(0) translate(4 184)">
<polygon fill="white" points="-4,4 -4,-184 2089.5,-184 2089.5,4 -4,4" stroke="none"/>
<!-- A -->
<g class="node" id="node1"><a xlink:href="https://mindset.umc.edu/blsa-explore-me/index.html?search=F3GMMG1c046r"><title>A</title><ellipse cx="1393" cy="-90" fill="#a0ced9" rx="155.25" ry="18" stroke="black"/><text font-family="Times,serif" font-size="14.00" text-anchor="middle" x="1393" y="-84.95">Derived::der_anthropometry::waistcirc</text></a></g>
<!-- I -->
<g class="node" id="node9"><a xlink:href="https://mindset.umc.edu/blsa-explore-me/index.html?search=b8bL8tBMJM4S"><title>I</title><ellipse cx="867" cy="-18" fill="#ffc09f" rx="153.2" ry="18" stroke="black"/><text font-family="Times,serif" font-size="14.00" text-anchor="middle" x="867" y="-12.95">Derived::der_anthropometry::waisthip</text></a></g>
<!-- A&#45;&gt;I -->
<g class="edge" id="edge1">
<title>A-&gt;I</title>
<path d="M1293.75,-75.79C1203.31,-63.76 1069.95,-46.01 976.45,-33.57" fill="none" stroke="black"/>
<polygon fill="black" points="977.19,-30 966.82,-32.15 976.27,-36.94 977.19,-30" stroke="black"/>
</g>
<!-- B -->
<g class="node" id="node2"><a xlink:href="https://mindset.umc.edu/blsa-explore-me/index.html?search=G1TGJ2diVfP6"><title>B</title><ellipse cx="692" cy="-90" fill="#a0ced9" rx="147.57" ry="18" stroke="black"/><text font-family="Times,serif" font-size="14.00" text-anchor="middle" x="692" y="-84.95">Derived::der_anthropometry::hipcirc</text></a></g>
<!-- B&#45;&gt;I -->
<g class="edge" id="edge2">
<title>B-&gt;I</title>
<path d="M733.47,-72.41C757.92,-62.63 789.07,-50.17 815.13,-39.75" fill="none" stroke="black"/>
<polygon fill="black" points="816.23,-42.68 824.22,-35.71 813.63,-36.18 816.23,-42.68" stroke="black"/>
</g>
<!-- C -->
<g class="node" id="node3"><a xlink:href="https://mindset.umc.edu/blsa-explore-me/index.html?search=EyIFFxbLOB"><title>C</title><ellipse cx="1218" cy="-162" fill="#a0ced9" rx="166" ry="18" stroke="black"/><text font-family="Times,serif" font-size="14.00" text-anchor="middle" x="1218" y="-156.95">OC::BLSA_Body_Measurements::ant09a</text></a></g>
<!-- C&#45;&gt;A -->
<g class="edge" id="edge3">
<title>C-&gt;A</title>
<path d="M1259.91,-144.23C1284.28,-134.49 1315.2,-122.12 1341.1,-111.76" fill="none" stroke="black"/>
<polygon fill="black" points="1342.13,-114.71 1350.12,-107.75 1339.53,-108.22 1342.13,-114.71" stroke="black"/>
</g>
<!-- D -->
<g class="node" id="node4"><a xlink:href="https://mindset.umc.edu/blsa-explore-me/index.html?search=IUTTgtTgs8"><title>D</title><ellipse cx="1568" cy="-162" fill="#a0ced9" rx="166" ry="18" stroke="black"/><text font-family="Times,serif" font-size="14.00" text-anchor="middle" x="1568" y="-156.95">OC::BLSA_Body_Measurements::ant09c</text></a></g>
<!-- D&#45;&gt;A -->
<g class="edge" id="edge4">
<title>D-&gt;A</title>
<path d="M1526.08,-144.23C1501.71,-134.49 1470.79,-122.12 1444.9,-111.76" fill="none" stroke="black"/>
<polygon fill="black" points="1446.46,-108.22 1435.87,-107.75 1443.86,-114.71 1446.46,-108.22" stroke="black"/>
</g>
<!-- E -->
<g class="node" id="node5"><a xlink:href="https://mindset.umc.edu/blsa-explore-me/index.html?search=j75nqGCzbl"><title>E</title><ellipse cx="1919" cy="-162" fill="#a0ced9" rx="166.51" ry="18" stroke="black"/><text font-family="Times,serif" font-size="14.00" text-anchor="middle" x="1919" y="-156.95">OC::BLSA_Body_Measurements::ant09b</text></a></g>
<!-- E&#45;&gt;A -->
<g class="edge" id="edge5">
<title>E-&gt;A</title>
<path d="M1816.95,-147.42C1726.72,-135.41 1595.4,-117.94 1502.88,-105.62" fill="none" stroke="black"/>
<polygon fill="black" points="1503.45,-102.04 1493.08,-104.19 1502.53,-108.97 1503.45,-102.04" stroke="black"/>
</g>
<!-- F -->
<g class="node" id="node6"><a xlink:href="https://mindset.umc.edu/blsa-explore-me/index.html?search=LcY6J5VRYU"><title>F</title><ellipse cx="166" cy="-162" fill="#a0ced9" rx="166" ry="18" stroke="black"/><text font-family="Times,serif" font-size="14.00" text-anchor="middle" x="166" y="-156.95">OC::BLSA_Body_Measurements::ant11a</text></a></g>
<!-- F&#45;&gt;B -->
<g class="edge" id="edge6">
<title>F-&gt;B</title>
<path d="M268.04,-147.42C358.99,-135.32 491.68,-117.66 584.31,-105.33" fill="none" stroke="black"/>
<polygon fill="black" points="584.67,-108.68 594.12,-103.89 583.75,-101.74 584.67,-108.68" stroke="black"/>
</g>
<!-- G -->
<g class="node" id="node7"><a xlink:href="https://mindset.umc.edu/blsa-explore-me/index.html?search=RQb7bOm9Am"><title>G</title><ellipse cx="516" cy="-162" fill="#a0ced9" rx="166" ry="18" stroke="black"/><text font-family="Times,serif" font-size="14.00" text-anchor="middle" x="516" y="-156.95">OC::BLSA_Body_Measurements::ant11c</text></a></g>
<!-- G&#45;&gt;B -->
<g class="edge" id="edge7">
<title>G-&gt;B</title>
<path d="M558.15,-144.23C582.75,-134.45 613.98,-122.03 640.09,-111.65" fill="none" stroke="black"/>
<polygon fill="black" points="641.19,-114.58 649.18,-107.63 638.6,-108.07 641.19,-114.58" stroke="black"/>
</g>
<!-- H -->
<g class="node" id="node8"><a xlink:href="https://mindset.umc.edu/blsa-explore-me/index.html?search=yEv4Ab5sHP"><title>H</title><ellipse cx="867" cy="-162" fill="#a0ced9" rx="166.51" ry="18" stroke="black"/><text font-family="Times,serif" font-size="14.00" text-anchor="middle" x="867" y="-156.95">OC::BLSA_Body_Measurements::ant11b</text></a></g>
<!-- H&#45;&gt;B -->
<g class="edge" id="edge8">
<title>H-&gt;B</title>
<path d="M825.08,-144.23C800.62,-134.45 769.57,-122.03 743.61,-111.65" fill="none" stroke="black"/>
<polygon fill="black" points="745.16,-108.09 734.57,-107.63 742.56,-114.59 745.16,-108.09" stroke="black"/>
</g>
</g>
</svg>