<?xml version="1.0" encoding="utf-8"?>
<!DOCTYPE svg PUBLIC "-//W3C//DTD SVG 1.1//EN" "http://www.w3.org/Graphics/SVG/1.1/DTD/svg11.dtd">
<!-- Generated by graphviz version 8.1.0 (20230707.0739)
 --><!-- Pages: 1 --><svg height="188pt" viewBox="0.00 0.00 1106.00 188.00" width="1106pt" xmlns="http://www.w3.org/2000/svg" xmlns:xlink="http://www.w3.org/1999/xlink">
<g class="graph" id="graph0" transform="scale(1 1) rotate(0) translate(4 184)">
<polygon fill="white" points="-4,4 -4,-184 1102,-184 1102,4 -4,4" stroke="none"/>
<!-- A -->
<g class="node" id="node1"><a xlink:href="https://mindset.umc.edu/blsa-explore-me/index.html?search=izeTS21xDA"><title>A</title><ellipse cx="401.89" cy="-162" fill="#a0ced9" rx="152.18" ry="18" stroke="black"/><text font-family="Times,serif" font-size="14.00" text-anchor="middle" x="401.89" y="-156.95">OC::BLSA_General_Interview::pf12a</text></a></g>
<!-- C -->
<g class="node" id="node3"><a xlink:href="https://mindset.umc.edu/blsa-explore-me/index.html?search=K2Ci4A7z6XKD"><title>C</title><ellipse cx="560.89" cy="-90" fill="#ffc09f" rx="171.11" ry="18" stroke="black"/><text font-family="Times,serif" font-size="14.00" text-anchor="middle" x="560.89" y="-84.95">Derived::der_physicalfunction::ADL_toilet</text></a></g>
<!-- A&#45;&gt;C -->
<g class="edge" id="edge1">
<title>A-&gt;C</title>
<path d="M439.97,-144.23C461.66,-134.69 489.05,-122.63 512.28,-112.4" fill="none" stroke="black"/>
<polygon fill="black" points="513.54,-115.23 521.28,-107.99 510.72,-108.82 513.54,-115.23" stroke="black"/>
</g>
<!-- B -->
<g class="node" id="node2"><a xlink:href="https://mindset.umc.edu/blsa-explore-me/index.html?search=Xm6azS2nj9j3"><title>B</title><ellipse cx="182.89" cy="-18" fill="#ffee93" rx="182.89" ry="18" stroke="black"/><text font-family="Times,serif" font-size="14.00" text-anchor="middle" x="182.89" y="-12.95">Derived::der_physicalfunction::ADL_Number</text></a></g>
<!-- C&#45;&gt;B -->
<g class="edge" id="edge4">
<title>C-&gt;B</title>
<path d="M478.87,-73.81C419.44,-62.81 338.98,-47.91 276.95,-36.42" fill="none" stroke="black"/>
<polygon fill="black" points="277.85,-32.84 267.38,-34.46 276.57,-39.72 277.85,-32.84" stroke="black"/>
</g>
<!-- E -->
<g class="node" id="node5"><a xlink:href="https://mindset.umc.edu/blsa-explore-me/index.html?search=SWjTjJQzwu0D"><title>E</title><ellipse cx="560.89" cy="-18" fill="#ffee93" rx="177.26" ry="18" stroke="black"/><text font-family="Times,serif" font-size="14.00" text-anchor="middle" x="560.89" y="-12.95">Derived::der_physicalfunction::ADL_NMiss</text></a></g>
<!-- C&#45;&gt;E -->
<g class="edge" id="edge3">
<title>C-&gt;E</title>
<path d="M560.89,-71.7C560.89,-64.24 560.89,-55.32 560.89,-46.97" fill="none" stroke="black"/>
<polygon fill="black" points="564.39,-47.1 560.89,-37.1 557.39,-47.1 564.39,-47.1" stroke="black"/>
</g>
<!-- F -->
<g class="node" id="node6"><a xlink:href="https://mindset.umc.edu/blsa-explore-me/index.html?search=XnFwqv2o03TH"><title>F</title><ellipse cx="926.89" cy="-18" fill="#ffee93" rx="171.11" ry="18" stroke="black"/><text font-family="Times,serif" font-size="14.00" text-anchor="middle" x="926.89" y="-12.95">Derived::der_physicalfunction::ADL_Total</text></a></g>
<!-- C&#45;&gt;F -->
<g class="edge" id="edge2">
<title>C-&gt;F</title>
<path d="M640.75,-73.72C698.4,-62.7 776.31,-47.8 836.27,-36.33" fill="none" stroke="black"/>
<polygon fill="black" points="836.71,-39.62 845.87,-34.3 835.39,-32.74 836.71,-39.62" stroke="black"/>
</g>
<!-- D -->
<g class="node" id="node4"><a xlink:href="https://mindset.umc.edu/blsa-explore-me/index.html?search=yEo1i4Aex7"><title>D</title><ellipse cx="719.89" cy="-162" fill="#a0ced9" rx="148.08" ry="18" stroke="black"/><text font-family="Times,serif" font-size="14.00" text-anchor="middle" x="719.89" y="-156.95">OC::BLSA_General_Interview::pf12</text></a></g>
<!-- D&#45;&gt;C -->
<g class="edge" id="edge5">
<title>D-&gt;C</title>
<path d="M681.8,-144.23C660.11,-134.69 632.72,-122.63 609.49,-112.4" fill="none" stroke="black"/>
<polygon fill="black" points="611.05,-108.82 600.49,-107.99 608.23,-115.23 611.05,-108.82" stroke="black"/>
</g>
</g>
</svg>