<?xml version="1.0" encoding="utf-8"?>
<!DOCTYPE svg PUBLIC "-//W3C//DTD SVG 1.1//EN" "http://www.w3.org/Graphics/SVG/1.1/DTD/svg11.dtd">
<!-- Generated by graphviz version 8.1.0 (20230707.0739)
 --><!-- Pages: 1 --><svg height="188pt" viewBox="0.00 0.00 2093.50 188.00" width="2094pt" xmlns="http://www.w3.org/2000/svg" xmlns:xlink="http://www.w3.org/1999/xlink">
<g class="graph" id="graph0" transform="scale(1 1) rotate(0) translate(4 184)">
<polygon fill="white" points="-4,4 -4,-184 2089.5,-184 2089.5,4 -4,4" stroke="none"/>
<!-- A -->
<g class="node" id="node1"><a xlink:href="https://mindset.umc.edu/blsa-explore-me/index.html?search=MzIIW1QTjp"><title>A</title><ellipse cx="166" cy="-162" fill="#a0ced9" rx="166" ry="18" stroke="black"/><text font-family="Times,serif" font-size="14.00" text-anchor="middle" x="166" y="-156.95">OC::BLSA_Body_Measurements::ant06c</text></a></g>
<!-- B -->
<g class="node" id="node2"><a xlink:href="https://mindset.umc.edu/blsa-explore-me/index.html?search=sEuwbBOvvFoZ"><title>B</title><ellipse cx="693" cy="-90" fill="#a0ced9" rx="145.01" ry="18" stroke="black"/><text font-family="Times,serif" font-size="14.00" text-anchor="middle" x="693" y="-84.95">Derived::der_anthropometry::height</text></a></g>
<!-- A&#45;&gt;B -->
<g class="edge" id="edge1">
<title>A-&gt;B</title>
<path d="M268.23,-147.42C359.65,-135.28 493.14,-117.55 585.99,-105.21" fill="none" stroke="black"/>
<polygon fill="black" points="586.37,-108.56 595.82,-103.78 585.44,-101.62 586.37,-108.56" stroke="black"/>
</g>
<!-- H -->
<g class="node" id="node8"><a xlink:href="https://mindset.umc.edu/blsa-explore-me/index.html?search=cqYVX309eR9T"><title>H</title><ellipse cx="868" cy="-18" fill="#ffc09f" rx="164.46" ry="18" stroke="black"/><text font-family="Times,serif" font-size="14.00" text-anchor="middle" x="868" y="-12.95">Derived::der_anthropometry::waistheight</text></a></g>
<!-- B&#45;&gt;H -->
<g class="edge" id="edge2">
<title>B-&gt;H</title>
<path d="M734.47,-72.41C758.83,-62.67 789.84,-50.26 815.85,-39.86" fill="none" stroke="black"/>
<polygon fill="black" points="816.93,-42.8 824.91,-35.83 814.33,-36.3 816.93,-42.8" stroke="black"/>
</g>
<!-- C -->
<g class="node" id="node3"><a xlink:href="https://mindset.umc.edu/blsa-explore-me/index.html?search=HfNC8dppeC"><title>C</title><ellipse cx="517" cy="-162" fill="#a0ced9" rx="166.51" ry="18" stroke="black"/><text font-family="Times,serif" font-size="14.00" text-anchor="middle" x="517" y="-156.95">OC::BLSA_Body_Measurements::ant06b</text></a></g>
<!-- C&#45;&gt;B -->
<g class="edge" id="edge3">
<title>C-&gt;B</title>
<path d="M559.15,-144.23C583.75,-134.45 614.98,-122.03 641.09,-111.65" fill="none" stroke="black"/>
<polygon fill="black" points="642.19,-114.58 650.18,-107.63 639.6,-108.07 642.19,-114.58" stroke="black"/>
</g>
<!-- D -->
<g class="node" id="node4"><a xlink:href="https://mindset.umc.edu/blsa-explore-me/index.html?search=IUTTgtTgs8"><title>D</title><ellipse cx="1218" cy="-162" fill="#a0ced9" rx="166" ry="18" stroke="black"/><text font-family="Times,serif" font-size="14.00" text-anchor="middle" x="1218" y="-156.95">OC::BLSA_Body_Measurements::ant09c</text></a></g>
<!-- E -->
<g class="node" id="node5"><a xlink:href="https://mindset.umc.edu/blsa-explore-me/index.html?search=F3GMMG1c046r"><title>E</title><ellipse cx="1393" cy="-90" fill="#a0ced9" rx="155.25" ry="18" stroke="black"/><text font-family="Times,serif" font-size="14.00" text-anchor="middle" x="1393" y="-84.95">Derived::der_anthropometry::waistcirc</text></a></g>
<!-- D&#45;&gt;E -->
<g class="edge" id="edge4">
<title>D-&gt;E</title>
<path d="M1259.91,-144.23C1284.28,-134.49 1315.2,-122.12 1341.1,-111.76" fill="none" stroke="black"/>
<polygon fill="black" points="1342.13,-114.71 1350.12,-107.75 1339.53,-108.22 1342.13,-114.71" stroke="black"/>
</g>
<!-- E&#45;&gt;H -->
<g class="edge" id="edge5">
<title>E-&gt;H</title>
<path d="M1293.94,-75.79C1204.62,-63.88 1073.36,-46.38 980.19,-33.96" fill="none" stroke="black"/>
<polygon fill="black" points="980.69,-30.36 970.31,-32.51 979.76,-37.3 980.69,-30.36" stroke="black"/>
</g>
<!-- F -->
<g class="node" id="node6"><a xlink:href="https://mindset.umc.edu/blsa-explore-me/index.html?search=EyIFFxbLOB"><title>F</title><ellipse cx="1568" cy="-162" fill="#a0ced9" rx="166" ry="18" stroke="black"/><text font-family="Times,serif" font-size="14.00" text-anchor="middle" x="1568" y="-156.95">OC::BLSA_Body_Measurements::ant09a</text></a></g>
<!-- F&#45;&gt;E -->
<g class="edge" id="edge6">
<title>F-&gt;E</title>
<path d="M1526.08,-144.23C1501.71,-134.49 1470.79,-122.12 1444.9,-111.76" fill="none" stroke="black"/>
<polygon fill="black" points="1446.46,-108.22 1435.87,-107.75 1443.86,-114.71 1446.46,-108.22" stroke="black"/>
</g>
<!-- G -->
<g class="node" id="node7"><a xlink:href="https://mindset.umc.edu/blsa-explore-me/index.html?search=j75nqGCzbl"><title>G</title><ellipse cx="1919" cy="-162" fill="#a0ced9" rx="166.51" ry="18" stroke="black"/><text font-family="Times,serif" font-size="14.00" text-anchor="middle" x="1919" y="-156.95">OC::BLSA_Body_Measurements::ant09b</text></a></g>
<!-- G&#45;&gt;E -->
<g class="edge" id="edge7">
<title>G-&gt;E</title>
<path d="M1816.95,-147.42C1726.72,-135.41 1595.4,-117.94 1502.88,-105.62" fill="none" stroke="black"/>
<polygon fill="black" points="1503.45,-102.04 1493.08,-104.19 1502.53,-108.97 1503.45,-102.04" stroke="black"/>
</g>
<!-- I -->
<g class="node" id="node9"><a xlink:href="https://mindset.umc.edu/blsa-explore-me/index.html?search=ezFitGBaHq"><title>I</title><ellipse cx="868" cy="-162" fill="#a0ced9" rx="166" ry="18" stroke="black"/><text font-family="Times,serif" font-size="14.00" text-anchor="middle" x="868" y="-156.95">OC::BLSA_Body_Measurements::ant06a</text></a></g>
<!-- I&#45;&gt;B -->
<g class="edge" id="edge8">
<title>I-&gt;B</title>
<path d="M826.08,-144.23C801.62,-134.45 770.57,-122.03 744.61,-111.65" fill="none" stroke="black"/>
<polygon fill="black" points="746.16,-108.09 735.57,-107.63 743.56,-114.59 746.16,-108.09" stroke="black"/>
</g>
</g>
</svg>