<?xml version="1.0" encoding="utf-8"?>
<!DOCTYPE svg PUBLIC "-//W3C//DTD SVG 1.1//EN" "http://www.w3.org/Graphics/SVG/1.1/DTD/svg11.dtd">
<!-- Generated by graphviz version 8.1.0 (20230707.0739)
 --><!-- Pages: 1 --><svg height="188pt" viewBox="0.00 0.00 1106.37 188.00" width="1106pt" xmlns="http://www.w3.org/2000/svg" xmlns:xlink="http://www.w3.org/1999/xlink">
<g class="graph" id="graph0" transform="scale(1 1) rotate(0) translate(4 184)">
<polygon fill="white" points="-4,4 -4,-184 1102.37,-184 1102.37,4 -4,4" stroke="none"/>
<!-- A -->
<g class="node" id="node1"><a xlink:href="https://mindset.umc.edu/blsa-explore-me/index.html?search=XnFwqv2o03TH"><title>A</title><ellipse cx="171.11" cy="-18" fill="#ffee93" rx="171.11" ry="18" stroke="black"/><text font-family="Times,serif" font-size="14.00" text-anchor="middle" x="171.11" y="-12.95">Derived::der_physicalfunction::ADL_Total</text></a></g>
<!-- B -->
<g class="node" id="node2"><a xlink:href="https://mindset.umc.edu/blsa-explore-me/index.html?search=Xm6azS2nj9j3"><title>B</title><ellipse cx="543.11" cy="-18" fill="#ffee93" rx="182.89" ry="18" stroke="black"/><text font-family="Times,serif" font-size="14.00" text-anchor="middle" x="543.11" y="-12.95">Derived::der_physicalfunction::ADL_Number</text></a></g>
<!-- C -->
<g class="node" id="node3"><a xlink:href="https://mindset.umc.edu/blsa-explore-me/index.html?search=vtF7ZvQL28eI"><title>C</title><ellipse cx="543.11" cy="-90" fill="#ffc09f" rx="162.93" ry="18" stroke="black"/><text font-family="Times,serif" font-size="14.00" text-anchor="middle" x="543.11" y="-84.95">Derived::der_physicalfunction::ADL_eat</text></a></g>
<!-- C&#45;&gt;A -->
<g class="edge" id="edge1">
<title>C-&gt;A</title>
<path d="M462.85,-73.9C404,-62.82 323.99,-47.77 262.65,-36.22" fill="none" stroke="black"/>
<polygon fill="black" points="263.67,-32.67 253.19,-34.26 262.37,-39.55 263.67,-32.67" stroke="black"/>
</g>
<!-- C&#45;&gt;B -->
<g class="edge" id="edge3">
<title>C-&gt;B</title>
<path d="M543.11,-71.7C543.11,-64.24 543.11,-55.32 543.11,-46.97" fill="none" stroke="black"/>
<polygon fill="black" points="546.61,-47.1 543.11,-37.1 539.61,-47.1 546.61,-47.1" stroke="black"/>
</g>
<!-- F -->
<g class="node" id="node6"><a xlink:href="https://mindset.umc.edu/blsa-explore-me/index.html?search=SWjTjJQzwu0D"><title>F</title><ellipse cx="921.11" cy="-18" fill="#ffee93" rx="177.26" ry="18" stroke="black"/><text font-family="Times,serif" font-size="14.00" text-anchor="middle" x="921.11" y="-12.95">Derived::der_physicalfunction::ADL_NMiss</text></a></g>
<!-- C&#45;&gt;F -->
<g class="edge" id="edge2">
<title>C-&gt;F</title>
<path d="M624.2,-73.98C683.88,-62.93 765.14,-47.88 827.56,-36.32" fill="none" stroke="black"/>
<polygon fill="black" points="828,-39.62 837.2,-34.35 826.73,-32.73 828,-39.62" stroke="black"/>
</g>
<!-- D -->
<g class="node" id="node4"><a xlink:href="https://mindset.umc.edu/blsa-explore-me/index.html?search=NBbZnysjjl"><title>D</title><ellipse cx="384.11" cy="-162" fill="#a0ced9" rx="148.08" ry="18" stroke="black"/><text font-family="Times,serif" font-size="14.00" text-anchor="middle" x="384.11" y="-156.95">OC::BLSA_General_Interview::pf11</text></a></g>
<!-- D&#45;&gt;C -->
<g class="edge" id="edge4">
<title>D-&gt;C</title>
<path d="M422.2,-144.23C443.97,-134.65 471.48,-122.54 494.76,-112.29" fill="none" stroke="black"/>
<polygon fill="black" points="496.05,-115.11 503.79,-107.87 493.23,-108.7 496.05,-115.11" stroke="black"/>
</g>
<!-- E -->
<g class="node" id="node5"><a xlink:href="https://mindset.umc.edu/blsa-explore-me/index.html?search=HJHmfRsLe6"><title>E</title><ellipse cx="702.11" cy="-162" fill="#a0ced9" rx="152.18" ry="18" stroke="black"/><text font-family="Times,serif" font-size="14.00" text-anchor="middle" x="702.11" y="-156.95">OC::BLSA_General_Interview::pf11a</text></a></g>
<!-- E&#45;&gt;C -->
<g class="edge" id="edge5">
<title>E-&gt;C</title>
<path d="M664.03,-144.23C642.26,-134.65 614.75,-122.54 591.46,-112.29" fill="none" stroke="black"/>
<polygon fill="black" points="593,-108.7 582.44,-107.87 590.18,-115.11 593,-108.7" stroke="black"/>
</g>
</g>
</svg>