<?xml version="1.0" encoding="utf-8"?>
<!DOCTYPE svg PUBLIC "-//W3C//DTD SVG 1.1//EN" "http://www.w3.org/Graphics/SVG/1.1/DTD/svg11.dtd">
<!-- Generated by graphviz version 8.1.0 (20230707.0739)
 --><!-- Pages: 1 --><svg height="260pt" viewBox="0.00 0.00 1000.15 260.00" width="1000pt" xmlns="http://www.w3.org/2000/svg" xmlns:xlink="http://www.w3.org/1999/xlink">
<g class="graph" id="graph0" transform="scale(1 1) rotate(0) translate(4 256)">
<polygon fill="white" points="-4,4 -4,-256 996.15,-256 996.15,4 -4,4" stroke="none"/>
<!-- A -->
<g class="node" id="node1"><a xlink:href="https://mindset.umc.edu/blsa-explore-me/index.html?search=i03wMlL7OQmU"><title>A</title><ellipse cx="500.88" cy="-90" fill="#ffee93" rx="153.2" ry="18" stroke="black"/><text font-family="Times,serif" font-size="14.00" text-anchor="middle" x="500.88" y="-84.95">Derived::der_demographics::smokehx</text></a></g>
<!-- C -->
<g class="node" id="node3"><a xlink:href="https://mindset.umc.edu/blsa-explore-me/index.html?search=B485uu05yqaO"><title>C</title><ellipse cx="500.88" cy="-18" fill="#ffee93" rx="147.06" ry="18" stroke="black"/><text font-family="Times,serif" font-size="14.00" text-anchor="middle" x="500.88" y="-12.95">Derived::der_demographics::smoker</text></a></g>
<!-- A&#45;&gt;C -->
<g class="edge" id="edge1">
<title>A-&gt;C</title>
<path d="M500.88,-71.7C500.88,-64.24 500.88,-55.32 500.88,-46.97" fill="none" stroke="black"/>
<polygon fill="black" points="504.38,-47.1 500.88,-37.1 497.38,-47.1 504.38,-47.1" stroke="black"/>
</g>
<!-- B -->
<g class="node" id="node2"><a xlink:href="https://mindset.umc.edu/blsa-explore-me/index.html?search=EsWGnxpMpf"><title>B</title><ellipse cx="160.88" cy="-234" fill="#a0ced9" rx="160.88" ry="18" stroke="black"/><text font-family="Times,serif" font-size="14.00" text-anchor="middle" x="160.88" y="-228.95">OC::BLSA_General_Interview::smk01b</text></a></g>
<!-- E -->
<g class="node" id="node5"><a xlink:href="https://mindset.umc.edu/blsa-explore-me/index.html?search=K9KhtD1w9f4m"><title>E</title><ellipse cx="500.88" cy="-162" fill="#ffc09f" rx="148.08" ry="18" stroke="black"/><text font-family="Times,serif" font-size="14.00" text-anchor="middle" x="500.88" y="-156.95">Derived::der_demographics::smkstat</text></a></g>
<!-- B&#45;&gt;E -->
<g class="edge" id="edge2">
<title>B-&gt;E</title>
<path d="M235.49,-217.64C289.12,-206.6 361.46,-191.7 417.07,-180.25" fill="none" stroke="black"/>
<polygon fill="black" points="417.52,-183.53 426.61,-178.09 416.11,-176.67 417.52,-183.53" stroke="black"/>
</g>
<!-- D -->
<g class="node" id="node4"><a xlink:href="https://mindset.umc.edu/blsa-explore-me/index.html?search=F6By8XQsub"><title>D</title><ellipse cx="500.88" cy="-234" fill="#a0ced9" rx="160.88" ry="18" stroke="black"/><text font-family="Times,serif" font-size="14.00" text-anchor="middle" x="500.88" y="-228.95">OC::BLSA_General_Interview::smk01d</text></a></g>
<!-- D&#45;&gt;E -->
<g class="edge" id="edge3">
<title>D-&gt;E</title>
<path d="M500.88,-215.7C500.88,-208.24 500.88,-199.32 500.88,-190.97" fill="none" stroke="black"/>
<polygon fill="black" points="504.38,-191.1 500.88,-181.1 497.38,-191.1 504.38,-191.1" stroke="black"/>
</g>
<!-- E&#45;&gt;A -->
<g class="edge" id="edge4">
<title>E-&gt;A</title>
<path d="M500.88,-143.7C500.88,-136.24 500.88,-127.32 500.88,-118.97" fill="none" stroke="black"/>
<polygon fill="black" points="504.38,-119.1 500.88,-109.1 497.38,-119.1 504.38,-119.1" stroke="black"/>
</g>
<!-- F -->
<g class="node" id="node6"><a xlink:href="https://mindset.umc.edu/blsa-explore-me/index.html?search=xyz50MAyAD"><title>F</title><ellipse cx="835.88" cy="-234" fill="#a0ced9" rx="156.27" ry="18" stroke="black"/><text font-family="Times,serif" font-size="14.00" text-anchor="middle" x="835.88" y="-228.95">OC::BLSA_General_Interview::smk01</text></a></g>
<!-- F&#45;&gt;E -->
<g class="edge" id="edge5">
<title>F-&gt;E</title>
<path d="M762.78,-217.72C710.07,-206.71 638.86,-191.83 583.99,-180.37" fill="none" stroke="black"/>
<polygon fill="black" points="584.75,-176.74 574.25,-178.12 583.32,-183.59 584.75,-176.74" stroke="black"/>
</g>
</g>
</svg>