<?xml version="1.0" encoding="utf-8"?>
<!DOCTYPE svg PUBLIC "-//W3C//DTD SVG 1.1//EN" "http://www.w3.org/Graphics/SVG/1.1/DTD/svg11.dtd">
<!-- Generated by graphviz version 8.1.0 (20230707.0739)
 --><!-- Pages: 1 --><svg height="260pt" viewBox="0.00 0.00 308.26 260.00" width="308pt" xmlns="http://www.w3.org/2000/svg" xmlns:xlink="http://www.w3.org/1999/xlink">
<g class="graph" id="graph0" transform="scale(1 1) rotate(0) translate(4 256)">
<polygon fill="white" points="-4,4 -4,-256 304.26,-256 304.26,4 -4,4" stroke="none"/>
<!-- A -->
<g class="node" id="node1"><a xlink:href="https://mindset.umc.edu/blsa-explore-me/index.html?search=m5vI32609HG6"><title>A</title><ellipse cx="150.13" cy="-90" fill="#a0ced9" rx="150.13" ry="18" stroke="black"/><text font-family="Times,serif" font-size="14.00" text-anchor="middle" x="150.13" y="-84.95">Derived::der_demographics::race3cat</text></a></g>
<!-- C -->
<g class="node" id="node3"><a xlink:href="https://mindset.umc.edu/blsa-explore-me/index.html?search=HLhks73TZHTD"><title>C</title><ellipse cx="150.13" cy="-18" fill="#ffc09f" rx="139.38" ry="18" stroke="black"/><text font-family="Times,serif" font-size="14.00" text-anchor="middle" x="150.13" y="-12.95">Derived::der_demographics::black</text></a></g>
<!-- A&#45;&gt;C -->
<g class="edge" id="edge1">
<title>A-&gt;C</title>
<path d="M150.13,-71.7C150.13,-64.24 150.13,-55.32 150.13,-46.97" fill="none" stroke="black"/>
<polygon fill="black" points="153.63,-47.1 150.13,-37.1 146.63,-47.1 153.63,-47.1" stroke="black"/>
</g>
<!-- B -->
<g class="node" id="node2"><a xlink:href="https://mindset.umc.edu/blsa-explore-me/index.html?search=vjv4Qbzx66"><title>B</title><ellipse cx="150.13" cy="-162" fill="#a0ced9" rx="134.78" ry="18" stroke="black"/><text font-family="Times,serif" font-size="14.00" text-anchor="middle" x="150.13" y="-156.95">Derived::der_demographics::race</text></a></g>
<!-- B&#45;&gt;A -->
<g class="edge" id="edge2">
<title>B-&gt;A</title>
<path d="M150.13,-143.7C150.13,-136.24 150.13,-127.32 150.13,-118.97" fill="none" stroke="black"/>
<polygon fill="black" points="153.63,-119.1 150.13,-109.1 146.63,-119.1 153.63,-119.1" stroke="black"/>
</g>
<!-- D -->
<g class="node" id="node4"><a xlink:href="https://mindset.umc.edu/blsa-explore-me/index.html?search=CCFBb0WjDy"><title>D</title><ellipse cx="150.13" cy="-234" fill="#a0ced9" rx="108.67" ry="18" stroke="black"/><text font-family="Times,serif" font-size="14.00" text-anchor="middle" x="150.13" y="-228.95">Cohort::demography::race</text></a></g>
<!-- D&#45;&gt;B -->
<g class="edge" id="edge3">
<title>D-&gt;B</title>
<path d="M150.13,-215.7C150.13,-208.24 150.13,-199.32 150.13,-190.97" fill="none" stroke="black"/>
<polygon fill="black" points="153.63,-191.1 150.13,-181.1 146.63,-191.1 153.63,-191.1" stroke="black"/>
</g>
</g>
</svg>