<?xml version="1.0" encoding="utf-8"?>
<!DOCTYPE svg PUBLIC "-//W3C//DTD SVG 1.1//EN" "http://www.w3.org/Graphics/SVG/1.1/DTD/svg11.dtd">
<!-- Generated by graphviz version 8.1.0 (20230707.0739)
 --><!-- Pages: 1 --><svg height="260pt" viewBox="0.00 0.00 1383.90 260.00" width="1384pt" xmlns="http://www.w3.org/2000/svg" xmlns:xlink="http://www.w3.org/1999/xlink">
<g class="graph" id="graph0" transform="scale(1 1) rotate(0) translate(4 256)">
<polygon fill="white" points="-4,4 -4,-256 1379.9,-256 1379.9,4 -4,4" stroke="none"/>
<!-- A -->
<g class="node" id="node1"><a xlink:href="https://mindset.umc.edu/blsa-explore-me/index.html?search=MzIIW1QTjp"><title>A</title><ellipse cx="166" cy="-234" fill="#a0ced9" rx="166" ry="18" stroke="black"/><text font-family="Times,serif" font-size="14.00" text-anchor="middle" x="166" y="-228.95">OC::BLSA_Body_Measurements::ant06c</text></a></g>
<!-- B -->
<g class="node" id="node2"><a xlink:href="https://mindset.umc.edu/blsa-explore-me/index.html?search=sEuwbBOvvFoZ"><title>B</title><ellipse cx="692" cy="-162" fill="#a0ced9" rx="145.01" ry="18" stroke="black"/><text font-family="Times,serif" font-size="14.00" text-anchor="middle" x="692" y="-156.95">Derived::der_anthropometry::height</text></a></g>
<!-- A&#45;&gt;B -->
<g class="edge" id="edge1">
<title>A-&gt;B</title>
<path d="M268.04,-219.42C359.14,-207.3 492.1,-189.6 584.75,-177.27" fill="none" stroke="black"/>
<polygon fill="black" points="585.11,-180.62 594.56,-175.83 584.19,-173.68 585.11,-180.62" stroke="black"/>
</g>
<!-- E -->
<g class="node" id="node5"><a xlink:href="https://mindset.umc.edu/blsa-explore-me/index.html?search=jTtD8vdsBXqB"><title>E</title><ellipse cx="847" cy="-90" fill="#ffc09f" rx="136.82" ry="18" stroke="black"/><text font-family="Times,serif" font-size="14.00" text-anchor="middle" x="847" y="-84.95">Derived::der_anthropometry::bmi</text></a></g>
<!-- B&#45;&gt;E -->
<g class="edge" id="edge2">
<title>B-&gt;E</title>
<path d="M729.12,-144.23C750.42,-134.61 777.36,-122.45 800.11,-112.17" fill="none" stroke="black"/>
<polygon fill="black" points="801.23,-115.06 808.9,-107.75 798.35,-108.68 801.23,-115.06" stroke="black"/>
</g>
<!-- C -->
<g class="node" id="node3"><a xlink:href="https://mindset.umc.edu/blsa-explore-me/index.html?search=HfNC8dppeC"><title>C</title><ellipse cx="517" cy="-234" fill="#a0ced9" rx="166.51" ry="18" stroke="black"/><text font-family="Times,serif" font-size="14.00" text-anchor="middle" x="517" y="-228.95">OC::BLSA_Body_Measurements::ant06b</text></a></g>
<!-- C&#45;&gt;B -->
<g class="edge" id="edge3">
<title>C-&gt;B</title>
<path d="M558.91,-216.23C583.37,-206.45 614.43,-194.03 640.38,-183.65" fill="none" stroke="black"/>
<polygon fill="black" points="641.44,-186.59 649.42,-179.63 638.84,-180.09 641.44,-186.59" stroke="black"/>
</g>
<!-- D -->
<g class="node" id="node4"><a xlink:href="https://mindset.umc.edu/blsa-explore-me/index.html?search=I9Ti7Icb4X6e"><title>D</title><ellipse cx="674" cy="-18" fill="#ffee93" rx="163.95" ry="18" stroke="black"/><text font-family="Times,serif" font-size="14.00" text-anchor="middle" x="674" y="-12.95">Derived::der_anthropometry::obesity6cat</text></a></g>
<!-- E&#45;&gt;D -->
<g class="edge" id="edge5">
<title>E-&gt;D</title>
<path d="M806,-72.41C781.92,-62.67 751.26,-50.26 725.55,-39.86" fill="none" stroke="black"/>
<polygon fill="black" points="727.18,-36.34 716.6,-35.83 724.56,-42.83 727.18,-36.34" stroke="black"/>
</g>
<!-- I -->
<g class="node" id="node9"><a xlink:href="https://mindset.umc.edu/blsa-explore-me/index.html?search=wT7G1AJ11DS4"><title>I</title><ellipse cx="1020" cy="-18" fill="#ffee93" rx="163.95" ry="18" stroke="black"/><text font-family="Times,serif" font-size="14.00" text-anchor="middle" x="1020" y="-12.95">Derived::der_anthropometry::obesity4cat</text></a></g>
<!-- E&#45;&gt;I -->
<g class="edge" id="edge4">
<title>E-&gt;I</title>
<path d="M888,-72.41C912.08,-62.67 942.73,-50.26 968.44,-39.86" fill="none" stroke="black"/>
<polygon fill="black" points="969.43,-42.83 977.39,-35.83 966.81,-36.34 969.43,-42.83" stroke="black"/>
</g>
<!-- F -->
<g class="node" id="node6"><a xlink:href="https://mindset.umc.edu/blsa-explore-me/index.html?search=KK4zICGQ19"><title>F</title><ellipse cx="1214" cy="-234" fill="#a0ced9" rx="161.9" ry="18" stroke="black"/><text font-family="Times,serif" font-size="14.00" text-anchor="middle" x="1214" y="-228.95">OC::BLSA_Body_Measurements::ant05</text></a></g>
<!-- G -->
<g class="node" id="node7"><a xlink:href="https://mindset.umc.edu/blsa-explore-me/index.html?search=iUH9juGP08y0"><title>G</title><ellipse cx="1108" cy="-162" fill="#a0ced9" rx="147.06" ry="18" stroke="black"/><text font-family="Times,serif" font-size="14.00" text-anchor="middle" x="1108" y="-156.95">Derived::der_anthropometry::weight</text></a></g>
<!-- F&#45;&gt;G -->
<g class="edge" id="edge6">
<title>F-&gt;G</title>
<path d="M1188.07,-215.88C1174.46,-206.89 1157.61,-195.76 1142.88,-186.03" fill="none" stroke="black"/>
<polygon fill="black" points="1145.3,-182.78 1135.03,-180.19 1141.44,-188.62 1145.3,-182.78" stroke="black"/>
</g>
<!-- G&#45;&gt;E -->
<g class="edge" id="edge7">
<title>G-&gt;E</title>
<path d="M1048.77,-145.12C1009.34,-134.54 957.38,-120.61 916.07,-109.53" fill="none" stroke="black"/>
<polygon fill="black" points="917.1,-105.91 906.54,-106.7 915.29,-112.67 917.1,-105.91" stroke="black"/>
</g>
<!-- H -->
<g class="node" id="node8"><a xlink:href="https://mindset.umc.edu/blsa-explore-me/index.html?search=ezFitGBaHq"><title>H</title><ellipse cx="868" cy="-234" fill="#a0ced9" rx="166" ry="18" stroke="black"/><text font-family="Times,serif" font-size="14.00" text-anchor="middle" x="868" y="-228.95">OC::BLSA_Body_Measurements::ant06a</text></a></g>
<!-- H&#45;&gt;B -->
<g class="edge" id="edge8">
<title>H-&gt;B</title>
<path d="M825.84,-216.23C801.24,-206.45 770.01,-194.03 743.91,-183.65" fill="none" stroke="black"/>
<polygon fill="black" points="745.39,-180.07 734.81,-179.63 742.81,-186.58 745.39,-180.07" stroke="black"/>
</g>
</g>
</svg>