<?xml version="1.0" encoding="utf-8"?>
<!DOCTYPE svg PUBLIC "-//W3C//DTD SVG 1.1//EN" "http://www.w3.org/Graphics/SVG/1.1/DTD/svg11.dtd">
<!-- Generated by graphviz version 8.1.0 (20230707.0739)
 --><!-- Pages: 1 --><svg height="332pt" viewBox="0.00 0.00 314.40 332.00" width="314pt" xmlns="http://www.w3.org/2000/svg" xmlns:xlink="http://www.w3.org/1999/xlink">
<g class="graph" id="graph0" transform="scale(1 1) rotate(0) translate(4 328)">
<polygon fill="white" points="-4,4 -4,-328 310.4,-328 310.4,4 -4,4" stroke="none"/>
<!-- A -->
<g class="node" id="node1"><a xlink:href="https://mindset.umc.edu/blsa-explore-me/index.html?search=i03wMlL7OQmU"><title>A</title><ellipse cx="153.2" cy="-90" fill="#ffee93" rx="153.2" ry="18" stroke="black"/><text font-family="Times,serif" font-size="14.00" text-anchor="middle" x="153.2" y="-84.95">Derived::der_demographics::smokehx</text></a></g>
<!-- D -->
<g class="node" id="node4"><a xlink:href="https://mindset.umc.edu/blsa-explore-me/index.html?search=B485uu05yqaO"><title>D</title><ellipse cx="153.2" cy="-18" fill="#ffee93" rx="147.06" ry="18" stroke="black"/><text font-family="Times,serif" font-size="14.00" text-anchor="middle" x="153.2" y="-12.95">Derived::der_demographics::smoker</text></a></g>
<!-- A&#45;&gt;D -->
<g class="edge" id="edge1">
<title>A-&gt;D</title>
<path d="M153.2,-71.7C153.2,-64.24 153.2,-55.32 153.2,-46.97" fill="none" stroke="black"/>
<polygon fill="black" points="156.7,-47.1 153.2,-37.1 149.7,-47.1 156.7,-47.1" stroke="black"/>
</g>
<!-- B -->
<g class="node" id="node2"><a xlink:href="https://mindset.umc.edu/blsa-explore-me/index.html?search=RiSSGqO8da"><title>B</title><ellipse cx="153.2" cy="-234" fill="#ffc09f" rx="152.18" ry="18" stroke="black"/><text font-family="Times,serif" font-size="14.00" text-anchor="middle" x="153.2" y="-228.95">Derived::der_demographics::birthdate</text></a></g>
<!-- E -->
<g class="node" id="node5"><a xlink:href="https://mindset.umc.edu/blsa-explore-me/index.html?search=mHn6zPaI1f5q"><title>E</title><ellipse cx="153.2" cy="-162" fill="#ffee93" rx="132.22" ry="18" stroke="black"/><text font-family="Times,serif" font-size="14.00" text-anchor="middle" x="153.2" y="-156.95">Derived::der_demographics::age</text></a></g>
<!-- B&#45;&gt;E -->
<g class="edge" id="edge2">
<title>B-&gt;E</title>
<path d="M153.2,-215.7C153.2,-208.24 153.2,-199.32 153.2,-190.97" fill="none" stroke="black"/>
<polygon fill="black" points="156.7,-191.1 153.2,-181.1 149.7,-191.1 156.7,-191.1" stroke="black"/>
</g>
<!-- C -->
<g class="node" id="node3"><a xlink:href="https://mindset.umc.edu/blsa-explore-me/index.html?search=5tvCoHlrvz"><title>C</title><ellipse cx="153.2" cy="-306" fill="#a0ced9" rx="126.08" ry="18" stroke="black"/><text font-family="Times,serif" font-size="14.00" text-anchor="middle" x="153.2" y="-300.95">Cohort::demography::birthdate</text></a></g>
<!-- C&#45;&gt;B -->
<g class="edge" id="edge3">
<title>C-&gt;B</title>
<path d="M153.2,-287.7C153.2,-280.24 153.2,-271.32 153.2,-262.97" fill="none" stroke="black"/>
<polygon fill="black" points="156.7,-263.1 153.2,-253.1 149.7,-263.1 156.7,-263.1" stroke="black"/>
</g>
<!-- E&#45;&gt;A -->
<g class="edge" id="edge4">
<title>E-&gt;A</title>
<path d="M153.2,-143.7C153.2,-136.24 153.2,-127.32 153.2,-118.97" fill="none" stroke="black"/>
<polygon fill="black" points="156.7,-119.1 153.2,-109.1 149.7,-119.1 156.7,-119.1" stroke="black"/>
</g>
</g>
</svg>