<?xml version="1.0" encoding="utf-8"?>
<!DOCTYPE svg PUBLIC "-//W3C//DTD SVG 1.1//EN" "http://www.w3.org/Graphics/SVG/1.1/DTD/svg11.dtd">
<!-- Generated by graphviz version 8.1.0 (20230707.0739)
 --><!-- Pages: 1 --><svg height="188pt" viewBox="0.00 0.00 1041.50 188.00" width="1042pt" xmlns="http://www.w3.org/2000/svg" xmlns:xlink="http://www.w3.org/1999/xlink">
<g class="graph" id="graph0" transform="scale(1 1) rotate(0) translate(4 184)">
<polygon fill="white" points="-4,4 -4,-184 1037.5,-184 1037.5,4 -4,4" stroke="none"/>
<!-- A -->
<g class="node" id="node1"><a xlink:href="https://mindset.umc.edu/blsa-explore-me/index.html?search=G1TGJ2diVfP6"><title>A</title><ellipse cx="516" cy="-90" fill="#ffc09f" rx="147.57" ry="18" stroke="black"/><text font-family="Times,serif" font-size="14.00" text-anchor="middle" x="516" y="-84.95">Derived::der_anthropometry::hipcirc</text></a></g>
<!-- E -->
<g class="node" id="node5"><a xlink:href="https://mindset.umc.edu/blsa-explore-me/index.html?search=b8bL8tBMJM4S"><title>E</title><ellipse cx="516" cy="-18" fill="#ffee93" rx="153.2" ry="18" stroke="black"/><text font-family="Times,serif" font-size="14.00" text-anchor="middle" x="516" y="-12.95">Derived::der_anthropometry::waisthip</text></a></g>
<!-- A&#45;&gt;E -->
<g class="edge" id="edge1">
<title>A-&gt;E</title>
<path d="M516,-71.7C516,-64.24 516,-55.32 516,-46.97" fill="none" stroke="black"/>
<polygon fill="black" points="519.5,-47.1 516,-37.1 512.5,-47.1 519.5,-47.1" stroke="black"/>
</g>
<!-- B -->
<g class="node" id="node2"><a xlink:href="https://mindset.umc.edu/blsa-explore-me/index.html?search=LcY6J5VRYU"><title>B</title><ellipse cx="166" cy="-162" fill="#a0ced9" rx="166" ry="18" stroke="black"/><text font-family="Times,serif" font-size="14.00" text-anchor="middle" x="166" y="-156.95">OC::BLSA_Body_Measurements::ant11a</text></a></g>
<!-- B&#45;&gt;A -->
<g class="edge" id="edge2">
<title>B-&gt;A</title>
<path d="M242.81,-145.64C298.4,-134.52 373.56,-119.49 430.96,-108.01" fill="none" stroke="black"/>
<polygon fill="black" points="431.35,-111.3 440.47,-105.91 429.98,-104.43 431.35,-111.3" stroke="black"/>
</g>
<!-- C -->
<g class="node" id="node3"><a xlink:href="https://mindset.umc.edu/blsa-explore-me/index.html?search=RQb7bOm9Am"><title>C</title><ellipse cx="516" cy="-162" fill="#a0ced9" rx="166" ry="18" stroke="black"/><text font-family="Times,serif" font-size="14.00" text-anchor="middle" x="516" y="-156.95">OC::BLSA_Body_Measurements::ant11c</text></a></g>
<!-- C&#45;&gt;A -->
<g class="edge" id="edge3">
<title>C-&gt;A</title>
<path d="M516,-143.7C516,-136.24 516,-127.32 516,-118.97" fill="none" stroke="black"/>
<polygon fill="black" points="519.5,-119.1 516,-109.1 512.5,-119.1 519.5,-119.1" stroke="black"/>
</g>
<!-- D -->
<g class="node" id="node4"><a xlink:href="https://mindset.umc.edu/blsa-explore-me/index.html?search=yEv4Ab5sHP"><title>D</title><ellipse cx="867" cy="-162" fill="#a0ced9" rx="166.51" ry="18" stroke="black"/><text font-family="Times,serif" font-size="14.00" text-anchor="middle" x="867" y="-156.95">OC::BLSA_Body_Measurements::ant11b</text></a></g>
<!-- D&#45;&gt;A -->
<g class="edge" id="edge4">
<title>D-&gt;A</title>
<path d="M789.97,-145.64C734.21,-134.52 658.84,-119.49 601.27,-108.01" fill="none" stroke="black"/>
<polygon fill="black" points="602.23,-104.43 591.74,-105.91 600.86,-111.29 602.23,-104.43" stroke="black"/>
</g>
</g>
</svg>