<?xml version="1.0" encoding="utf-8"?>
<!DOCTYPE svg PUBLIC "-//W3C//DTD SVG 1.1//EN" "http://www.w3.org/Graphics/SVG/1.1/DTD/svg11.dtd">
<!-- Generated by graphviz version 8.1.0 (20230707.0739)
 --><!-- Pages: 1 --><svg height="188pt" viewBox="0.00 0.00 2686.72 188.00" width="2687pt" xmlns="http://www.w3.org/2000/svg" xmlns:xlink="http://www.w3.org/1999/xlink">
<g class="graph" id="graph0" transform="scale(1 1) rotate(0) translate(4 184)">
<polygon fill="white" points="-4,4 -4,-184 2682.72,-184 2682.72,4 -4,4" stroke="none"/>
<!-- A -->
<g class="node" id="node1"><a xlink:href="https://mindset.umc.edu/blsa-explore-me/index.html?search=MmKu1k5ANul5"><title>A</title><ellipse cx="1329.26" cy="-90" fill="#a0ced9" rx="179.82" ry="18" stroke="black"/><text font-family="Times,serif" font-size="14.00" text-anchor="middle" x="1329.26" y="-84.95">Derived::der_physicalperformance::gaitspeed</text></a></g>
<!-- B -->
<g class="node" id="node2"><a xlink:href="https://mindset.umc.edu/blsa-explore-me/index.html?search=VNwA5RBG7A"><title>B</title><ellipse cx="1329.26" cy="-18" fill="#ffc09f" rx="174.7" ry="18" stroke="black"/><text font-family="Times,serif" font-size="14.00" text-anchor="middle" x="1329.26" y="-12.95">Derived::der_physicalperformance::gs_ratio</text></a></g>
<!-- A&#45;&gt;B -->
<g class="edge" id="edge1">
<title>A-&gt;B</title>
<path d="M1329.26,-71.7C1329.26,-64.24 1329.26,-55.32 1329.26,-46.97" fill="none" stroke="black"/>
<polygon fill="black" points="1332.76,-47.1 1329.26,-37.1 1325.76,-47.1 1332.76,-47.1" stroke="black"/>
</g>
<!-- C -->
<g class="node" id="node3"><a xlink:href="https://mindset.umc.edu/blsa-explore-me/index.html?search=quzedhb9jO"><title>C</title><ellipse cx="177.26" cy="-162" fill="#a0ced9" rx="177.26" ry="18" stroke="black"/><text font-family="Times,serif" font-size="14.00" text-anchor="middle" x="177.26" y="-156.95">OC::BLSA_LE_Physical_Performance::lep7</text></a></g>
<!-- C&#45;&gt;A -->
<g class="edge" id="edge2">
<title>C-&gt;A</title>
<path d="M302.94,-148.95C323.42,-147.17 344.42,-145.45 364.26,-144 641.2,-123.81 963.37,-107.58 1156.55,-98.62" fill="none" stroke="black"/>
<polygon fill="black" points="1156.54,-102.08 1166.36,-98.12 1156.21,-95.09 1156.54,-102.08" stroke="black"/>
</g>
<!-- D -->
<g class="node" id="node4"><a xlink:href="https://mindset.umc.edu/blsa-explore-me/index.html?search=j2Y5fhTvzz"><title>D</title><ellipse cx="554.26" cy="-162" fill="#a0ced9" rx="181.35" ry="18" stroke="black"/><text font-family="Times,serif" font-size="14.00" text-anchor="middle" x="554.26" y="-156.95">OC::BLSA_LE_Physical_Performance::lep7a</text></a></g>
<!-- D&#45;&gt;A -->
<g class="edge" id="edge3">
<title>D-&gt;A</title>
<path d="M684.85,-149.2C824.47,-136.59 1045.07,-116.67 1188.48,-103.72" fill="none" stroke="black"/>
<polygon fill="black" points="1188.46,-107.14 1198.1,-102.76 1187.83,-100.17 1188.46,-107.14" stroke="black"/>
</g>
<!-- E -->
<g class="node" id="node5"><a xlink:href="https://mindset.umc.edu/blsa-explore-me/index.html?search=SltMCs4PiV"><title>E</title><ellipse cx="939.26" cy="-162" fill="#a0ced9" rx="185.96" ry="18" stroke="black"/><text font-family="Times,serif" font-size="14.00" text-anchor="middle" x="939.26" y="-156.95">OC::BLSA_LE_Physical_Performance::lep7a2</text></a></g>
<!-- E&#45;&gt;A -->
<g class="edge" id="edge4">
<title>E-&gt;A</title>
<path d="M1024.84,-145.64C1086.55,-134.56 1169.86,-119.61 1233.73,-108.15" fill="none" stroke="black"/>
<polygon fill="black" points="1233.98,-111.48 1243.2,-106.27 1232.74,-104.59 1233.98,-111.48" stroke="black"/>
</g>
<!-- F -->
<g class="node" id="node6"><a xlink:href="https://mindset.umc.edu/blsa-explore-me/index.html?search=JjrRmDUALK"><title>F</title><ellipse cx="1329.26" cy="-162" fill="#a0ced9" rx="185.96" ry="18" stroke="black"/><text font-family="Times,serif" font-size="14.00" text-anchor="middle" x="1329.26" y="-156.95">OC::BLSA_LE_Physical_Performance::lep7a1</text></a></g>
<!-- F&#45;&gt;A -->
<g class="edge" id="edge5">
<title>F-&gt;A</title>
<path d="M1329.26,-143.7C1329.26,-136.24 1329.26,-127.32 1329.26,-118.97" fill="none" stroke="black"/>
<polygon fill="black" points="1332.76,-119.1 1329.26,-109.1 1325.76,-119.1 1332.76,-119.1" stroke="black"/>
</g>
<!-- G -->
<g class="node" id="node7"><a xlink:href="https://mindset.umc.edu/blsa-explore-me/index.html?search=aVPqExXWPJ"><title>G</title><ellipse cx="1715.26" cy="-162" fill="#a0ced9" rx="181.86" ry="18" stroke="black"/><text font-family="Times,serif" font-size="14.00" text-anchor="middle" x="1715.26" y="-156.95">OC::BLSA_LE_Physical_Performance::lep7b</text></a></g>
<!-- G&#45;&gt;A -->
<g class="edge" id="edge6">
<title>G-&gt;A</title>
<path d="M1630.55,-145.64C1569.71,-134.61 1487.64,-119.72 1424.52,-108.28" fill="none" stroke="black"/>
<polygon fill="black" points="1425.23,-104.67 1414.77,-106.33 1423.98,-111.55 1425.23,-104.67" stroke="black"/>
</g>
<!-- H -->
<g class="node" id="node8"><a xlink:href="https://mindset.umc.edu/blsa-explore-me/index.html?search=N6Uue0e6L9"><title>H</title><ellipse cx="2101.26" cy="-162" fill="#a0ced9" rx="186.47" ry="18" stroke="black"/><text font-family="Times,serif" font-size="14.00" text-anchor="middle" x="2101.26" y="-156.95">OC::BLSA_LE_Physical_Performance::lep7b1</text></a></g>
<!-- H&#45;&gt;A -->
<g class="edge" id="edge7">
<title>H-&gt;A</title>
<path d="M1968.98,-149.01C1829.98,-136.4 1612.18,-116.65 1470.06,-103.77" fill="none" stroke="black"/>
<polygon fill="black" points="1470.38,-100.19 1460.11,-102.77 1469.75,-107.16 1470.38,-100.19" stroke="black"/>
</g>
<!-- I -->
<g class="node" id="node9"><a xlink:href="https://mindset.umc.edu/blsa-explore-me/index.html?search=yNvGIT5zFQ"><title>I</title><ellipse cx="2492.26" cy="-162" fill="#a0ced9" rx="186.47" ry="18" stroke="black"/><text font-family="Times,serif" font-size="14.00" text-anchor="middle" x="2492.26" y="-156.95">OC::BLSA_LE_Physical_Performance::lep7b2</text></a></g>
<!-- I&#45;&gt;A -->
<g class="edge" id="edge8">
<title>I-&gt;A</title>
<path d="M2359.99,-148.95C2338.69,-147.18 2316.87,-145.46 2296.26,-144 2018.08,-124.32 1694.44,-107.89 1501.02,-98.76" fill="none" stroke="black"/>
<polygon fill="black" points="1501.34,-95.23 1491.19,-98.25 1501.01,-102.22 1501.34,-95.23" stroke="black"/>
</g>
</g>
</svg>