<?xml version="1.0" encoding="utf-8"?>
<!DOCTYPE svg PUBLIC "-//W3C//DTD SVG 1.1//EN" "http://www.w3.org/Graphics/SVG/1.1/DTD/svg11.dtd">
<!-- Generated by graphviz version 8.1.0 (20230707.0739)
 --><!-- Pages: 1 --><svg height="260pt" viewBox="0.00 0.00 1109.34 260.00" width="1109pt" xmlns="http://www.w3.org/2000/svg" xmlns:xlink="http://www.w3.org/1999/xlink">
<g class="graph" id="graph0" transform="scale(1 1) rotate(0) translate(4 256)">
<polygon fill="white" points="-4,4 -4,-256 1105.34,-256 1105.34,4 -4,4" stroke="none"/>
<!-- A -->
<g class="node" id="node1"><a xlink:href="https://mindset.umc.edu/blsa-explore-me/index.html?search=I9Ti7Icb4X6e"><title>A</title><ellipse cx="163.95" cy="-18" fill="#ffee93" rx="163.95" ry="18" stroke="black"/><text font-family="Times,serif" font-size="14.00" text-anchor="middle" x="163.95" y="-12.95">Derived::der_anthropometry::obesity6cat</text></a></g>
<!-- B -->
<g class="node" id="node2"><a xlink:href="https://mindset.umc.edu/blsa-explore-me/index.html?search=jTtD8vdsBXqB"><title>B</title><ellipse cx="336.95" cy="-90" fill="#ffee93" rx="136.82" ry="18" stroke="black"/><text font-family="Times,serif" font-size="14.00" text-anchor="middle" x="336.95" y="-84.95">Derived::der_anthropometry::bmi</text></a></g>
<!-- B&#45;&gt;A -->
<g class="edge" id="edge2">
<title>B-&gt;A</title>
<path d="M295.95,-72.41C271.87,-62.67 241.21,-50.26 215.5,-39.86" fill="none" stroke="black"/>
<polygon fill="black" points="217.14,-36.34 206.55,-35.83 214.51,-42.83 217.14,-36.34" stroke="black"/>
</g>
<!-- G -->
<g class="node" id="node7"><a xlink:href="https://mindset.umc.edu/blsa-explore-me/index.html?search=wT7G1AJ11DS4"><title>G</title><ellipse cx="509.95" cy="-18" fill="#ffee93" rx="163.95" ry="18" stroke="black"/><text font-family="Times,serif" font-size="14.00" text-anchor="middle" x="509.95" y="-12.95">Derived::der_anthropometry::obesity4cat</text></a></g>
<!-- B&#45;&gt;G -->
<g class="edge" id="edge1">
<title>B-&gt;G</title>
<path d="M377.95,-72.41C402.03,-62.67 432.69,-50.26 458.4,-39.86" fill="none" stroke="black"/>
<polygon fill="black" points="459.39,-42.83 467.34,-35.83 456.76,-36.34 459.39,-42.83" stroke="black"/>
</g>
<!-- C -->
<g class="node" id="node3"><a xlink:href="https://mindset.umc.edu/blsa-explore-me/index.html?search=KK4zICGQ19"><title>C</title><ellipse cx="625.95" cy="-234" fill="#a0ced9" rx="161.9" ry="18" stroke="black"/><text font-family="Times,serif" font-size="14.00" text-anchor="middle" x="625.95" y="-228.95">OC::BLSA_Body_Measurements::ant05</text></a></g>
<!-- F -->
<g class="node" id="node6"><a xlink:href="https://mindset.umc.edu/blsa-explore-me/index.html?search=iUH9juGP08y0"><title>F</title><ellipse cx="625.95" cy="-162" fill="#ffc09f" rx="147.06" ry="18" stroke="black"/><text font-family="Times,serif" font-size="14.00" text-anchor="middle" x="625.95" y="-156.95">Derived::der_anthropometry::weight</text></a></g>
<!-- C&#45;&gt;F -->
<g class="edge" id="edge3">
<title>C-&gt;F</title>
<path d="M625.95,-215.7C625.95,-208.24 625.95,-199.32 625.95,-190.97" fill="none" stroke="black"/>
<polygon fill="black" points="629.45,-191.1 625.95,-181.1 622.45,-191.1 629.45,-191.1" stroke="black"/>
</g>
<!-- D -->
<g class="node" id="node4"><a xlink:href="https://mindset.umc.edu/blsa-explore-me/index.html?search=HDY2jNdIom"><title>D</title><ellipse cx="625.95" cy="-90" fill="#ffee93" rx="134.26" ry="18" stroke="black"/><text font-family="Times,serif" font-size="14.00" text-anchor="middle" x="625.95" y="-84.95">Derived::der_anthropometry::bsa</text></a></g>
<!-- E -->
<g class="node" id="node5"><a xlink:href="https://mindset.umc.edu/blsa-explore-me/index.html?search=cC4AU3R54P3V"><title>E</title><ellipse cx="939.95" cy="-90" fill="#ffee93" rx="161.39" ry="18" stroke="black"/><text font-family="Times,serif" font-size="14.00" text-anchor="middle" x="939.95" y="-84.95">Derived::der_anthropometry::weightloss</text></a></g>
<!-- F&#45;&gt;B -->
<g class="edge" id="edge6">
<title>F-&gt;B</title>
<path d="M561.45,-145.38C516.85,-134.57 457.4,-120.17 410.88,-108.91" fill="none" stroke="black"/>
<polygon fill="black" points="411.8,-105.29 401.25,-106.33 410.15,-112.09 411.8,-105.29" stroke="black"/>
</g>
<!-- F&#45;&gt;D -->
<g class="edge" id="edge5">
<title>F-&gt;D</title>
<path d="M625.95,-143.7C625.95,-136.24 625.95,-127.32 625.95,-118.97" fill="none" stroke="black"/>
<polygon fill="black" points="629.45,-119.1 625.95,-109.1 622.45,-119.1 629.45,-119.1" stroke="black"/>
</g>
<!-- F&#45;&gt;E -->
<g class="edge" id="edge4">
<title>F-&gt;E</title>
<path d="M694.47,-145.72C742.99,-134.91 808.25,-120.36 859.28,-108.98" fill="none" stroke="black"/>
<polygon fill="black" points="859.95,-112.2 868.95,-106.61 858.42,-105.37 859.95,-112.2" stroke="black"/>
</g>
</g>
</svg>