<?xml version="1.0" encoding="utf-8"?>
<!DOCTYPE svg PUBLIC "-//W3C//DTD SVG 1.1//EN" "http://www.w3.org/Graphics/SVG/1.1/DTD/svg11.dtd">
<!-- Generated by graphviz version 8.1.0 (20230707.0739)
 --><!-- Pages: 1 --><svg height="332pt" viewBox="0.00 0.00 1612.15 332.00" width="1612pt" xmlns="http://www.w3.org/2000/svg" xmlns:xlink="http://www.w3.org/1999/xlink">
<g class="graph" id="graph0" transform="scale(1 1) rotate(0) translate(4 328)">
<polygon fill="white" points="-4,4 -4,-328 1608.15,-328 1608.15,4 -4,4" stroke="none"/>
<!-- A -->
<g class="node" id="node1"><a xlink:href="https://mindset.umc.edu/blsa-explore-me/index.html?search=i03wMlL7OQmU"><title>A</title><ellipse cx="471.88" cy="-90" fill="#a0ced9" rx="153.2" ry="18" stroke="black"/><text font-family="Times,serif" font-size="14.00" text-anchor="middle" x="471.88" y="-84.95">Derived::der_demographics::smokehx</text></a></g>
<!-- G -->
<g class="node" id="node7"><a xlink:href="https://mindset.umc.edu/blsa-explore-me/index.html?search=B485uu05yqaO"><title>G</title><ellipse cx="471.88" cy="-18" fill="#ffc09f" rx="147.06" ry="18" stroke="black"/><text font-family="Times,serif" font-size="14.00" text-anchor="middle" x="471.88" y="-12.95">Derived::der_demographics::smoker</text></a></g>
<!-- A&#45;&gt;G -->
<g class="edge" id="edge1">
<title>A-&gt;G</title>
<path d="M471.88,-71.7C471.88,-64.24 471.88,-55.32 471.88,-46.97" fill="none" stroke="black"/>
<polygon fill="black" points="475.38,-47.1 471.88,-37.1 468.38,-47.1 475.38,-47.1" stroke="black"/>
</g>
<!-- B -->
<g class="node" id="node2"><a xlink:href="https://mindset.umc.edu/blsa-explore-me/index.html?search=TLjDVP3wSX"><title>B</title><ellipse cx="160.88" cy="-162" fill="#a0ced9" rx="160.88" ry="18" stroke="black"/><text font-family="Times,serif" font-size="14.00" text-anchor="middle" x="160.88" y="-156.95">OC::BLSA_General_Interview::smk01g</text></a></g>
<!-- B&#45;&gt;A -->
<g class="edge" id="edge2">
<title>B-&gt;A</title>
<path d="M230.29,-145.38C278.34,-134.56 342.4,-120.14 392.49,-108.87" fill="none" stroke="black"/>
<polygon fill="black" points="392.96,-112.12 401.95,-106.51 391.43,-105.3 392.96,-112.12" stroke="black"/>
</g>
<!-- C -->
<g class="node" id="node3"><a xlink:href="https://mindset.umc.edu/blsa-explore-me/index.html?search=RiSSGqO8da"><title>C</title><ellipse cx="179.88" cy="-234" fill="#a0ced9" rx="152.18" ry="18" stroke="black"/><text font-family="Times,serif" font-size="14.00" text-anchor="middle" x="179.88" y="-228.95">Derived::der_demographics::birthdate</text></a></g>
<!-- F -->
<g class="node" id="node6"><a xlink:href="https://mindset.umc.edu/blsa-explore-me/index.html?search=mHn6zPaI1f5q"><title>F</title><ellipse cx="471.88" cy="-162" fill="#a0ced9" rx="132.22" ry="18" stroke="black"/><text font-family="Times,serif" font-size="14.00" text-anchor="middle" x="471.88" y="-156.95">Derived::der_demographics::age</text></a></g>
<!-- C&#45;&gt;F -->
<g class="edge" id="edge3">
<title>C-&gt;F</title>
<path d="M245.05,-217.38C290.36,-206.51 350.85,-192.01 397.97,-180.72" fill="none" stroke="black"/>
<polygon fill="black" points="398.51,-183.95 407.42,-178.21 396.88,-177.14 398.51,-183.95" stroke="black"/>
</g>
<!-- D -->
<g class="node" id="node4"><a xlink:href="https://mindset.umc.edu/blsa-explore-me/index.html?search=5tvCoHlrvz"><title>D</title><ellipse cx="179.88" cy="-306" fill="#a0ced9" rx="126.08" ry="18" stroke="black"/><text font-family="Times,serif" font-size="14.00" text-anchor="middle" x="179.88" y="-300.95">Cohort::demography::birthdate</text></a></g>
<!-- D&#45;&gt;C -->
<g class="edge" id="edge4">
<title>D-&gt;C</title>
<path d="M179.88,-287.7C179.88,-280.24 179.88,-271.32 179.88,-262.97" fill="none" stroke="black"/>
<polygon fill="black" points="183.38,-263.1 179.88,-253.1 176.38,-263.1 183.38,-263.1" stroke="black"/>
</g>
<!-- E -->
<g class="node" id="node5"><a xlink:href="https://mindset.umc.edu/blsa-explore-me/index.html?search=EsWGnxpMpf"><title>E</title><ellipse cx="772.88" cy="-234" fill="#a0ced9" rx="160.88" ry="18" stroke="black"/><text font-family="Times,serif" font-size="14.00" text-anchor="middle" x="772.88" y="-228.95">OC::BLSA_General_Interview::smk01b</text></a></g>
<!-- J -->
<g class="node" id="node10"><a xlink:href="https://mindset.umc.edu/blsa-explore-me/index.html?search=K9KhtD1w9f4m"><title>J</title><ellipse cx="942.88" cy="-162" fill="#a0ced9" rx="148.08" ry="18" stroke="black"/><text font-family="Times,serif" font-size="14.00" text-anchor="middle" x="942.88" y="-156.95">Derived::der_demographics::smkstat</text></a></g>
<!-- E&#45;&gt;J -->
<g class="edge" id="edge5">
<title>E-&gt;J</title>
<path d="M813.6,-216.23C837.17,-206.53 867.04,-194.23 892.13,-183.9" fill="none" stroke="black"/>
<polygon fill="black" points="893.28,-186.8 901.2,-179.75 890.62,-180.32 893.28,-186.8" stroke="black"/>
</g>
<!-- F&#45;&gt;A -->
<g class="edge" id="edge6">
<title>F-&gt;A</title>
<path d="M471.88,-143.7C471.88,-136.24 471.88,-127.32 471.88,-118.97" fill="none" stroke="black"/>
<polygon fill="black" points="475.38,-119.1 471.88,-109.1 468.38,-119.1 475.38,-119.1" stroke="black"/>
</g>
<!-- H -->
<g class="node" id="node8"><a xlink:href="https://mindset.umc.edu/blsa-explore-me/index.html?search=yc3wBExI755f"><title>H</title><ellipse cx="471.88" cy="-234" fill="#a0ced9" rx="121.98" ry="18" stroke="black"/><text font-family="Times,serif" font-size="14.00" text-anchor="middle" x="471.88" y="-228.95">Derived::der_cohort::visitdate</text></a></g>
<!-- H&#45;&gt;F -->
<g class="edge" id="edge7">
<title>H-&gt;F</title>
<path d="M471.88,-215.7C471.88,-208.24 471.88,-199.32 471.88,-190.97" fill="none" stroke="black"/>
<polygon fill="black" points="475.38,-191.1 471.88,-181.1 468.38,-191.1 475.38,-191.1" stroke="black"/>
</g>
<!-- I -->
<g class="node" id="node9"><a xlink:href="https://mindset.umc.edu/blsa-explore-me/index.html?search=F6By8XQsub"><title>I</title><ellipse cx="1112.88" cy="-234" fill="#a0ced9" rx="160.88" ry="18" stroke="black"/><text font-family="Times,serif" font-size="14.00" text-anchor="middle" x="1112.88" y="-228.95">OC::BLSA_General_Interview::smk01d</text></a></g>
<!-- I&#45;&gt;J -->
<g class="edge" id="edge8">
<title>I-&gt;J</title>
<path d="M1072.16,-216.23C1048.59,-206.53 1018.72,-194.23 993.63,-183.9" fill="none" stroke="black"/>
<polygon fill="black" points="995.14,-180.32 984.56,-179.75 992.47,-186.8 995.14,-180.32" stroke="black"/>
</g>
<!-- J&#45;&gt;A -->
<g class="edge" id="edge9">
<title>J-&gt;A</title>
<path d="M851.51,-147.42C772.19,-135.63 657.42,-118.58 574.87,-106.31" fill="none" stroke="black"/>
<polygon fill="black" points="575.61,-102.73 565.2,-104.72 574.58,-109.65 575.61,-102.73" stroke="black"/>
</g>
<!-- K -->
<g class="node" id="node11"><a xlink:href="https://mindset.umc.edu/blsa-explore-me/index.html?search=xyz50MAyAD"><title>K</title><ellipse cx="1447.88" cy="-234" fill="#a0ced9" rx="156.27" ry="18" stroke="black"/><text font-family="Times,serif" font-size="14.00" text-anchor="middle" x="1447.88" y="-228.95">OC::BLSA_General_Interview::smk01</text></a></g>
<!-- K&#45;&gt;J -->
<g class="edge" id="edge10">
<title>K-&gt;J</title>
<path d="M1350.51,-219.5C1263.89,-207.5 1137.5,-189.98 1048.48,-177.64" fill="none" stroke="black"/>
<polygon fill="black" points="1049.2,-174.06 1038.81,-176.16 1048.23,-181 1049.2,-174.06" stroke="black"/>
</g>
<!-- L -->
<g class="node" id="node12"><a xlink:href="https://mindset.umc.edu/blsa-explore-me/index.html?search=AalmVrpsJs"><title>L</title><ellipse cx="471.88" cy="-306" fill="#a0ced9" rx="101.51" ry="18" stroke="black"/><text font-family="Times,serif" font-size="14.00" text-anchor="middle" x="471.88" y="-300.95">Cohort::cohort::visitdate</text></a></g>
<!-- L&#45;&gt;H -->
<g class="edge" id="edge11">
<title>L-&gt;H</title>
<path d="M471.88,-287.7C471.88,-280.24 471.88,-271.32 471.88,-262.97" fill="none" stroke="black"/>
<polygon fill="black" points="475.38,-263.1 471.88,-253.1 468.38,-263.1 475.38,-263.1" stroke="black"/>
</g>
</g>
</svg>