<?xml version="1.0" encoding="utf-8"?>
<!DOCTYPE svg PUBLIC "-//W3C//DTD SVG 1.1//EN" "http://www.w3.org/Graphics/SVG/1.1/DTD/svg11.dtd">
<!-- Generated by graphviz version 8.1.0 (20230707.0739)
 --><!-- Pages: 1 --><svg height="188pt" viewBox="0.00 0.00 949.77 188.00" width="950pt" xmlns="http://www.w3.org/2000/svg" xmlns:xlink="http://www.w3.org/1999/xlink">
<g class="graph" id="graph0" transform="scale(1 1) rotate(0) translate(4 184)">
<polygon fill="white" points="-4,4 -4,-184 945.77,-184 945.77,4 -4,4" stroke="none"/>
<!-- A -->
<g class="node" id="node1"><a xlink:href="https://mindset.umc.edu/blsa-explore-me/index.html?search=ZmoYZUwnSk"><title>A</title><ellipse cx="152.69" cy="-162" fill="#a0ced9" rx="152.69" ry="18" stroke="black"/><text font-family="Times,serif" font-size="14.00" text-anchor="middle" x="152.69" y="-156.95">OC::BLSA_General_Interview::pf01d</text></a></g>
<!-- E -->
<g class="node" id="node5"><a xlink:href="https://mindset.umc.edu/blsa-explore-me/index.html?search=pKj63X9U4g18"><title>E</title><ellipse cx="475.69" cy="-90" fill="#ffc09f" rx="176.74" ry="18" stroke="black"/><text font-family="Times,serif" font-size="14.00" text-anchor="middle" x="475.69" y="-84.95">Derived::der_physicalfunction::walkonemile</text></a></g>
<!-- A&#45;&gt;E -->
<g class="edge" id="edge1">
<title>A-&gt;E</title>
<path d="M223.57,-145.64C273.26,-134.87 339.87,-120.43 392.14,-109.11" fill="none" stroke="black"/>
<polygon fill="black" points="392.7,-112.35 401.73,-106.81 391.22,-105.51 392.7,-112.35" stroke="black"/>
</g>
<!-- B -->
<g class="node" id="node2"><a xlink:href="https://mindset.umc.edu/blsa-explore-me/index.html?search=j2nM4051H4Mz"><title>B</title><ellipse cx="475.69" cy="-18" fill="#ffee93" rx="160.37" ry="18" stroke="black"/><text font-family="Times,serif" font-size="14.00" text-anchor="middle" x="475.69" y="-12.95">Derived::der_physicalfunction::wkindex</text></a></g>
<!-- C -->
<g class="node" id="node3"><a xlink:href="https://mindset.umc.edu/blsa-explore-me/index.html?search=Pgwmdv2UJL"><title>C</title><ellipse cx="475.69" cy="-162" fill="#a0ced9" rx="152.18" ry="18" stroke="black"/><text font-family="Times,serif" font-size="14.00" text-anchor="middle" x="475.69" y="-156.95">OC::BLSA_General_Interview::pf01c</text></a></g>
<!-- C&#45;&gt;E -->
<g class="edge" id="edge2">
<title>C-&gt;E</title>
<path d="M475.69,-143.7C475.69,-136.24 475.69,-127.32 475.69,-118.97" fill="none" stroke="black"/>
<polygon fill="black" points="479.19,-119.1 475.69,-109.1 472.19,-119.1 479.19,-119.1" stroke="black"/>
</g>
<!-- D -->
<g class="node" id="node4"><a xlink:href="https://mindset.umc.edu/blsa-explore-me/index.html?search=AdQciVWkLm"><title>D</title><ellipse cx="793.69" cy="-162" fill="#a0ced9" rx="148.08" ry="18" stroke="black"/><text font-family="Times,serif" font-size="14.00" text-anchor="middle" x="793.69" y="-156.95">OC::BLSA_General_Interview::pf01</text></a></g>
<!-- D&#45;&gt;E -->
<g class="edge" id="edge3">
<title>D-&gt;E</title>
<path d="M724.3,-145.72C675.4,-134.96 609.71,-120.5 558.14,-109.15" fill="none" stroke="black"/>
<polygon fill="black" points="559.21,-105.58 548.69,-106.85 557.71,-112.42 559.21,-105.58" stroke="black"/>
</g>
<!-- E&#45;&gt;B -->
<g class="edge" id="edge4">
<title>E-&gt;B</title>
<path d="M475.69,-71.7C475.69,-64.24 475.69,-55.32 475.69,-46.97" fill="none" stroke="black"/>
<polygon fill="black" points="479.19,-47.1 475.69,-37.1 472.19,-47.1 479.19,-47.1" stroke="black"/>
</g>
</g>
</svg>