<?xml version="1.0" encoding="utf-8"?>
<!DOCTYPE svg PUBLIC "-//W3C//DTD SVG 1.1//EN" "http://www.w3.org/Graphics/SVG/1.1/DTD/svg11.dtd">
<!-- Generated by graphviz version 8.1.0 (20230707.0739)
 --><!-- Pages: 1 --><svg height="260pt" viewBox="0.00 0.00 634.36 260.00" width="634pt" xmlns="http://www.w3.org/2000/svg" xmlns:xlink="http://www.w3.org/1999/xlink">
<g class="graph" id="graph0" transform="scale(1 1) rotate(0) translate(4 256)">
<polygon fill="white" points="-4,4 -4,-256 630.36,-256 630.36,4 -4,4" stroke="none"/>
<!-- A -->
<g class="node" id="node1"><a xlink:href="https://mindset.umc.edu/blsa-explore-me/index.html?search=P1gFCB9aeI"><title>A</title><ellipse cx="313.18" cy="-234" fill="#a0ced9" rx="161.39" ry="18" stroke="black"/><text font-family="Times,serif" font-size="14.00" text-anchor="middle" x="313.18" y="-228.95">OC::BLSA_General_Interview::demo10</text></a></g>
<!-- B -->
<g class="node" id="node2"><a xlink:href="https://mindset.umc.edu/blsa-explore-me/index.html?search=ffH5mz993pAa"><title>B</title><ellipse cx="313.18" cy="-162" fill="#a0ced9" rx="163.95" ry="18" stroke="black"/><text font-family="Times,serif" font-size="14.00" text-anchor="middle" x="313.18" y="-156.95">Derived::der_demographics::edyrsdegree</text></a></g>
<!-- A&#45;&gt;B -->
<g class="edge" id="edge1">
<title>A-&gt;B</title>
<path d="M313.18,-215.7C313.18,-208.24 313.18,-199.32 313.18,-190.97" fill="none" stroke="black"/>
<polygon fill="black" points="316.68,-191.1 313.18,-181.1 309.68,-191.1 316.68,-191.1" stroke="black"/>
</g>
<!-- E -->
<g class="node" id="node5"><a xlink:href="https://mindset.umc.edu/blsa-explore-me/index.html?search=Xw74aUOacwK6"><title>E</title><ellipse cx="313.18" cy="-90" fill="#ffc09f" rx="155.25" ry="18" stroke="black"/><text font-family="Times,serif" font-size="14.00" text-anchor="middle" x="313.18" y="-84.95">Derived::der_demographics::education</text></a></g>
<!-- B&#45;&gt;E -->
<g class="edge" id="edge2">
<title>B-&gt;E</title>
<path d="M313.18,-143.7C313.18,-136.24 313.18,-127.32 313.18,-118.97" fill="none" stroke="black"/>
<polygon fill="black" points="316.68,-119.1 313.18,-109.1 309.68,-119.1 316.68,-119.1" stroke="black"/>
</g>
<!-- C -->
<g class="node" id="node3"><a xlink:href="https://mindset.umc.edu/blsa-explore-me/index.html?search=A55uwt7pkIIt"><title>C</title><ellipse cx="152.18" cy="-18" fill="#ffee93" rx="152.18" ry="18" stroke="black"/><text font-family="Times,serif" font-size="14.00" text-anchor="middle" x="152.18" y="-12.95">Derived::der_demographics::educ3cat</text></a></g>
<!-- D -->
<g class="node" id="node4"><a xlink:href="https://mindset.umc.edu/blsa-explore-me/index.html?search=TnmnAB9MN0TU"><title>D</title><ellipse cx="474.18" cy="-18" fill="#ffee93" rx="152.18" ry="18" stroke="black"/><text font-family="Times,serif" font-size="14.00" text-anchor="middle" x="474.18" y="-12.95">Derived::der_demographics::educ5cat</text></a></g>
<!-- E&#45;&gt;C -->
<g class="edge" id="edge3">
<title>E-&gt;C</title>
<path d="M274.61,-72.23C252.47,-62.61 224.46,-50.43 200.82,-40.15" fill="none" stroke="black"/>
<polygon fill="black" points="202.55,-36.65 191.98,-35.87 199.76,-43.07 202.55,-36.65" stroke="black"/>
</g>
<!-- E&#45;&gt;D -->
<g class="edge" id="edge4">
<title>E-&gt;D</title>
<path d="M351.74,-72.23C373.88,-62.61 401.89,-50.43 425.54,-40.15" fill="none" stroke="black"/>
<polygon fill="black" points="426.6,-43.07 434.37,-35.87 423.8,-36.65 426.6,-43.07" stroke="black"/>
</g>
</g>
</svg>