<?xml version="1.0" encoding="utf-8"?>
<!DOCTYPE svg PUBLIC "-//W3C//DTD SVG 1.1//EN" "http://www.w3.org/Graphics/SVG/1.1/DTD/svg11.dtd">
<!-- Generated by graphviz version 8.1.0 (20230707.0739)
 --><!-- Pages: 1 --><svg height="260pt" viewBox="0.00 0.00 568.09 260.00" width="568pt" xmlns="http://www.w3.org/2000/svg" xmlns:xlink="http://www.w3.org/1999/xlink">
<g class="graph" id="graph0" transform="scale(1 1) rotate(0) translate(4 256)">
<polygon fill="white" points="-4,4 -4,-256 564.09,-256 564.09,4 -4,4" stroke="none"/>
<!-- A -->
<g class="node" id="node1"><a xlink:href="https://mindset.umc.edu/blsa-explore-me/index.html?search=Z5P5OrDtQtXp"><title>A</title><ellipse cx="139.89" cy="-90" fill="#a0ced9" rx="139.89" ry="18" stroke="black"/><text font-family="Times,serif" font-size="14.00" text-anchor="middle" x="139.89" y="-84.95">Derived::der_cohort::laststatusdate</text></a></g>
<!-- D -->
<g class="node" id="node4"><a xlink:href="https://mindset.umc.edu/blsa-explore-me/index.html?search=xk7h9og10f6B"><title>D</title><ellipse cx="283.89" cy="-18" fill="#ffc09f" rx="145.01" ry="18" stroke="black"/><text font-family="Times,serif" font-size="14.00" text-anchor="middle" x="283.89" y="-12.95">Derived::der_cohort::v1tostatusdays</text></a></g>
<!-- A&#45;&gt;D -->
<g class="edge" id="edge1">
<title>A-&gt;D</title>
<path d="M174.39,-72.23C193.92,-62.74 218.57,-50.75 239.54,-40.56" fill="none" stroke="black"/>
<polygon fill="black" points="240.72,-43.39 248.18,-35.87 237.66,-37.1 240.72,-43.39" stroke="black"/>
</g>
<!-- B -->
<g class="node" id="node2"><a xlink:href="https://mindset.umc.edu/blsa-explore-me/index.html?search=yc3wBExI755f"><title>B</title><ellipse cx="393.89" cy="-162" fill="#a0ced9" rx="121.98" ry="18" stroke="black"/><text font-family="Times,serif" font-size="14.00" text-anchor="middle" x="393.89" y="-156.95">Derived::der_cohort::visitdate</text></a></g>
<!-- C -->
<g class="node" id="node3"><a xlink:href="https://mindset.umc.edu/blsa-explore-me/index.html?search=W1v2d8sbiR"><title>C</title><ellipse cx="428.89" cy="-90" fill="#a0ced9" rx="131.19" ry="18" stroke="black"/><text font-family="Times,serif" font-size="14.00" text-anchor="middle" x="428.89" y="-84.95">Derived::der_cohort::v1visitdate</text></a></g>
<!-- B&#45;&gt;C -->
<g class="edge" id="edge2">
<title>B-&gt;C</title>
<path d="M402.55,-143.7C406.45,-135.9 411.14,-126.51 415.48,-117.83" fill="none" stroke="black"/>
<polygon fill="black" points="419,-119.61 420.34,-109.1 412.74,-116.48 419,-119.61" stroke="black"/>
</g>
<!-- C&#45;&gt;D -->
<g class="edge" id="edge3">
<title>C-&gt;D</title>
<path d="M394.16,-72.23C374.49,-62.74 349.67,-50.75 328.56,-40.56" fill="none" stroke="black"/>
<polygon fill="black" points="330.37,-37.07 319.84,-35.87 327.33,-43.37 330.37,-37.07" stroke="black"/>
</g>
<!-- E -->
<g class="node" id="node5"><a xlink:href="https://mindset.umc.edu/blsa-explore-me/index.html?search=AalmVrpsJs"><title>E</title><ellipse cx="283.89" cy="-234" fill="#a0ced9" rx="101.51" ry="18" stroke="black"/><text font-family="Times,serif" font-size="14.00" text-anchor="middle" x="283.89" y="-228.95">Cohort::cohort::visitdate</text></a></g>
<!-- E&#45;&gt;A -->
<g class="edge" id="edge5">
<title>E-&gt;A</title>
<path d="M266.52,-215.87C241.23,-190.92 194.1,-144.45 165.02,-115.77" fill="none" stroke="black"/>
<polygon fill="black" points="167.9,-113.72 158.33,-109.19 162.99,-118.7 167.9,-113.72" stroke="black"/>
</g>
<!-- E&#45;&gt;B -->
<g class="edge" id="edge4">
<title>E-&gt;B</title>
<path d="M310.24,-216.23C324.69,-207.04 342.81,-195.51 358.48,-185.54" fill="none" stroke="black"/>
<polygon fill="black" points="359.82,-188.19 366.38,-179.87 356.06,-182.29 359.82,-188.19" stroke="black"/>
</g>
</g>
</svg>