<?xml version="1.0" encoding="utf-8"?>
<!DOCTYPE svg PUBLIC "-//W3C//DTD SVG 1.1//EN" "http://www.w3.org/Graphics/SVG/1.1/DTD/svg11.dtd">
<!-- Generated by graphviz version 8.1.0 (20230707.0739)
 --><!-- Pages: 1 --><svg height="188pt" viewBox="0.00 0.00 298.02 188.00" width="298pt" xmlns="http://www.w3.org/2000/svg" xmlns:xlink="http://www.w3.org/1999/xlink">
<g class="graph" id="graph0" transform="scale(1 1) rotate(0) translate(4 184)">
<polygon fill="white" points="-4,4 -4,-184 294.02,-184 294.02,4 -4,4" stroke="none"/>
<!-- A -->
<g class="node" id="node1"><a xlink:href="https://mindset.umc.edu/blsa-explore-me/index.html?search=Z5P5OrDtQtXp"><title>A</title><ellipse cx="145.01" cy="-90" fill="#ffc09f" rx="139.89" ry="18" stroke="black"/><text font-family="Times,serif" font-size="14.00" text-anchor="middle" x="145.01" y="-84.95">Derived::der_cohort::laststatusdate</text></a></g>
<!-- B -->
<g class="node" id="node2"><a xlink:href="https://mindset.umc.edu/blsa-explore-me/index.html?search=xk7h9og10f6B"><title>B</title><ellipse cx="145.01" cy="-18" fill="#ffee93" rx="145.01" ry="18" stroke="black"/><text font-family="Times,serif" font-size="14.00" text-anchor="middle" x="145.01" y="-12.95">Derived::der_cohort::v1tostatusdays</text></a></g>
<!-- A&#45;&gt;B -->
<g class="edge" id="edge1">
<title>A-&gt;B</title>
<path d="M145.01,-71.7C145.01,-64.24 145.01,-55.32 145.01,-46.97" fill="none" stroke="black"/>
<polygon fill="black" points="148.51,-47.1 145.01,-37.1 141.51,-47.1 148.51,-47.1" stroke="black"/>
</g>
<!-- C -->
<g class="node" id="node3"><a xlink:href="https://mindset.umc.edu/blsa-explore-me/index.html?search=AalmVrpsJs"><title>C</title><ellipse cx="145.01" cy="-162" fill="#a0ced9" rx="101.51" ry="18" stroke="black"/><text font-family="Times,serif" font-size="14.00" text-anchor="middle" x="145.01" y="-156.95">Cohort::cohort::visitdate</text></a></g>
<!-- C&#45;&gt;A -->
<g class="edge" id="edge2">
<title>C-&gt;A</title>
<path d="M145.01,-143.7C145.01,-136.24 145.01,-127.32 145.01,-118.97" fill="none" stroke="black"/>
<polygon fill="black" points="148.51,-119.1 145.01,-109.1 141.51,-119.1 148.51,-119.1" stroke="black"/>
</g>
</g>
</svg>