<?xml version="1.0" encoding="utf-8"?>
<!DOCTYPE svg PUBLIC "-//W3C//DTD SVG 1.1//EN" "http://www.w3.org/Graphics/SVG/1.1/DTD/svg11.dtd">
<!-- Generated by graphviz version 8.1.0 (20230707.0739)
 --><!-- Pages: 1 --><svg height="188pt" viewBox="0.00 0.00 2686.43 188.00" width="2686pt" xmlns="http://www.w3.org/2000/svg" xmlns:xlink="http://www.w3.org/1999/xlink">
<g class="graph" id="graph0" transform="scale(1 1) rotate(0) translate(4 184)">
<polygon fill="white" points="-4,4 -4,-184 2682.43,-184 2682.43,4 -4,4" stroke="none"/>
<!-- A -->
<g class="node" id="node1"><a xlink:href="https://mindset.umc.edu/blsa-explore-me/index.html?search=MmKu1k5ANul5"><title>A</title><ellipse cx="1328.96" cy="-90" fill="#ffc09f" rx="179.82" ry="18" stroke="black"/><text font-family="Times,serif" font-size="14.00" text-anchor="middle" x="1328.96" y="-84.95">Derived::der_physicalperformance::gaitspeed</text></a></g>
<!-- B -->
<g class="node" id="node2"><a xlink:href="https://mindset.umc.edu/blsa-explore-me/index.html?search=VNwA5RBG7A"><title>B</title><ellipse cx="1144.96" cy="-18" fill="#ffee93" rx="174.7" ry="18" stroke="black"/><text font-family="Times,serif" font-size="14.00" text-anchor="middle" x="1144.96" y="-12.95">Derived::der_physicalperformance::gs_ratio</text></a></g>
<!-- A&#45;&gt;B -->
<g class="edge" id="edge1">
<title>A-&gt;B</title>
<path d="M1284.88,-72.23C1259.24,-62.48 1226.71,-50.1 1199.46,-39.74" fill="none" stroke="black"/>
<polygon fill="black" points="1200.9,-36.16 1190.31,-35.87 1198.41,-42.7 1200.9,-36.16" stroke="black"/>
</g>
<!-- I -->
<g class="node" id="node9"><a xlink:href="https://mindset.umc.edu/blsa-explore-me/index.html?search=Ci8blcwzKkth"><title>I</title><ellipse cx="1512.96" cy="-18" fill="#ffee93" rx="175.21" ry="18" stroke="black"/><text font-family="Times,serif" font-size="14.00" text-anchor="middle" x="1512.96" y="-12.95">Derived::der_physicalperformance::sppb_gs</text></a></g>
<!-- A&#45;&gt;I -->
<g class="edge" id="edge2">
<title>A-&gt;I</title>
<path d="M1373.03,-72.23C1398.67,-62.48 1431.21,-50.1 1458.45,-39.74" fill="none" stroke="black"/>
<polygon fill="black" points="1459.5,-42.7 1467.61,-35.87 1457.02,-36.16 1459.5,-42.7" stroke="black"/>
</g>
<!-- C -->
<g class="node" id="node3"><a xlink:href="https://mindset.umc.edu/blsa-explore-me/index.html?search=SltMCs4PiV"><title>C</title><ellipse cx="185.96" cy="-162" fill="#a0ced9" rx="185.96" ry="18" stroke="black"/><text font-family="Times,serif" font-size="14.00" text-anchor="middle" x="185.96" y="-156.95">OC::BLSA_LE_Physical_Performance::lep7a2</text></a></g>
<!-- C&#45;&gt;A -->
<g class="edge" id="edge3">
<title>C-&gt;A</title>
<path d="M317.82,-148.94C338.92,-147.18 360.53,-145.46 380.96,-144 652.33,-124.59 967.82,-108.18 1157.76,-98.97" fill="none" stroke="black"/>
<polygon fill="black" points="1157.85,-102.42 1167.67,-98.44 1157.52,-95.43 1157.85,-102.42" stroke="black"/>
</g>
<!-- D -->
<g class="node" id="node4"><a xlink:href="https://mindset.umc.edu/blsa-explore-me/index.html?search=quzedhb9jO"><title>D</title><ellipse cx="566.96" cy="-162" fill="#a0ced9" rx="177.26" ry="18" stroke="black"/><text font-family="Times,serif" font-size="14.00" text-anchor="middle" x="566.96" y="-156.95">OC::BLSA_LE_Physical_Performance::lep7</text></a></g>
<!-- D&#45;&gt;A -->
<g class="edge" id="edge4">
<title>D-&gt;A</title>
<path d="M694.93,-149.24C831.68,-136.68 1047.81,-116.83 1189,-103.86" fill="none" stroke="black"/>
<polygon fill="black" points="1189.24,-107.26 1198.88,-102.86 1188.6,-100.29 1189.24,-107.26" stroke="black"/>
</g>
<!-- E -->
<g class="node" id="node5"><a xlink:href="https://mindset.umc.edu/blsa-explore-me/index.html?search=j2Y5fhTvzz"><title>E</title><ellipse cx="943.96" cy="-162" fill="#a0ced9" rx="181.35" ry="18" stroke="black"/><text font-family="Times,serif" font-size="14.00" text-anchor="middle" x="943.96" y="-156.95">OC::BLSA_LE_Physical_Performance::lep7a</text></a></g>
<!-- E&#45;&gt;A -->
<g class="edge" id="edge5">
<title>E-&gt;A</title>
<path d="M1028.45,-145.64C1089.13,-134.61 1170.98,-119.72 1233.94,-108.28" fill="none" stroke="black"/>
<polygon fill="black" points="1234.45,-111.56 1243.66,-106.33 1233.2,-104.67 1234.45,-111.56" stroke="black"/>
</g>
<!-- F -->
<g class="node" id="node6"><a xlink:href="https://mindset.umc.edu/blsa-explore-me/index.html?search=JjrRmDUALK"><title>F</title><ellipse cx="1328.96" cy="-162" fill="#a0ced9" rx="185.96" ry="18" stroke="black"/><text font-family="Times,serif" font-size="14.00" text-anchor="middle" x="1328.96" y="-156.95">OC::BLSA_LE_Physical_Performance::lep7a1</text></a></g>
<!-- F&#45;&gt;A -->
<g class="edge" id="edge6">
<title>F-&gt;A</title>
<path d="M1328.96,-143.7C1328.96,-136.24 1328.96,-127.32 1328.96,-118.97" fill="none" stroke="black"/>
<polygon fill="black" points="1332.46,-119.1 1328.96,-109.1 1325.46,-119.1 1332.46,-119.1" stroke="black"/>
</g>
<!-- G -->
<g class="node" id="node7"><a xlink:href="https://mindset.umc.edu/blsa-explore-me/index.html?search=aVPqExXWPJ"><title>G</title><ellipse cx="1714.96" cy="-162" fill="#a0ced9" rx="181.86" ry="18" stroke="black"/><text font-family="Times,serif" font-size="14.00" text-anchor="middle" x="1714.96" y="-156.95">OC::BLSA_LE_Physical_Performance::lep7b</text></a></g>
<!-- G&#45;&gt;A -->
<g class="edge" id="edge7">
<title>G-&gt;A</title>
<path d="M1630.25,-145.64C1569.41,-134.61 1487.34,-119.72 1424.23,-108.28" fill="none" stroke="black"/>
<polygon fill="black" points="1424.93,-104.67 1414.47,-106.33 1423.68,-111.55 1424.93,-104.67" stroke="black"/>
</g>
<!-- H -->
<g class="node" id="node8"><a xlink:href="https://mindset.umc.edu/blsa-explore-me/index.html?search=N6Uue0e6L9"><title>H</title><ellipse cx="2100.96" cy="-162" fill="#a0ced9" rx="186.47" ry="18" stroke="black"/><text font-family="Times,serif" font-size="14.00" text-anchor="middle" x="2100.96" y="-156.95">OC::BLSA_LE_Physical_Performance::lep7b1</text></a></g>
<!-- H&#45;&gt;A -->
<g class="edge" id="edge8">
<title>H-&gt;A</title>
<path d="M1968.68,-149.01C1829.68,-136.4 1611.88,-116.65 1469.76,-103.77" fill="none" stroke="black"/>
<polygon fill="black" points="1470.08,-100.19 1459.81,-102.77 1469.45,-107.16 1470.08,-100.19" stroke="black"/>
</g>
<!-- J -->
<g class="node" id="node10"><a xlink:href="https://mindset.umc.edu/blsa-explore-me/index.html?search=yNvGIT5zFQ"><title>J</title><ellipse cx="2491.96" cy="-162" fill="#a0ced9" rx="186.47" ry="18" stroke="black"/><text font-family="Times,serif" font-size="14.00" text-anchor="middle" x="2491.96" y="-156.95">OC::BLSA_LE_Physical_Performance::lep7b2</text></a></g>
<!-- J&#45;&gt;A -->
<g class="edge" id="edge9">
<title>J-&gt;A</title>
<path d="M2359.69,-148.95C2338.39,-147.18 2316.57,-145.46 2295.96,-144 2017.78,-124.32 1694.14,-107.89 1500.72,-98.76" fill="none" stroke="black"/>
<polygon fill="black" points="1501.04,-95.23 1490.89,-98.25 1500.71,-102.22 1501.04,-95.23" stroke="black"/>
</g>
</g>
</svg>