<?xml version="1.0" encoding="utf-8"?>
<!DOCTYPE svg PUBLIC "-//W3C//DTD SVG 1.1//EN" "http://www.w3.org/Graphics/SVG/1.1/DTD/svg11.dtd">
<!-- Generated by graphviz version 8.1.0 (20230707.0739)
 --><!-- Pages: 1 --><svg height="116pt" viewBox="0.00 0.00 626.26 116.00" width="626pt" xmlns="http://www.w3.org/2000/svg" xmlns:xlink="http://www.w3.org/1999/xlink">
<g class="graph" id="graph0" transform="scale(1 1) rotate(0) translate(4 112)">
<polygon fill="white" points="-4,4 -4,-112 622.26,-112 622.26,4 -4,4" stroke="none"/>
<!-- A -->
<g class="node" id="node1"><a xlink:href="https://mindset.umc.edu/blsa-explore-me/index.html?search=TEYSNNGa3W"><title>A</title><ellipse cx="152.18" cy="-90" fill="#a0ced9" rx="152.18" ry="18" stroke="black"/><text font-family="Times,serif" font-size="14.00" text-anchor="middle" x="152.18" y="-84.95">OC::BLSA_General_Interview::pf14a</text></a></g>
<!-- C -->
<g class="node" id="node3"><a xlink:href="https://mindset.umc.edu/blsa-explore-me/index.html?search=JxYgvxg64C8B"><title>C</title><ellipse cx="311.18" cy="-18" fill="#ffc09f" rx="191.08" ry="18" stroke="black"/><text font-family="Times,serif" font-size="14.00" text-anchor="middle" x="311.18" y="-12.95">Derived::der_physicalfunction::IADL_lightwork</text></a></g>
<!-- A&#45;&gt;C -->
<g class="edge" id="edge1">
<title>A-&gt;C</title>
<path d="M190.26,-72.23C211.95,-62.69 239.34,-50.63 262.57,-40.4" fill="none" stroke="black"/>
<polygon fill="black" points="263.83,-43.23 271.58,-35.99 261.01,-36.82 263.83,-43.23" stroke="black"/>
</g>
<!-- B -->
<g class="node" id="node2"><a xlink:href="https://mindset.umc.edu/blsa-explore-me/index.html?search=PMxOV0qIXl"><title>B</title><ellipse cx="470.18" cy="-90" fill="#a0ced9" rx="148.08" ry="18" stroke="black"/><text font-family="Times,serif" font-size="14.00" text-anchor="middle" x="470.18" y="-84.95">OC::BLSA_General_Interview::pf14</text></a></g>
<!-- B&#45;&gt;C -->
<g class="edge" id="edge2">
<title>B-&gt;C</title>
<path d="M432.09,-72.23C410.41,-62.69 383.01,-50.63 359.78,-40.4" fill="none" stroke="black"/>
<polygon fill="black" points="361.34,-36.82 350.78,-35.99 358.52,-43.23 361.34,-36.82" stroke="black"/>
</g>
</g>
</svg>