<?xml version="1.0" encoding="utf-8"?>
<!DOCTYPE svg PUBLIC "-//W3C//DTD SVG 1.1//EN" "http://www.w3.org/Graphics/SVG/1.1/DTD/svg11.dtd">
<!-- Generated by graphviz version 8.1.0 (20230707.0739)
 --><!-- Pages: 1 --><svg height="188pt" viewBox="0.00 0.00 1595.36 188.00" width="1595pt" xmlns="http://www.w3.org/2000/svg" xmlns:xlink="http://www.w3.org/1999/xlink">
<g class="graph" id="graph0" transform="scale(1 1) rotate(0) translate(4 184)">
<polygon fill="white" points="-4,4 -4,-184 1591.36,-184 1591.36,4 -4,4" stroke="none"/>
<!-- A -->
<g class="node" id="node1"><a xlink:href="https://mindset.umc.edu/blsa-explore-me/index.html?search=GT3nS9q0vC"><title>A</title><ellipse cx="152.18" cy="-162" fill="#a0ced9" rx="152.18" ry="18" stroke="black"/><text font-family="Times,serif" font-size="14.00" text-anchor="middle" x="152.18" y="-156.95">OC::BLSA_General_Interview::pf03c</text></a></g>
<!-- B -->
<g class="node" id="node2"><a xlink:href="https://mindset.umc.edu/blsa-explore-me/index.html?search=CTYVd3Wjrs3Y"><title>B</title><ellipse cx="615.18" cy="-90" fill="#a0ced9" rx="167.53" ry="18" stroke="black"/><text font-family="Times,serif" font-size="14.00" text-anchor="middle" x="615.18" y="-84.95">Derived::der_physicalfunction::liftcarry20</text></a></g>
<!-- A&#45;&gt;B -->
<g class="edge" id="edge1">
<title>A-&gt;B</title>
<path d="M243.38,-147.21C320.15,-135.6 429.97,-119 510.36,-106.85" fill="none" stroke="black"/>
<polygon fill="black" points="510.64,-110.19 520,-105.24 509.59,-103.27 510.64,-110.19" stroke="black"/>
</g>
<!-- C -->
<g class="node" id="node3"><a xlink:href="https://mindset.umc.edu/blsa-explore-me/index.html?search=dbBgl2HS43K5"><title>C</title><ellipse cx="791.18" cy="-18" fill="#ffc09f" rx="155.76" ry="18" stroke="black"/><text font-family="Times,serif" font-size="14.00" text-anchor="middle" x="791.18" y="-12.95">Derived::der_physicalfunction::lcindex</text></a></g>
<!-- B&#45;&gt;C -->
<g class="edge" id="edge2">
<title>B-&gt;C</title>
<path d="M657.33,-72.23C681.84,-62.49 712.94,-50.12 738.98,-39.76" fill="none" stroke="black"/>
<polygon fill="black" points="740.06,-42.7 748.06,-35.75 737.48,-36.19 740.06,-42.7" stroke="black"/>
</g>
<!-- D -->
<g class="node" id="node4"><a xlink:href="https://mindset.umc.edu/blsa-explore-me/index.html?search=HsGWqCbYBF"><title>D</title><ellipse cx="1112.18" cy="-162" fill="#a0ced9" rx="152.69" ry="18" stroke="black"/><text font-family="Times,serif" font-size="14.00" text-anchor="middle" x="1112.18" y="-156.95">OC::BLSA_General_Interview::pf03b</text></a></g>
<!-- G -->
<g class="node" id="node7"><a xlink:href="https://mindset.umc.edu/blsa-explore-me/index.html?search=Byh541oGlzy8"><title>G</title><ellipse cx="1112.18" cy="-90" fill="#a0ced9" rx="167.53" ry="18" stroke="black"/><text font-family="Times,serif" font-size="14.00" text-anchor="middle" x="1112.18" y="-84.95">Derived::der_physicalfunction::liftcarry10</text></a></g>
<!-- D&#45;&gt;G -->
<g class="edge" id="edge3">
<title>D-&gt;G</title>
<path d="M1112.18,-143.7C1112.18,-136.24 1112.18,-127.32 1112.18,-118.97" fill="none" stroke="black"/>
<polygon fill="black" points="1115.68,-119.1 1112.18,-109.1 1108.68,-119.1 1115.68,-119.1" stroke="black"/>
</g>
<!-- E -->
<g class="node" id="node5"><a xlink:href="https://mindset.umc.edu/blsa-explore-me/index.html?search=mjWZF9uvGc"><title>E</title><ellipse cx="1435.18" cy="-162" fill="#a0ced9" rx="152.18" ry="18" stroke="black"/><text font-family="Times,serif" font-size="14.00" text-anchor="middle" x="1435.18" y="-156.95">OC::BLSA_General_Interview::pf03a</text></a></g>
<!-- E&#45;&gt;G -->
<g class="edge" id="edge4">
<title>E-&gt;G</title>
<path d="M1364.29,-145.64C1314.43,-134.83 1247.53,-120.33 1195.18,-108.99" fill="none" stroke="black"/>
<polygon fill="black" points="1196.09,-105.39 1185.57,-106.69 1194.6,-112.23 1196.09,-105.39" stroke="black"/>
</g>
<!-- F -->
<g class="node" id="node6"><a xlink:href="https://mindset.umc.edu/blsa-explore-me/index.html?search=JIGat8XJYr"><title>F</title><ellipse cx="470.18" cy="-162" fill="#a0ced9" rx="148.08" ry="18" stroke="black"/><text font-family="Times,serif" font-size="14.00" text-anchor="middle" x="470.18" y="-156.95">OC::BLSA_General_Interview::pf03</text></a></g>
<!-- F&#45;&gt;B -->
<g class="edge" id="edge5">
<title>F-&gt;B</title>
<path d="M505.28,-144.05C524.81,-134.62 549.34,-122.78 570.26,-112.68" fill="none" stroke="black"/>
<polygon fill="black" points="571.41,-115.53 578.9,-108.03 568.37,-109.23 571.41,-115.53" stroke="black"/>
</g>
<!-- G&#45;&gt;C -->
<g class="edge" id="edge6">
<title>G-&gt;C</title>
<path d="M1040.14,-73.29C990.42,-62.45 924.23,-48.02 872.6,-36.76" fill="none" stroke="black"/>
<polygon fill="black" points="873.66,-33.19 863.15,-34.48 872.17,-40.03 873.66,-33.19" stroke="black"/>
</g>
<!-- H -->
<g class="node" id="node8"><a xlink:href="https://mindset.umc.edu/blsa-explore-me/index.html?search=CBzhrVTIjz"><title>H</title><ellipse cx="789.18" cy="-162" fill="#a0ced9" rx="152.69" ry="18" stroke="black"/><text font-family="Times,serif" font-size="14.00" text-anchor="middle" x="789.18" y="-156.95">OC::BLSA_General_Interview::pf03d</text></a></g>
<!-- H&#45;&gt;B -->
<g class="edge" id="edge7">
<title>H-&gt;B</title>
<path d="M747.5,-144.23C723.36,-134.52 692.76,-122.21 667.06,-111.87" fill="none" stroke="black"/>
<polygon fill="black" points="668.7,-108.36 658.12,-107.87 666.09,-114.85 668.7,-108.36" stroke="black"/>
</g>
</g>
</svg>