<?xml version="1.0" encoding="utf-8"?>
<!DOCTYPE svg PUBLIC "-//W3C//DTD SVG 1.1//EN" "http://www.w3.org/Graphics/SVG/1.1/DTD/svg11.dtd">
<!-- Generated by graphviz version 8.1.0 (20230707.0739)
 --><!-- Pages: 1 --><svg height="188pt" viewBox="0.00 0.00 2685.72 188.00" width="2686pt" xmlns="http://www.w3.org/2000/svg" xmlns:xlink="http://www.w3.org/1999/xlink">
<g class="graph" id="graph0" transform="scale(1 1) rotate(0) translate(4 184)">
<polygon fill="white" points="-4,4 -4,-184 2681.72,-184 2681.72,4 -4,4" stroke="none"/>
<!-- A -->
<g class="node" id="node1"><a xlink:href="https://mindset.umc.edu/blsa-explore-me/index.html?search=MmKu1k5ANul5"><title>A</title><ellipse cx="1328.26" cy="-90" fill="#a0ced9" rx="179.82" ry="18" stroke="black"/><text font-family="Times,serif" font-size="14.00" text-anchor="middle" x="1328.26" y="-84.95">Derived::der_physicalperformance::gaitspeed</text></a></g>
<!-- H -->
<g class="node" id="node8"><a xlink:href="https://mindset.umc.edu/blsa-explore-me/index.html?search=Ci8blcwzKkth"><title>H</title><ellipse cx="1328.26" cy="-18" fill="#ffc09f" rx="175.21" ry="18" stroke="black"/><text font-family="Times,serif" font-size="14.00" text-anchor="middle" x="1328.26" y="-12.95">Derived::der_physicalperformance::sppb_gs</text></a></g>
<!-- A&#45;&gt;H -->
<g class="edge" id="edge1">
<title>A-&gt;H</title>
<path d="M1328.26,-71.7C1328.26,-64.24 1328.26,-55.32 1328.26,-46.97" fill="none" stroke="black"/>
<polygon fill="black" points="1331.76,-47.1 1328.26,-37.1 1324.76,-47.1 1331.76,-47.1" stroke="black"/>
</g>
<!-- B -->
<g class="node" id="node2"><a xlink:href="https://mindset.umc.edu/blsa-explore-me/index.html?search=quzedhb9jO"><title>B</title><ellipse cx="177.26" cy="-162" fill="#a0ced9" rx="177.26" ry="18" stroke="black"/><text font-family="Times,serif" font-size="14.00" text-anchor="middle" x="177.26" y="-156.95">OC::BLSA_LE_Physical_Performance::lep7</text></a></g>
<!-- B&#45;&gt;A -->
<g class="edge" id="edge2">
<title>B-&gt;A</title>
<path d="M302.77,-148.9C322.98,-147.14 343.69,-145.43 363.26,-144 640.2,-123.75 962.37,-107.53 1155.55,-98.59" fill="none" stroke="black"/>
<polygon fill="black" points="1155.53,-102.05 1165.36,-98.1 1155.21,-95.06 1155.53,-102.05" stroke="black"/>
</g>
<!-- C -->
<g class="node" id="node3"><a xlink:href="https://mindset.umc.edu/blsa-explore-me/index.html?search=SltMCs4PiV"><title>C</title><ellipse cx="558.26" cy="-162" fill="#a0ced9" rx="185.96" ry="18" stroke="black"/><text font-family="Times,serif" font-size="14.00" text-anchor="middle" x="558.26" y="-156.95">OC::BLSA_LE_Physical_Performance::lep7a2</text></a></g>
<!-- C&#45;&gt;A -->
<g class="edge" id="edge3">
<title>C-&gt;A</title>
<path d="M690.19,-149.01C828.72,-136.41 1045.74,-116.68 1187.5,-103.8" fill="none" stroke="black"/>
<polygon fill="black" points="1187.78,-107.19 1197.42,-102.8 1187.15,-100.22 1187.78,-107.19" stroke="black"/>
</g>
<!-- D -->
<g class="node" id="node4"><a xlink:href="https://mindset.umc.edu/blsa-explore-me/index.html?search=j2Y5fhTvzz"><title>D</title><ellipse cx="943.26" cy="-162" fill="#a0ced9" rx="181.35" ry="18" stroke="black"/><text font-family="Times,serif" font-size="14.00" text-anchor="middle" x="943.26" y="-156.95">OC::BLSA_LE_Physical_Performance::lep7a</text></a></g>
<!-- D&#45;&gt;A -->
<g class="edge" id="edge4">
<title>D-&gt;A</title>
<path d="M1027.75,-145.64C1088.43,-134.61 1170.28,-119.72 1233.23,-108.28" fill="none" stroke="black"/>
<polygon fill="black" points="1233.75,-111.56 1242.96,-106.33 1232.5,-104.67 1233.75,-111.56" stroke="black"/>
</g>
<!-- E -->
<g class="node" id="node5"><a xlink:href="https://mindset.umc.edu/blsa-explore-me/index.html?search=JjrRmDUALK"><title>E</title><ellipse cx="1328.26" cy="-162" fill="#a0ced9" rx="185.96" ry="18" stroke="black"/><text font-family="Times,serif" font-size="14.00" text-anchor="middle" x="1328.26" y="-156.95">OC::BLSA_LE_Physical_Performance::lep7a1</text></a></g>
<!-- E&#45;&gt;A -->
<g class="edge" id="edge5">
<title>E-&gt;A</title>
<path d="M1328.26,-143.7C1328.26,-136.24 1328.26,-127.32 1328.26,-118.97" fill="none" stroke="black"/>
<polygon fill="black" points="1331.76,-119.1 1328.26,-109.1 1324.76,-119.1 1331.76,-119.1" stroke="black"/>
</g>
<!-- F -->
<g class="node" id="node6"><a xlink:href="https://mindset.umc.edu/blsa-explore-me/index.html?search=aVPqExXWPJ"><title>F</title><ellipse cx="1714.26" cy="-162" fill="#a0ced9" rx="181.86" ry="18" stroke="black"/><text font-family="Times,serif" font-size="14.00" text-anchor="middle" x="1714.26" y="-156.95">OC::BLSA_LE_Physical_Performance::lep7b</text></a></g>
<!-- F&#45;&gt;A -->
<g class="edge" id="edge6">
<title>F-&gt;A</title>
<path d="M1629.55,-145.64C1568.71,-134.61 1486.64,-119.72 1423.52,-108.28" fill="none" stroke="black"/>
<polygon fill="black" points="1424.23,-104.67 1413.77,-106.33 1422.98,-111.55 1424.23,-104.67" stroke="black"/>
</g>
<!-- G -->
<g class="node" id="node7"><a xlink:href="https://mindset.umc.edu/blsa-explore-me/index.html?search=N6Uue0e6L9"><title>G</title><ellipse cx="2100.26" cy="-162" fill="#a0ced9" rx="186.47" ry="18" stroke="black"/><text font-family="Times,serif" font-size="14.00" text-anchor="middle" x="2100.26" y="-156.95">OC::BLSA_LE_Physical_Performance::lep7b1</text></a></g>
<!-- G&#45;&gt;A -->
<g class="edge" id="edge7">
<title>G-&gt;A</title>
<path d="M1967.98,-149.01C1828.98,-136.4 1611.18,-116.65 1469.06,-103.77" fill="none" stroke="black"/>
<polygon fill="black" points="1469.38,-100.19 1459.11,-102.77 1468.75,-107.16 1469.38,-100.19" stroke="black"/>
</g>
<!-- I -->
<g class="node" id="node9"><a xlink:href="https://mindset.umc.edu/blsa-explore-me/index.html?search=yNvGIT5zFQ"><title>I</title><ellipse cx="2491.26" cy="-162" fill="#a0ced9" rx="186.47" ry="18" stroke="black"/><text font-family="Times,serif" font-size="14.00" text-anchor="middle" x="2491.26" y="-156.95">OC::BLSA_LE_Physical_Performance::lep7b2</text></a></g>
<!-- I&#45;&gt;A -->
<g class="edge" id="edge8">
<title>I-&gt;A</title>
<path d="M2358.99,-148.95C2337.69,-147.18 2315.87,-145.46 2295.26,-144 2017.08,-124.32 1693.44,-107.89 1500.02,-98.76" fill="none" stroke="black"/>
<polygon fill="black" points="1500.34,-95.23 1490.19,-98.25 1500.01,-102.22 1500.34,-95.23" stroke="black"/>
</g>
</g>
</svg>