<?xml version="1.0" encoding="utf-8"?>
<!DOCTYPE svg PUBLIC "-//W3C//DTD SVG 1.1//EN" "http://www.w3.org/Graphics/SVG/1.1/DTD/svg11.dtd">
<!-- Generated by graphviz version 8.1.0 (20230707.0739)
 --><!-- Pages: 1 --><svg height="188pt" viewBox="0.00 0.00 1383.90 188.00" width="1384pt" xmlns="http://www.w3.org/2000/svg" xmlns:xlink="http://www.w3.org/1999/xlink">
<g class="graph" id="graph0" transform="scale(1 1) rotate(0) translate(4 184)">
<polygon fill="white" points="-4,4 -4,-184 1379.9,-184 1379.9,4 -4,4" stroke="none"/>
<!-- A -->
<g class="node" id="node1"><a xlink:href="https://mindset.umc.edu/blsa-explore-me/index.html?search=MzIIW1QTjp"><title>A</title><ellipse cx="166" cy="-162" fill="#a0ced9" rx="166" ry="18" stroke="black"/><text font-family="Times,serif" font-size="14.00" text-anchor="middle" x="166" y="-156.95">OC::BLSA_Body_Measurements::ant06c</text></a></g>
<!-- B -->
<g class="node" id="node2"><a xlink:href="https://mindset.umc.edu/blsa-explore-me/index.html?search=sEuwbBOvvFoZ"><title>B</title><ellipse cx="692" cy="-90" fill="#a0ced9" rx="145.01" ry="18" stroke="black"/><text font-family="Times,serif" font-size="14.00" text-anchor="middle" x="692" y="-84.95">Derived::der_anthropometry::height</text></a></g>
<!-- A&#45;&gt;B -->
<g class="edge" id="edge1">
<title>A-&gt;B</title>
<path d="M268.04,-147.42C359.14,-135.3 492.1,-117.6 584.75,-105.27" fill="none" stroke="black"/>
<polygon fill="black" points="585.11,-108.62 594.56,-103.83 584.19,-101.68 585.11,-108.62" stroke="black"/>
</g>
<!-- E -->
<g class="node" id="node5"><a xlink:href="https://mindset.umc.edu/blsa-explore-me/index.html?search=HDY2jNdIom"><title>E</title><ellipse cx="847" cy="-18" fill="#ffc09f" rx="134.26" ry="18" stroke="black"/><text font-family="Times,serif" font-size="14.00" text-anchor="middle" x="847" y="-12.95">Derived::der_anthropometry::bsa</text></a></g>
<!-- B&#45;&gt;E -->
<g class="edge" id="edge2">
<title>B-&gt;E</title>
<path d="M729.12,-72.23C750.42,-62.61 777.36,-50.45 800.11,-40.17" fill="none" stroke="black"/>
<polygon fill="black" points="801.23,-43.06 808.9,-35.75 798.35,-36.68 801.23,-43.06" stroke="black"/>
</g>
<!-- C -->
<g class="node" id="node3"><a xlink:href="https://mindset.umc.edu/blsa-explore-me/index.html?search=HfNC8dppeC"><title>C</title><ellipse cx="517" cy="-162" fill="#a0ced9" rx="166.51" ry="18" stroke="black"/><text font-family="Times,serif" font-size="14.00" text-anchor="middle" x="517" y="-156.95">OC::BLSA_Body_Measurements::ant06b</text></a></g>
<!-- C&#45;&gt;B -->
<g class="edge" id="edge3">
<title>C-&gt;B</title>
<path d="M558.91,-144.23C583.37,-134.45 614.43,-122.03 640.38,-111.65" fill="none" stroke="black"/>
<polygon fill="black" points="641.44,-114.59 649.42,-107.63 638.84,-108.09 641.44,-114.59" stroke="black"/>
</g>
<!-- D -->
<g class="node" id="node4"><a xlink:href="https://mindset.umc.edu/blsa-explore-me/index.html?search=KK4zICGQ19"><title>D</title><ellipse cx="1214" cy="-162" fill="#a0ced9" rx="161.9" ry="18" stroke="black"/><text font-family="Times,serif" font-size="14.00" text-anchor="middle" x="1214" y="-156.95">OC::BLSA_Body_Measurements::ant05</text></a></g>
<!-- F -->
<g class="node" id="node6"><a xlink:href="https://mindset.umc.edu/blsa-explore-me/index.html?search=iUH9juGP08y0"><title>F</title><ellipse cx="1108" cy="-90" fill="#a0ced9" rx="147.06" ry="18" stroke="black"/><text font-family="Times,serif" font-size="14.00" text-anchor="middle" x="1108" y="-84.95">Derived::der_anthropometry::weight</text></a></g>
<!-- D&#45;&gt;F -->
<g class="edge" id="edge4">
<title>D-&gt;F</title>
<path d="M1188.07,-143.88C1174.46,-134.89 1157.61,-123.76 1142.88,-114.03" fill="none" stroke="black"/>
<polygon fill="black" points="1145.3,-110.78 1135.03,-108.19 1141.44,-116.62 1145.3,-110.78" stroke="black"/>
</g>
<!-- F&#45;&gt;E -->
<g class="edge" id="edge5">
<title>F-&gt;E</title>
<path d="M1048.77,-73.12C1009.2,-62.5 957.02,-48.51 915.63,-37.41" fill="none" stroke="black"/>
<polygon fill="black" points="916.65,-33.79 906.09,-34.58 914.84,-40.55 916.65,-33.79" stroke="black"/>
</g>
<!-- G -->
<g class="node" id="node7"><a xlink:href="https://mindset.umc.edu/blsa-explore-me/index.html?search=ezFitGBaHq"><title>G</title><ellipse cx="868" cy="-162" fill="#a0ced9" rx="166" ry="18" stroke="black"/><text font-family="Times,serif" font-size="14.00" text-anchor="middle" x="868" y="-156.95">OC::BLSA_Body_Measurements::ant06a</text></a></g>
<!-- G&#45;&gt;B -->
<g class="edge" id="edge6">
<title>G-&gt;B</title>
<path d="M825.84,-144.23C801.24,-134.45 770.01,-122.03 743.91,-111.65" fill="none" stroke="black"/>
<polygon fill="black" points="745.39,-108.07 734.81,-107.63 742.81,-114.58 745.39,-108.07" stroke="black"/>
</g>
</g>
</svg>