<?xml version="1.0" encoding="utf-8"?>
<!DOCTYPE svg PUBLIC "-//W3C//DTD SVG 1.1//EN" "http://www.w3.org/Graphics/SVG/1.1/DTD/svg11.dtd">
<!-- Generated by graphviz version 8.1.0 (20230707.0739)
 --><!-- Pages: 1 --><svg height="116pt" viewBox="0.00 0.00 1797.37 116.00" width="1797pt" xmlns="http://www.w3.org/2000/svg" xmlns:xlink="http://www.w3.org/1999/xlink">
<g class="graph" id="graph0" transform="scale(1 1) rotate(0) translate(4 112)">
<polygon fill="white" points="-4,4 -4,-112 1793.37,-112 1793.37,4 -4,4" stroke="none"/>
<!-- A -->
<g class="node" id="node1"><a xlink:href="https://mindset.umc.edu/blsa-explore-me/index.html?search=yrsU3Jk0of"><title>A</title><ellipse cx="141.43" cy="-90" fill="#a0ced9" rx="141.43" ry="18" stroke="black"/><text font-family="Times,serif" font-size="14.00" text-anchor="middle" x="141.43" y="-84.95">OC::BLSA_Grip_Strength::grip3l1</text></a></g>
<!-- C -->
<g class="node" id="node3"><a xlink:href="https://mindset.umc.edu/blsa-explore-me/index.html?search=I1eiG6e3l112"><title>C</title><ellipse cx="894.43" cy="-18" fill="#ffc09f" rx="161.39" ry="18" stroke="black"/><text font-family="Times,serif" font-size="14.00" text-anchor="middle" x="894.43" y="-12.95">Derived::der_physicalfunction::handgrip</text></a></g>
<!-- A&#45;&gt;C -->
<g class="edge" id="edge1">
<title>A-&gt;C</title>
<path d="M243.06,-77.13C259.23,-75.34 275.78,-73.57 291.43,-72 450.4,-56.01 633.23,-40.32 755.51,-30.21" fill="none" stroke="black"/>
<polygon fill="black" points="755.74,-33.62 765.42,-29.31 755.16,-26.65 755.74,-33.62" stroke="black"/>
</g>
<!-- B -->
<g class="node" id="node2"><a xlink:href="https://mindset.umc.edu/blsa-explore-me/index.html?search=Sx4UG24knQ"><title>B</title><ellipse cx="442.43" cy="-90" fill="#a0ced9" rx="141.94" ry="18" stroke="black"/><text font-family="Times,serif" font-size="14.00" text-anchor="middle" x="442.43" y="-84.95">OC::BLSA_Grip_Strength::grip3r1</text></a></g>
<!-- B&#45;&gt;C -->
<g class="edge" id="edge2">
<title>B-&gt;C</title>
<path d="M529.85,-75.46C604.88,-63.84 713.1,-47.08 792.15,-34.84" fill="none" stroke="black"/>
<polygon fill="black" points="792.26,-38.21 801.61,-33.22 791.19,-31.29 792.26,-38.21" stroke="black"/>
</g>
<!-- D -->
<g class="node" id="node4"><a xlink:href="https://mindset.umc.edu/blsa-explore-me/index.html?search=H9OdY6NGzQ"><title>D</title><ellipse cx="744.43" cy="-90" fill="#a0ced9" rx="141.94" ry="18" stroke="black"/><text font-family="Times,serif" font-size="14.00" text-anchor="middle" x="744.43" y="-84.95">OC::BLSA_Grip_Strength::grip3r3</text></a></g>
<!-- D&#45;&gt;C -->
<g class="edge" id="edge3">
<title>D-&gt;C</title>
<path d="M780.36,-72.23C800.73,-62.73 826.43,-50.73 848.28,-40.54" fill="none" stroke="black"/>
<polygon fill="black" points="849.43,-43.39 857.01,-35.99 846.47,-37.05 849.43,-43.39" stroke="black"/>
</g>
<!-- E -->
<g class="node" id="node5"><a xlink:href="https://mindset.umc.edu/blsa-explore-me/index.html?search=SpVsbkCnep"><title>E</title><ellipse cx="1045.43" cy="-90" fill="#a0ced9" rx="141.43" ry="18" stroke="black"/><text font-family="Times,serif" font-size="14.00" text-anchor="middle" x="1045.43" y="-84.95">OC::BLSA_Grip_Strength::grip3l3</text></a></g>
<!-- E&#45;&gt;C -->
<g class="edge" id="edge4">
<title>E-&gt;C</title>
<path d="M1009.26,-72.23C988.76,-62.73 962.88,-50.73 940.89,-40.54" fill="none" stroke="black"/>
<polygon fill="black" points="942.63,-37.02 932.09,-35.99 939.69,-43.38 942.63,-37.02" stroke="black"/>
</g>
<!-- F -->
<g class="node" id="node6"><a xlink:href="https://mindset.umc.edu/blsa-explore-me/index.html?search=PS6SbWewK9"><title>F</title><ellipse cx="1346.43" cy="-90" fill="#a0ced9" rx="141.43" ry="18" stroke="black"/><text font-family="Times,serif" font-size="14.00" text-anchor="middle" x="1346.43" y="-84.95">OC::BLSA_Grip_Strength::grip3l2</text></a></g>
<!-- F&#45;&gt;C -->
<g class="edge" id="edge5">
<title>F-&gt;C</title>
<path d="M1259.01,-75.46C1183.98,-63.84 1075.75,-47.08 996.71,-34.84" fill="none" stroke="black"/>
<polygon fill="black" points="997.67,-31.29 987.25,-33.22 996.59,-38.21 997.67,-31.29" stroke="black"/>
</g>
<!-- G -->
<g class="node" id="node7"><a xlink:href="https://mindset.umc.edu/blsa-explore-me/index.html?search=iGXIJehjEx"><title>G</title><ellipse cx="1647.43" cy="-90" fill="#a0ced9" rx="141.94" ry="18" stroke="black"/><text font-family="Times,serif" font-size="14.00" text-anchor="middle" x="1647.43" y="-84.95">OC::BLSA_Grip_Strength::grip3r2</text></a></g>
<!-- G&#45;&gt;C -->
<g class="edge" id="edge6">
<title>G-&gt;C</title>
<path d="M1545.12,-77.14C1528.84,-75.35 1512.18,-73.58 1496.43,-72 1337.71,-56.08 1155.19,-40.38 1033.11,-30.25" fill="none" stroke="black"/>
<polygon fill="black" points="1033.48,-26.68 1023.23,-29.35 1032.9,-33.66 1033.48,-26.68" stroke="black"/>
</g>
</g>
</svg>