<?xml version="1.0" encoding="utf-8"?>
<!DOCTYPE svg PUBLIC "-//W3C//DTD SVG 1.1//EN" "http://www.w3.org/Graphics/SVG/1.1/DTD/svg11.dtd">
<!-- Generated by graphviz version 8.1.0 (20230707.0739)
 --><!-- Pages: 1 --><svg height="116pt" viewBox="0.00 0.00 1041.50 116.00" width="1042pt" xmlns="http://www.w3.org/2000/svg" xmlns:xlink="http://www.w3.org/1999/xlink">
<g class="graph" id="graph0" transform="scale(1 1) rotate(0) translate(4 112)">
<polygon fill="white" points="-4,4 -4,-112 1037.5,-112 1037.5,4 -4,4" stroke="none"/>
<!-- A -->
<g class="node" id="node1"><a xlink:href="https://mindset.umc.edu/blsa-explore-me/index.html?search=yTvPnMMr9a"><title>A</title><ellipse cx="166.51" cy="-90" fill="#a0ced9" rx="166.51" ry="18" stroke="black"/><text font-family="Times,serif" font-size="14.00" text-anchor="middle" x="166.51" y="-84.95">OC::BLSA_Body_Measurements::ant12b</text></a></g>
<!-- C -->
<g class="node" id="node3"><a xlink:href="https://mindset.umc.edu/blsa-explore-me/index.html?search=rHPGzl01Skg7"><title>C</title><ellipse cx="517.51" cy="-18" fill="#ffc09f" rx="172.14" ry="18" stroke="black"/><text font-family="Times,serif" font-size="14.00" text-anchor="middle" x="517.51" y="-12.95">Derived::der_anthropometry::bicepskinfold</text></a></g>
<!-- A&#45;&gt;C -->
<g class="edge" id="edge1">
<title>A-&gt;C</title>
<path d="M243.54,-73.64C298.35,-62.71 372.1,-48 429.28,-36.6" fill="none" stroke="black"/>
<polygon fill="black" points="429.63,-39.9 438.75,-34.51 428.26,-33.03 429.63,-39.9" stroke="black"/>
</g>
<!-- B -->
<g class="node" id="node2"><a xlink:href="https://mindset.umc.edu/blsa-explore-me/index.html?search=nB1xqor940"><title>B</title><ellipse cx="517.51" cy="-90" fill="#a0ced9" rx="166" ry="18" stroke="black"/><text font-family="Times,serif" font-size="14.00" text-anchor="middle" x="517.51" y="-84.95">OC::BLSA_Body_Measurements::ant12a</text></a></g>
<!-- B&#45;&gt;C -->
<g class="edge" id="edge2">
<title>B-&gt;C</title>
<path d="M517.51,-71.7C517.51,-64.24 517.51,-55.32 517.51,-46.97" fill="none" stroke="black"/>
<polygon fill="black" points="521.01,-47.1 517.51,-37.1 514.01,-47.1 521.01,-47.1" stroke="black"/>
</g>
<!-- D -->
<g class="node" id="node4"><a xlink:href="https://mindset.umc.edu/blsa-explore-me/index.html?search=hvN7RMhxxW"><title>D</title><ellipse cx="867.51" cy="-90" fill="#a0ced9" rx="166" ry="18" stroke="black"/><text font-family="Times,serif" font-size="14.00" text-anchor="middle" x="867.51" y="-84.95">OC::BLSA_Body_Measurements::ant12c</text></a></g>
<!-- D&#45;&gt;C -->
<g class="edge" id="edge3">
<title>D-&gt;C</title>
<path d="M790.7,-73.64C736.05,-62.71 662.5,-48 605.49,-36.6" fill="none" stroke="black"/>
<polygon fill="black" points="606.54,-33.04 596.04,-34.51 605.16,-39.9 606.54,-33.04" stroke="black"/>
</g>
</g>
</svg>