<?xml version="1.0" encoding="utf-8"?>
<!DOCTYPE svg PUBLIC "-//W3C//DTD SVG 1.1//EN" "http://www.w3.org/Graphics/SVG/1.1/DTD/svg11.dtd">
<!-- Generated by graphviz version 8.1.0 (20230707.0739)
 --><!-- Pages: 1 --><svg height="332pt" viewBox="0.00 0.00 1774.88 332.00" width="1775pt" xmlns="http://www.w3.org/2000/svg" xmlns:xlink="http://www.w3.org/1999/xlink">
<g class="graph" id="graph0" transform="scale(1 1) rotate(0) translate(4 328)">
<polygon fill="white" points="-4,4 -4,-328 1770.88,-328 1770.88,4 -4,4" stroke="none"/>
<!-- A -->
<g class="node" id="node1"><a xlink:href="https://mindset.umc.edu/blsa-explore-me/index.html?search=i03wMlL7OQmU"><title>A</title><ellipse cx="1613.68" cy="-90" fill="#ffee93" rx="153.2" ry="18" stroke="black"/><text font-family="Times,serif" font-size="14.00" text-anchor="middle" x="1613.68" y="-84.95">Derived::der_demographics::smokehx</text></a></g>
<!-- H -->
<g class="node" id="node8"><a xlink:href="https://mindset.umc.edu/blsa-explore-me/index.html?search=B485uu05yqaO"><title>H</title><ellipse cx="1613.68" cy="-18" fill="#ffee93" rx="147.06" ry="18" stroke="black"/><text font-family="Times,serif" font-size="14.00" text-anchor="middle" x="1613.68" y="-12.95">Derived::der_demographics::smoker</text></a></g>
<!-- A&#45;&gt;H -->
<g class="edge" id="edge1">
<title>A-&gt;H</title>
<path d="M1613.68,-71.7C1613.68,-64.24 1613.68,-55.32 1613.68,-46.97" fill="none" stroke="black"/>
<polygon fill="black" points="1617.18,-47.1 1613.68,-37.1 1610.18,-47.1 1617.18,-47.1" stroke="black"/>
</g>
<!-- B -->
<g class="node" id="node2"><a xlink:href="https://mindset.umc.edu/blsa-explore-me/index.html?search=fYVgTuhvNcwt"><title>B</title><ellipse cx="130.68" cy="-162" fill="#ffee93" rx="130.68" ry="18" stroke="black"/><text font-family="Times,serif" font-size="14.00" text-anchor="middle" x="130.68" y="-156.95">Derived::der_cohort::visitmonth</text></a></g>
<!-- C -->
<g class="node" id="node3"><a xlink:href="https://mindset.umc.edu/blsa-explore-me/index.html?search=vRxsVpyl92Z4"><title>C</title><ellipse cx="401.68" cy="-162" fill="#ffee93" rx="122.49" ry="18" stroke="black"/><text font-family="Times,serif" font-size="14.00" text-anchor="middle" x="401.68" y="-156.95">Derived::der_cohort::visityear</text></a></g>
<!-- D -->
<g class="node" id="node4"><a xlink:href="https://mindset.umc.edu/blsa-explore-me/index.html?search=SusuAwwM3DsG"><title>D</title><ellipse cx="660.68" cy="-162" fill="#ffee93" rx="118.91" ry="18" stroke="black"/><text font-family="Times,serif" font-size="14.00" text-anchor="middle" x="660.68" y="-156.95">Derived::der_cohort::visitseq</text></a></g>
<!-- E -->
<g class="node" id="node5"><a xlink:href="https://mindset.umc.edu/blsa-explore-me/index.html?search=M2f82OB5wpq5"><title>E</title><ellipse cx="908.68" cy="-90" fill="#ffee93" rx="135.29" ry="18" stroke="black"/><text font-family="Times,serif" font-size="14.00" text-anchor="middle" x="908.68" y="-84.95">Derived::der_cohort::daysfromv1</text></a></g>
<!-- J -->
<g class="node" id="node10"><a xlink:href="https://mindset.umc.edu/blsa-explore-me/index.html?search=MQ8WCwmMoDIJ"><title>J</title><ellipse cx="908.68" cy="-18" fill="#ffee93" rx="137.85" ry="18" stroke="black"/><text font-family="Times,serif" font-size="14.00" text-anchor="middle" x="908.68" y="-12.95">Derived::der_cohort::yearsfromv1</text></a></g>
<!-- E&#45;&gt;J -->
<g class="edge" id="edge2">
<title>E-&gt;J</title>
<path d="M908.68,-71.7C908.68,-64.24 908.68,-55.32 908.68,-46.97" fill="none" stroke="black"/>
<polygon fill="black" points="912.18,-47.1 908.68,-37.1 905.18,-47.1 912.18,-47.1" stroke="black"/>
</g>
<!-- F -->
<g class="node" id="node6"><a xlink:href="https://mindset.umc.edu/blsa-explore-me/index.html?search=XqD265yVCyme"><title>F</title><ellipse cx="996.68" cy="-162" fill="#ffee93" rx="160.88" ry="18" stroke="black"/><text font-family="Times,serif" font-size="14.00" text-anchor="middle" x="996.68" y="-156.95">Derived::der_cohort::yearsfromprevvisit</text></a></g>
<!-- G -->
<g class="node" id="node7"><a xlink:href="https://mindset.umc.edu/blsa-explore-me/index.html?search=mHn6zPaI1f5q"><title>G</title><ellipse cx="1604.68" cy="-162" fill="#ffee93" rx="132.22" ry="18" stroke="black"/><text font-family="Times,serif" font-size="14.00" text-anchor="middle" x="1604.68" y="-156.95">Derived::der_demographics::age</text></a></g>
<!-- G&#45;&gt;A -->
<g class="edge" id="edge3">
<title>G-&gt;A</title>
<path d="M1606.91,-143.7C1607.87,-136.24 1609.01,-127.32 1610.09,-118.97" fill="none" stroke="black"/>
<polygon fill="black" points="1613.68,-119.47 1611.48,-109.1 1606.74,-118.58 1613.68,-119.47" stroke="black"/>
</g>
<!-- I -->
<g class="node" id="node9"><a xlink:href="https://mindset.umc.edu/blsa-explore-me/index.html?search=yc3wBExI755f"><title>I</title><ellipse cx="807.68" cy="-234" fill="#ffc09f" rx="121.98" ry="18" stroke="black"/><text font-family="Times,serif" font-size="14.00" text-anchor="middle" x="807.68" y="-228.95">Derived::der_cohort::visitdate</text></a></g>
<!-- I&#45;&gt;B -->
<g class="edge" id="edge5">
<title>I-&gt;B</title>
<path d="M706.16,-223.67C598.13,-213.57 422.23,-196.68 270.68,-180 259.41,-178.76 247.63,-177.41 235.9,-176.03" fill="none" stroke="black"/>
<polygon fill="black" points="236.5,-172.46 226.16,-174.77 235.68,-179.41 236.5,-172.46" stroke="black"/>
</g>
<!-- I&#45;&gt;C -->
<g class="edge" id="edge6">
<title>I-&gt;C</title>
<path d="M730.36,-219.67C661.75,-207.84 561.57,-190.57 489.87,-178.2" fill="none" stroke="black"/>
<polygon fill="black" points="490.51,-174.59 480.06,-176.34 489.32,-181.49 490.51,-174.59" stroke="black"/>
</g>
<!-- I&#45;&gt;D -->
<g class="edge" id="edge9">
<title>I-&gt;D</title>
<path d="M772.84,-216.41C752.6,-206.77 726.88,-194.52 705.18,-184.19" fill="none" stroke="black"/>
<polygon fill="black" points="707.06,-180.73 696.52,-179.59 704.05,-187.05 707.06,-180.73" stroke="black"/>
</g>
<!-- I&#45;&gt;E -->
<g class="edge" id="edge7">
<title>I-&gt;E</title>
<path d="M807.56,-215.74C808.22,-196.6 811.79,-165.59 826.68,-144 835.35,-131.42 848.08,-121.13 860.94,-113.08" fill="none" stroke="black"/>
<polygon fill="black" points="862.41,-115.69 869.26,-107.61 858.87,-109.65 862.41,-115.69" stroke="black"/>
</g>
<!-- I&#45;&gt;F -->
<g class="edge" id="edge8">
<title>I-&gt;F</title>
<path d="M851.52,-216.76C878.23,-206.87 912.6,-194.14 941.19,-183.55" fill="none" stroke="black"/>
<polygon fill="black" points="942.28,-186.51 950.44,-179.76 939.85,-179.95 942.28,-186.51" stroke="black"/>
</g>
<!-- I&#45;&gt;G -->
<g class="edge" id="edge10">
<title>I-&gt;G</title>
<path d="M914.31,-224.96C1041.23,-215.2 1259.54,-197.83 1446.68,-180 1461.97,-178.54 1478.07,-176.92 1493.92,-175.26" fill="none" stroke="black"/>
<polygon fill="black" points="1494.26,-178.64 1503.84,-174.12 1493.53,-171.68 1494.26,-178.64" stroke="black"/>
</g>
<!-- K -->
<g class="node" id="node11"><a xlink:href="https://mindset.umc.edu/blsa-explore-me/index.html?search=W1v2d8sbiR"><title>K</title><ellipse cx="1306.68" cy="-162" fill="#ffee93" rx="131.19" ry="18" stroke="black"/><text font-family="Times,serif" font-size="14.00" text-anchor="middle" x="1306.68" y="-156.95">Derived::der_cohort::v1visitdate</text></a></g>
<!-- I&#45;&gt;K -->
<g class="edge" id="edge4">
<title>I-&gt;K</title>
<path d="M894.03,-220.89C980.97,-208.69 1114.96,-189.89 1206.52,-177.05" fill="none" stroke="black"/>
<polygon fill="black" points="1206.77,-180.41 1216.19,-175.55 1205.8,-173.48 1206.77,-180.41" stroke="black"/>
</g>
<!-- K&#45;&gt;E -->
<g class="edge" id="edge11">
<title>K-&gt;E</title>
<path d="M1228.05,-147.17C1162.01,-135.55 1067.63,-118.96 998.59,-106.81" fill="none" stroke="black"/>
<polygon fill="black" points="999.63,-103.27 989.17,-104.98 998.41,-110.16 999.63,-103.27" stroke="black"/>
</g>
<!-- L -->
<g class="node" id="node12"><a xlink:href="https://mindset.umc.edu/blsa-explore-me/index.html?search=xk7h9og10f6B"><title>L</title><ellipse cx="1297.68" cy="-90" fill="#ffee93" rx="145.01" ry="18" stroke="black"/><text font-family="Times,serif" font-size="14.00" text-anchor="middle" x="1297.68" y="-84.95">Derived::der_cohort::v1tostatusdays</text></a></g>
<!-- K&#45;&gt;L -->
<g class="edge" id="edge12">
<title>K-&gt;L</title>
<path d="M1304.46,-143.7C1303.5,-136.24 1302.35,-127.32 1301.28,-118.97" fill="none" stroke="black"/>
<polygon fill="black" points="1304.63,-118.58 1299.88,-109.1 1297.68,-119.47 1304.63,-118.58" stroke="black"/>
</g>
<!-- M -->
<g class="node" id="node13"><a xlink:href="https://mindset.umc.edu/blsa-explore-me/index.html?search=AalmVrpsJs"><title>M</title><ellipse cx="807.68" cy="-306" fill="#a0ced9" rx="101.51" ry="18" stroke="black"/><text font-family="Times,serif" font-size="14.00" text-anchor="middle" x="807.68" y="-300.95">Cohort::cohort::visitdate</text></a></g>
<!-- M&#45;&gt;I -->
<g class="edge" id="edge13">
<title>M-&gt;I</title>
<path d="M807.68,-287.7C807.68,-280.24 807.68,-271.32 807.68,-262.97" fill="none" stroke="black"/>
<polygon fill="black" points="811.18,-263.1 807.68,-253.1 804.18,-263.1 811.18,-263.1" stroke="black"/>
</g>
</g>
</svg>