<?xml version="1.0" encoding="utf-8"?>
<!DOCTYPE svg PUBLIC "-//W3C//DTD SVG 1.1//EN" "http://www.w3.org/Graphics/SVG/1.1/DTD/svg11.dtd">
<!-- Generated by graphviz version 8.1.0 (20230707.0739)
 --><!-- Pages: 1 --><svg height="260pt" viewBox="0.00 0.00 335.90 260.00" width="336pt" xmlns="http://www.w3.org/2000/svg" xmlns:xlink="http://www.w3.org/1999/xlink">
<g class="graph" id="graph0" transform="scale(1 1) rotate(0) translate(4 256)">
<polygon fill="white" points="-4,4 -4,-256 331.9,-256 331.9,4 -4,4" stroke="none"/>
<!-- A -->
<g class="node" id="node1"><a xlink:href="https://mindset.umc.edu/blsa-explore-me/index.html?search=A55uwt7pkIIt"><title>A</title><ellipse cx="163.95" cy="-18" fill="#ffc09f" rx="152.18" ry="18" stroke="black"/><text font-family="Times,serif" font-size="14.00" text-anchor="middle" x="163.95" y="-12.95">Derived::der_demographics::educ3cat</text></a></g>
<!-- B -->
<g class="node" id="node2"><a xlink:href="https://mindset.umc.edu/blsa-explore-me/index.html?search=Xw74aUOacwK6"><title>B</title><ellipse cx="163.95" cy="-90" fill="#a0ced9" rx="155.25" ry="18" stroke="black"/><text font-family="Times,serif" font-size="14.00" text-anchor="middle" x="163.95" y="-84.95">Derived::der_demographics::education</text></a></g>
<!-- B&#45;&gt;A -->
<g class="edge" id="edge1">
<title>B-&gt;A</title>
<path d="M163.95,-71.7C163.95,-64.24 163.95,-55.32 163.95,-46.97" fill="none" stroke="black"/>
<polygon fill="black" points="167.45,-47.1 163.95,-37.1 160.45,-47.1 167.45,-47.1" stroke="black"/>
</g>
<!-- C -->
<g class="node" id="node3"><a xlink:href="https://mindset.umc.edu/blsa-explore-me/index.html?search=P1gFCB9aeI"><title>C</title><ellipse cx="163.95" cy="-234" fill="#a0ced9" rx="161.39" ry="18" stroke="black"/><text font-family="Times,serif" font-size="14.00" text-anchor="middle" x="163.95" y="-228.95">OC::BLSA_General_Interview::demo10</text></a></g>
<!-- D -->
<g class="node" id="node4"><a xlink:href="https://mindset.umc.edu/blsa-explore-me/index.html?search=ffH5mz993pAa"><title>D</title><ellipse cx="163.95" cy="-162" fill="#a0ced9" rx="163.95" ry="18" stroke="black"/><text font-family="Times,serif" font-size="14.00" text-anchor="middle" x="163.95" y="-156.95">Derived::der_demographics::edyrsdegree</text></a></g>
<!-- C&#45;&gt;D -->
<g class="edge" id="edge2">
<title>C-&gt;D</title>
<path d="M163.95,-215.7C163.95,-208.24 163.95,-199.32 163.95,-190.97" fill="none" stroke="black"/>
<polygon fill="black" points="167.45,-191.1 163.95,-181.1 160.45,-191.1 167.45,-191.1" stroke="black"/>
</g>
<!-- D&#45;&gt;B -->
<g class="edge" id="edge3">
<title>D-&gt;B</title>
<path d="M163.95,-143.7C163.95,-136.24 163.95,-127.32 163.95,-118.97" fill="none" stroke="black"/>
<polygon fill="black" points="167.45,-119.1 163.95,-109.1 160.45,-119.1 167.45,-119.1" stroke="black"/>
</g>
</g>
</svg>