<?xml version="1.0" encoding="utf-8"?>
<!DOCTYPE svg PUBLIC "-//W3C//DTD SVG 1.1//EN" "http://www.w3.org/Graphics/SVG/1.1/DTD/svg11.dtd">
<!-- Generated by graphviz version 8.1.0 (20230707.0739)
 --><!-- Pages: 1 --><svg height="260pt" viewBox="0.00 0.00 2865.35 260.00" width="2865pt" xmlns="http://www.w3.org/2000/svg" xmlns:xlink="http://www.w3.org/1999/xlink">
<g class="graph" id="graph0" transform="scale(1 1) rotate(0) translate(4 256)">
<polygon fill="white" points="-4,4 -4,-256 2861.35,-256 2861.35,4 -4,4" stroke="none"/>
<!-- A -->
<g class="node" id="node1"><a xlink:href="https://mindset.umc.edu/blsa-explore-me/index.html?search=kLwK24xjeC"><title>A</title><ellipse cx="739" cy="-162" fill="#a0ced9" rx="186.47" ry="18" stroke="black"/><text font-family="Times,serif" font-size="14.00" text-anchor="middle" x="739" y="-156.95">OC::BLSA_LE_Physical_Performance::lep8b1</text></a></g>
<!-- F -->
<g class="node" id="node6"><a xlink:href="https://mindset.umc.edu/blsa-explore-me/index.html?search=oKATx4iZQQ"><title>F</title><ellipse cx="1714" cy="-90" fill="#a0ced9" rx="177.26" ry="18" stroke="black"/><text font-family="Times,serif" font-size="14.00" text-anchor="middle" x="1714" y="-84.95">Derived::der_physicalperformance::r6mtime</text></a></g>
<!-- A&#45;&gt;F -->
<g class="edge" id="edge1">
<title>A-&gt;F</title>
<path d="M872.19,-149.05C892.88,-147.29 914.01,-145.55 934,-144 1148.96,-127.33 1397.48,-110.94 1555.14,-100.9" fill="none" stroke="black"/>
<polygon fill="black" points="1555.11,-104.35 1564.86,-100.22 1554.66,-97.36 1555.11,-104.35" stroke="black"/>
</g>
<!-- B -->
<g class="node" id="node2"><a xlink:href="https://mindset.umc.edu/blsa-explore-me/index.html?search=DP9H480ybE"><title>B</title><ellipse cx="1129" cy="-162" fill="#a0ced9" rx="185.96" ry="18" stroke="black"/><text font-family="Times,serif" font-size="14.00" text-anchor="middle" x="1129" y="-156.95">OC::BLSA_LE_Physical_Performance::lep8a1</text></a></g>
<!-- B&#45;&gt;F -->
<g class="edge" id="edge2">
<title>B-&gt;F</title>
<path d="M1242.84,-147.38C1343.16,-135.37 1488.93,-117.93 1591.71,-105.63" fill="none" stroke="black"/>
<polygon fill="black" points="1591.94,-109.01 1601.46,-104.35 1591.11,-102.06 1591.94,-109.01" stroke="black"/>
</g>
<!-- C -->
<g class="node" id="node3"><a xlink:href="https://mindset.umc.edu/blsa-explore-me/index.html?search=dlHH9hMtgo"><title>C</title><ellipse cx="1519" cy="-162" fill="#a0ced9" rx="186.47" ry="18" stroke="black"/><text font-family="Times,serif" font-size="14.00" text-anchor="middle" x="1519" y="-156.95">OC::BLSA_LE_Physical_Performance::lep8b2</text></a></g>
<!-- C&#45;&gt;F -->
<g class="edge" id="edge3">
<title>C-&gt;F</title>
<path d="M1565.71,-144.23C1593.23,-134.36 1628.23,-121.79 1657.32,-111.35" fill="none" stroke="black"/>
<polygon fill="black" points="1658.11,-114.42 1666.34,-107.75 1655.75,-107.84 1658.11,-114.42" stroke="black"/>
</g>
<!-- D -->
<g class="node" id="node4"><a xlink:href="https://mindset.umc.edu/blsa-explore-me/index.html?search=qfjDUq9zeC"><title>D</title><ellipse cx="188" cy="-234" fill="#a0ced9" rx="188" ry="18" stroke="black"/><text font-family="Times,serif" font-size="14.00" text-anchor="middle" x="188" y="-228.95">OC::BLSA_Visit_Procedure_Checklist::vtdate1</text></a></g>
<!-- J -->
<g class="node" id="node10"><a xlink:href="https://mindset.umc.edu/blsa-explore-me/index.html?search=V4bhL60w1fNe"><title>J</title><ellipse cx="412" cy="-162" fill="#a0ced9" rx="122.49" ry="18" stroke="black"/><text font-family="Times,serif" font-size="14.00" text-anchor="middle" x="412" y="-156.95">Derived::der_cohort::visittype</text></a></g>
<!-- D&#45;&gt;J -->
<g class="edge" id="edge4">
<title>D-&gt;J</title>
<path d="M241.37,-216.32C274.33,-206.02 316.71,-192.78 350.99,-182.07" fill="none" stroke="black"/>
<polygon fill="black" points="351.85,-185.15 360.35,-178.83 349.76,-178.47 351.85,-185.15" stroke="black"/>
</g>
<!-- E -->
<g class="node" id="node5"><a xlink:href="https://mindset.umc.edu/blsa-explore-me/index.html?search=BBC4i8QwuTPK"><title>E</title><ellipse cx="999" cy="-90" fill="#a0ced9" rx="127.61" ry="18" stroke="black"/><text font-family="Times,serif" font-size="14.00" text-anchor="middle" x="999" y="-84.95">Derived::der_cohort::homevisit</text></a></g>
<!-- L -->
<g class="node" id="node12"><a xlink:href="https://mindset.umc.edu/blsa-explore-me/index.html?search=cHk4s3PVf2k4"><title>L</title><ellipse cx="1714" cy="-18" fill="#ffc09f" rx="198.75" ry="18" stroke="black"/><text font-family="Times,serif" font-size="14.00" text-anchor="middle" x="1714" y="-12.95">Derived::der_physicalperformance::rapidgaitspeed</text></a></g>
<!-- E&#45;&gt;L -->
<g class="edge" id="edge5">
<title>E-&gt;L</title>
<path d="M1101.45,-78.97C1224.88,-66.89 1432.97,-46.51 1571.89,-32.91" fill="none" stroke="black"/>
<polygon fill="black" points="1571.99,-36.32 1581.6,-31.86 1571.31,-29.36 1571.99,-36.32" stroke="black"/>
</g>
<!-- F&#45;&gt;L -->
<g class="edge" id="edge6">
<title>F-&gt;L</title>
<path d="M1714,-71.7C1714,-64.24 1714,-55.32 1714,-46.97" fill="none" stroke="black"/>
<polygon fill="black" points="1717.5,-47.1 1714,-37.1 1710.5,-47.1 1717.5,-47.1" stroke="black"/>
</g>
<!-- G -->
<g class="node" id="node7"><a xlink:href="https://mindset.umc.edu/blsa-explore-me/index.html?search=hEC99bi4kt"><title>G</title><ellipse cx="2676" cy="-162" fill="#a0ced9" rx="181.35" ry="18" stroke="black"/><text font-family="Times,serif" font-size="14.00" text-anchor="middle" x="2676" y="-156.95">OC::BLSA_LE_Physical_Performance::lep8a</text></a></g>
<!-- G&#45;&gt;F -->
<g class="edge" id="edge7">
<title>G-&gt;F</title>
<path d="M2546.49,-149.05C2526.25,-147.29 2505.57,-145.55 2486,-144 2273.75,-127.22 2028.43,-110.9 1872.33,-100.91" fill="none" stroke="black"/>
<polygon fill="black" points="1872.91,-97.37 1862.71,-100.23 1872.47,-104.36 1872.91,-97.37" stroke="black"/>
</g>
<!-- G&#45;&gt;L -->
<g class="edge" id="edge8">
<title>G-&gt;L</title>
<path d="M2577.57,-146.47C2397.42,-119.88 2015.79,-63.55 1826.02,-35.53" fill="none" stroke="black"/>
<polygon fill="black" points="1826.59,-31.93 1816.18,-33.94 1825.57,-38.86 1826.59,-31.93" stroke="black"/>
</g>
<!-- H -->
<g class="node" id="node8"><a xlink:href="https://mindset.umc.edu/blsa-explore-me/index.html?search=x42VsbN1hS"><title>H</title><ellipse cx="1909" cy="-162" fill="#a0ced9" rx="185.96" ry="18" stroke="black"/><text font-family="Times,serif" font-size="14.00" text-anchor="middle" x="1909" y="-156.95">OC::BLSA_LE_Physical_Performance::lep8a2</text></a></g>
<!-- H&#45;&gt;F -->
<g class="edge" id="edge9">
<title>H-&gt;F</title>
<path d="M1862.3,-144.23C1834.78,-134.36 1799.78,-121.79 1770.69,-111.35" fill="none" stroke="black"/>
<polygon fill="black" points="1772.26,-107.84 1761.67,-107.75 1769.9,-114.42 1772.26,-107.84" stroke="black"/>
</g>
<!-- I -->
<g class="node" id="node9"><a xlink:href="https://mindset.umc.edu/blsa-explore-me/index.html?search=yQslZwHTJn"><title>I</title><ellipse cx="637" cy="-234" fill="#a0ced9" rx="243.28" ry="18" stroke="black"/><text font-family="Times,serif" font-size="14.00" text-anchor="middle" x="637" y="-228.95">OC::BLSA_HV_Visit_Procedure_Checklist::obsdate_hvtdate1</text></a></g>
<!-- I&#45;&gt;J -->
<g class="edge" id="edge10">
<title>I-&gt;J</title>
<path d="M582.54,-216.05C549.54,-205.79 507.36,-192.67 473.21,-182.04" fill="none" stroke="black"/>
<polygon fill="black" points="474.47,-178.46 463.88,-178.83 472.39,-185.14 474.47,-178.46" stroke="black"/>
</g>
<!-- J&#45;&gt;E -->
<g class="edge" id="edge11">
<title>J-&gt;E</title>
<path d="M501.45,-149.33C515.68,-147.52 530.24,-145.69 544,-144 662.64,-129.45 798.81,-113.72 891.03,-103.2" fill="none" stroke="black"/>
<polygon fill="black" points="891.23,-106.59 900.77,-101.98 890.44,-99.63 891.23,-106.59" stroke="black"/>
</g>
<!-- K -->
<g class="node" id="node11"><a xlink:href="https://mindset.umc.edu/blsa-explore-me/index.html?search=fQNEo1I915"><title>K</title><ellipse cx="2295" cy="-162" fill="#a0ced9" rx="181.86" ry="18" stroke="black"/><text font-family="Times,serif" font-size="14.00" text-anchor="middle" x="2295" y="-156.95">OC::BLSA_LE_Physical_Performance::lep8b</text></a></g>
<!-- K&#45;&gt;F -->
<g class="edge" id="edge12">
<title>K-&gt;F</title>
<path d="M2182.64,-147.46C2083.08,-135.47 1938.05,-117.99 1835.75,-105.67" fill="none" stroke="black"/>
<polygon fill="black" points="1836.4,-102.1 1826.06,-104.38 1835.57,-109.05 1836.4,-102.1" stroke="black"/>
</g>
</g>
</svg>