<?xml version="1.0" encoding="utf-8"?>
<!DOCTYPE svg PUBLIC "-//W3C//DTD SVG 1.1//EN" "http://www.w3.org/Graphics/SVG/1.1/DTD/svg11.dtd">
<!-- Generated by graphviz version 8.1.0 (20230707.0739)
 --><!-- Pages: 1 --><svg height="188pt" viewBox="0.00 0.00 1041.50 188.00" width="1042pt" xmlns="http://www.w3.org/2000/svg" xmlns:xlink="http://www.w3.org/1999/xlink">
<g class="graph" id="graph0" transform="scale(1 1) rotate(0) translate(4 184)">
<polygon fill="white" points="-4,4 -4,-184 1037.5,-184 1037.5,4 -4,4" stroke="none"/>
<!-- A -->
<g class="node" id="node1"><a xlink:href="https://mindset.umc.edu/blsa-explore-me/index.html?search=IUTTgtTgs8"><title>A</title><ellipse cx="166" cy="-162" fill="#a0ced9" rx="166" ry="18" stroke="black"/><text font-family="Times,serif" font-size="14.00" text-anchor="middle" x="166" y="-156.95">OC::BLSA_Body_Measurements::ant09c</text></a></g>
<!-- B -->
<g class="node" id="node2"><a xlink:href="https://mindset.umc.edu/blsa-explore-me/index.html?search=F3GMMG1c046r"><title>B</title><ellipse cx="516" cy="-90" fill="#ffc09f" rx="155.25" ry="18" stroke="black"/><text font-family="Times,serif" font-size="14.00" text-anchor="middle" x="516" y="-84.95">Derived::der_anthropometry::waistcirc</text></a></g>
<!-- A&#45;&gt;B -->
<g class="edge" id="edge1">
<title>A-&gt;B</title>
<path d="M242.81,-145.64C298.03,-134.59 372.53,-119.69 429.79,-108.24" fill="none" stroke="black"/>
<polygon fill="black" points="430.15,-111.54 439.27,-106.15 428.78,-104.67 430.15,-111.54" stroke="black"/>
</g>
<!-- E -->
<g class="node" id="node5"><a xlink:href="https://mindset.umc.edu/blsa-explore-me/index.html?search=cqYVX309eR9T"><title>E</title><ellipse cx="348" cy="-18" fill="#ffee93" rx="164.46" ry="18" stroke="black"/><text font-family="Times,serif" font-size="14.00" text-anchor="middle" x="348" y="-12.95">Derived::der_anthropometry::waistheight</text></a></g>
<!-- B&#45;&gt;E -->
<g class="edge" id="edge3">
<title>B-&gt;E</title>
<path d="M475.76,-72.23C452.55,-62.56 423.16,-50.32 398.42,-40.01" fill="none" stroke="black"/>
<polygon fill="black" points="400.07,-36.49 389.49,-35.87 397.38,-42.95 400.07,-36.49" stroke="black"/>
</g>
<!-- F -->
<g class="node" id="node6"><a xlink:href="https://mindset.umc.edu/blsa-explore-me/index.html?search=b8bL8tBMJM4S"><title>F</title><ellipse cx="684" cy="-18" fill="#ffee93" rx="153.2" ry="18" stroke="black"/><text font-family="Times,serif" font-size="14.00" text-anchor="middle" x="684" y="-12.95">Derived::der_anthropometry::waisthip</text></a></g>
<!-- B&#45;&gt;F -->
<g class="edge" id="edge2">
<title>B-&gt;F</title>
<path d="M556.24,-72.23C579.53,-62.53 609.05,-50.23 633.84,-39.9" fill="none" stroke="black"/>
<polygon fill="black" points="634.91,-42.83 642.79,-35.75 632.22,-36.37 634.91,-42.83" stroke="black"/>
</g>
<!-- C -->
<g class="node" id="node3"><a xlink:href="https://mindset.umc.edu/blsa-explore-me/index.html?search=EyIFFxbLOB"><title>C</title><ellipse cx="516" cy="-162" fill="#a0ced9" rx="166" ry="18" stroke="black"/><text font-family="Times,serif" font-size="14.00" text-anchor="middle" x="516" y="-156.95">OC::BLSA_Body_Measurements::ant09a</text></a></g>
<!-- C&#45;&gt;B -->
<g class="edge" id="edge4">
<title>C-&gt;B</title>
<path d="M516,-143.7C516,-136.24 516,-127.32 516,-118.97" fill="none" stroke="black"/>
<polygon fill="black" points="519.5,-119.1 516,-109.1 512.5,-119.1 519.5,-119.1" stroke="black"/>
</g>
<!-- D -->
<g class="node" id="node4"><a xlink:href="https://mindset.umc.edu/blsa-explore-me/index.html?search=j75nqGCzbl"><title>D</title><ellipse cx="867" cy="-162" fill="#a0ced9" rx="166.51" ry="18" stroke="black"/><text font-family="Times,serif" font-size="14.00" text-anchor="middle" x="867" y="-156.95">OC::BLSA_Body_Measurements::ant09b</text></a></g>
<!-- D&#45;&gt;B -->
<g class="edge" id="edge5">
<title>D-&gt;B</title>
<path d="M789.97,-145.64C734.59,-134.59 659.87,-119.69 602.45,-108.24" fill="none" stroke="black"/>
<polygon fill="black" points="603.43,-104.67 592.94,-106.15 602.06,-111.53 603.43,-104.67" stroke="black"/>
</g>
</g>
</svg>