<?xml version="1.0" encoding="utf-8"?>
<!DOCTYPE svg PUBLIC "-//W3C//DTD SVG 1.1//EN" "http://www.w3.org/Graphics/SVG/1.1/DTD/svg11.dtd">
<!-- Generated by graphviz version 8.1.0 (20230707.0739)
 --><!-- Pages: 1 --><svg height="116pt" viewBox="0.00 0.00 630.31 116.00" width="630pt" xmlns="http://www.w3.org/2000/svg" xmlns:xlink="http://www.w3.org/1999/xlink">
<g class="graph" id="graph0" transform="scale(1 1) rotate(0) translate(4 112)">
<polygon fill="white" points="-4,4 -4,-112 626.31,-112 626.31,4 -4,4" stroke="none"/>
<!-- A -->
<g class="node" id="node1"><a xlink:href="https://mindset.umc.edu/blsa-explore-me/index.html?search=tfF8jsZRBo"><title>A</title><ellipse cx="151.15" cy="-90" fill="#a0ced9" rx="151.15" ry="18" stroke="black"/><text font-family="Times,serif" font-size="14.00" text-anchor="middle" x="151.15" y="-84.95">OC::BLSA_General_Interview::alc01</text></a></g>
<!-- B -->
<g class="node" id="node2"><a xlink:href="https://mindset.umc.edu/blsa-explore-me/index.html?search=hdsQl1XFL9"><title>B</title><ellipse cx="311.15" cy="-18" fill="#ffc09f" rx="155.76" ry="18" stroke="black"/><text font-family="Times,serif" font-size="14.00" text-anchor="middle" x="311.15" y="-12.95">Derived::der_demographics::alcoholhx</text></a></g>
<!-- A&#45;&gt;B -->
<g class="edge" id="edge1">
<title>A-&gt;B</title>
<path d="M189.48,-72.23C211.48,-62.61 239.32,-50.43 262.81,-40.15" fill="none" stroke="black"/>
<polygon fill="black" points="263.83,-43.09 271.59,-35.87 261.02,-36.67 263.83,-43.09" stroke="black"/>
</g>
<!-- C -->
<g class="node" id="node3"><a xlink:href="https://mindset.umc.edu/blsa-explore-me/index.html?search=LK3K8xnxW0"><title>C</title><ellipse cx="471.15" cy="-90" fill="#a0ced9" rx="151.15" ry="18" stroke="black"/><text font-family="Times,serif" font-size="14.00" text-anchor="middle" x="471.15" y="-84.95">OC::BLSA_General_Interview::alc02</text></a></g>
<!-- C&#45;&gt;B -->
<g class="edge" id="edge2">
<title>C-&gt;B</title>
<path d="M432.83,-72.23C410.83,-62.61 382.99,-50.43 359.49,-40.15" fill="none" stroke="black"/>
<polygon fill="black" points="361.28,-36.67 350.72,-35.87 358.48,-43.09 361.28,-36.67" stroke="black"/>
</g>
</g>
</svg>