<?xml version="1.0" encoding="utf-8"?>
<!DOCTYPE svg PUBLIC "-//W3C//DTD SVG 1.1//EN" "http://www.w3.org/Graphics/SVG/1.1/DTD/svg11.dtd">
<!-- Generated by graphviz version 8.1.0 (20230707.0739)
 --><!-- Pages: 1 --><svg height="332pt" viewBox="0.00 0.00 574.16 332.00" width="574pt" xmlns="http://www.w3.org/2000/svg" xmlns:xlink="http://www.w3.org/1999/xlink">
<g class="graph" id="graph0" transform="scale(1 1) rotate(0) translate(4 328)">
<polygon fill="white" points="-4,4 -4,-328 570.16,-328 570.16,4 -4,4" stroke="none"/>
<!-- A -->
<g class="node" id="node1"><a xlink:href="https://mindset.umc.edu/blsa-explore-me/index.html?search=i03wMlL7OQmU"><title>A</title><ellipse cx="298.18" cy="-90" fill="#ffee93" rx="153.2" ry="18" stroke="black"/><text font-family="Times,serif" font-size="14.00" text-anchor="middle" x="298.18" y="-84.95">Derived::der_demographics::smokehx</text></a></g>
<!-- D -->
<g class="node" id="node4"><a xlink:href="https://mindset.umc.edu/blsa-explore-me/index.html?search=B485uu05yqaO"><title>D</title><ellipse cx="298.18" cy="-18" fill="#ffee93" rx="147.06" ry="18" stroke="black"/><text font-family="Times,serif" font-size="14.00" text-anchor="middle" x="298.18" y="-12.95">Derived::der_demographics::smoker</text></a></g>
<!-- A&#45;&gt;D -->
<g class="edge" id="edge1">
<title>A-&gt;D</title>
<path d="M298.18,-71.7C298.18,-64.24 298.18,-55.32 298.18,-46.97" fill="none" stroke="black"/>
<polygon fill="black" points="301.68,-47.1 298.18,-37.1 294.68,-47.1 301.68,-47.1" stroke="black"/>
</g>
<!-- B -->
<g class="node" id="node2"><a xlink:href="https://mindset.umc.edu/blsa-explore-me/index.html?search=RiSSGqO8da"><title>B</title><ellipse cx="152.18" cy="-234" fill="#a0ced9" rx="152.18" ry="18" stroke="black"/><text font-family="Times,serif" font-size="14.00" text-anchor="middle" x="152.18" y="-228.95">Derived::der_demographics::birthdate</text></a></g>
<!-- E -->
<g class="node" id="node5"><a xlink:href="https://mindset.umc.edu/blsa-explore-me/index.html?search=mHn6zPaI1f5q"><title>E</title><ellipse cx="298.18" cy="-162" fill="#ffc09f" rx="132.22" ry="18" stroke="black"/><text font-family="Times,serif" font-size="14.00" text-anchor="middle" x="298.18" y="-156.95">Derived::der_demographics::age</text></a></g>
<!-- B&#45;&gt;E -->
<g class="edge" id="edge2">
<title>B-&gt;E</title>
<path d="M187.52,-216.05C207.34,-206.55 232.25,-194.61 253.42,-184.46" fill="none" stroke="black"/>
<polygon fill="black" points="254.66,-187.27 262.16,-179.79 251.63,-180.96 254.66,-187.27" stroke="black"/>
</g>
<!-- C -->
<g class="node" id="node3"><a xlink:href="https://mindset.umc.edu/blsa-explore-me/index.html?search=5tvCoHlrvz"><title>C</title><ellipse cx="152.18" cy="-306" fill="#a0ced9" rx="126.08" ry="18" stroke="black"/><text font-family="Times,serif" font-size="14.00" text-anchor="middle" x="152.18" y="-300.95">Cohort::demography::birthdate</text></a></g>
<!-- C&#45;&gt;B -->
<g class="edge" id="edge3">
<title>C-&gt;B</title>
<path d="M152.18,-287.7C152.18,-280.24 152.18,-271.32 152.18,-262.97" fill="none" stroke="black"/>
<polygon fill="black" points="155.68,-263.1 152.18,-253.1 148.68,-263.1 155.68,-263.1" stroke="black"/>
</g>
<!-- E&#45;&gt;A -->
<g class="edge" id="edge4">
<title>E-&gt;A</title>
<path d="M298.18,-143.7C298.18,-136.24 298.18,-127.32 298.18,-118.97" fill="none" stroke="black"/>
<polygon fill="black" points="301.68,-119.1 298.18,-109.1 294.68,-119.1 301.68,-119.1" stroke="black"/>
</g>
<!-- F -->
<g class="node" id="node6"><a xlink:href="https://mindset.umc.edu/blsa-explore-me/index.html?search=yc3wBExI755f"><title>F</title><ellipse cx="444.18" cy="-234" fill="#a0ced9" rx="121.98" ry="18" stroke="black"/><text font-family="Times,serif" font-size="14.00" text-anchor="middle" x="444.18" y="-228.95">Derived::der_cohort::visitdate</text></a></g>
<!-- F&#45;&gt;E -->
<g class="edge" id="edge5">
<title>F-&gt;E</title>
<path d="M409.58,-216.41C389.7,-206.88 364.52,-194.81 343.13,-184.55" fill="none" stroke="black"/>
<polygon fill="black" points="344.82,-181 334.29,-179.83 341.79,-187.31 344.82,-181" stroke="black"/>
</g>
<!-- G -->
<g class="node" id="node7"><a xlink:href="https://mindset.umc.edu/blsa-explore-me/index.html?search=AalmVrpsJs"><title>G</title><ellipse cx="444.18" cy="-306" fill="#a0ced9" rx="101.51" ry="18" stroke="black"/><text font-family="Times,serif" font-size="14.00" text-anchor="middle" x="444.18" y="-300.95">Cohort::cohort::visitdate</text></a></g>
<!-- G&#45;&gt;F -->
<g class="edge" id="edge6">
<title>G-&gt;F</title>
<path d="M444.18,-287.7C444.18,-280.24 444.18,-271.32 444.18,-262.97" fill="none" stroke="black"/>
<polygon fill="black" points="447.68,-263.1 444.18,-253.1 440.68,-263.1 447.68,-263.1" stroke="black"/>
</g>
</g>
</svg>