<?xml version="1.0" encoding="utf-8"?>
<!DOCTYPE svg PUBLIC "-//W3C//DTD SVG 1.1//EN" "http://www.w3.org/Graphics/SVG/1.1/DTD/svg11.dtd">
<!-- Generated by graphviz version 8.1.0 (20230707.0739)
 --><!-- Pages: 1 --><svg height="188pt" viewBox="0.00 0.00 1595.87 188.00" width="1596pt" xmlns="http://www.w3.org/2000/svg" xmlns:xlink="http://www.w3.org/1999/xlink">
<g class="graph" id="graph0" transform="scale(1 1) rotate(0) translate(4 184)">
<polygon fill="white" points="-4,4 -4,-184 1591.87,-184 1591.87,4 -4,4" stroke="none"/>
<!-- A -->
<g class="node" id="node1"><a xlink:href="https://mindset.umc.edu/blsa-explore-me/index.html?search=ZmoYZUwnSk"><title>A</title><ellipse cx="152.69" cy="-162" fill="#a0ced9" rx="152.69" ry="18" stroke="black"/><text font-family="Times,serif" font-size="14.00" text-anchor="middle" x="152.69" y="-156.95">OC::BLSA_General_Interview::pf01d</text></a></g>
<!-- E -->
<g class="node" id="node5"><a xlink:href="https://mindset.umc.edu/blsa-explore-me/index.html?search=pKj63X9U4g18"><title>E</title><ellipse cx="602.69" cy="-90" fill="#a0ced9" rx="176.74" ry="18" stroke="black"/><text font-family="Times,serif" font-size="14.00" text-anchor="middle" x="602.69" y="-84.95">Derived::der_physicalfunction::walkonemile</text></a></g>
<!-- A&#45;&gt;E -->
<g class="edge" id="edge1">
<title>A-&gt;E</title>
<path d="M242.4,-147.04C315.99,-135.6 420.29,-119.37 497.74,-107.33" fill="none" stroke="black"/>
<polygon fill="black" points="498.14,-110.65 507.49,-105.65 497.07,-103.73 498.14,-110.65" stroke="black"/>
</g>
<!-- B -->
<g class="node" id="node2"><a xlink:href="https://mindset.umc.edu/blsa-explore-me/index.html?search=j2nM4051H4Mz"><title>B</title><ellipse cx="794.69" cy="-18" fill="#ffc09f" rx="160.37" ry="18" stroke="black"/><text font-family="Times,serif" font-size="14.00" text-anchor="middle" x="794.69" y="-12.95">Derived::der_physicalfunction::wkindex</text></a></g>
<!-- C -->
<g class="node" id="node3"><a xlink:href="https://mindset.umc.edu/blsa-explore-me/index.html?search=Pgwmdv2UJL"><title>C</title><ellipse cx="475.69" cy="-162" fill="#a0ced9" rx="152.18" ry="18" stroke="black"/><text font-family="Times,serif" font-size="14.00" text-anchor="middle" x="475.69" y="-156.95">OC::BLSA_General_Interview::pf01c</text></a></g>
<!-- C&#45;&gt;E -->
<g class="edge" id="edge2">
<title>C-&gt;E</title>
<path d="M506.43,-144.05C523.31,-134.75 544.44,-123.11 562.6,-113.1" fill="none" stroke="black"/>
<polygon fill="black" points="563.72,-115.92 570.79,-108.03 560.34,-109.79 563.72,-115.92" stroke="black"/>
</g>
<!-- D -->
<g class="node" id="node4"><a xlink:href="https://mindset.umc.edu/blsa-explore-me/index.html?search=AdQciVWkLm"><title>D</title><ellipse cx="793.69" cy="-162" fill="#a0ced9" rx="148.08" ry="18" stroke="black"/><text font-family="Times,serif" font-size="14.00" text-anchor="middle" x="793.69" y="-156.95">OC::BLSA_General_Interview::pf01</text></a></g>
<!-- D&#45;&gt;E -->
<g class="edge" id="edge3">
<title>D-&gt;E</title>
<path d="M748.43,-144.41C721.6,-134.58 687.39,-122.04 658.85,-111.58" fill="none" stroke="black"/>
<polygon fill="black" points="660.22,-107.99 649.62,-107.83 657.81,-114.56 660.22,-107.99" stroke="black"/>
</g>
<!-- E&#45;&gt;B -->
<g class="edge" id="edge4">
<title>E-&gt;B</title>
<path d="M648.68,-72.23C675.75,-62.36 710.19,-49.81 738.82,-39.37" fill="none" stroke="black"/>
<polygon fill="black" points="739.88,-42.34 748.08,-35.63 737.48,-35.77 739.88,-42.34" stroke="black"/>
</g>
<!-- F -->
<g class="node" id="node6"><a xlink:href="https://mindset.umc.edu/blsa-explore-me/index.html?search=l2hA5wDctO"><title>F</title><ellipse cx="1112.69" cy="-162" fill="#a0ced9" rx="152.69" ry="18" stroke="black"/><text font-family="Times,serif" font-size="14.00" text-anchor="middle" x="1112.69" y="-156.95">OC::BLSA_General_Interview::pf01b</text></a></g>
<!-- G -->
<g class="node" id="node7"><a xlink:href="https://mindset.umc.edu/blsa-explore-me/index.html?search=bHYzjQ0a2T40"><title>G</title><ellipse cx="1112.69" cy="-90" fill="#a0ced9" rx="189.54" ry="18" stroke="black"/><text font-family="Times,serif" font-size="14.00" text-anchor="middle" x="1112.69" y="-84.95">Derived::der_physicalfunction::walkquartermile</text></a></g>
<!-- F&#45;&gt;G -->
<g class="edge" id="edge5">
<title>F-&gt;G</title>
<path d="M1112.69,-143.7C1112.69,-136.24 1112.69,-127.32 1112.69,-118.97" fill="none" stroke="black"/>
<polygon fill="black" points="1116.19,-119.1 1112.69,-109.1 1109.19,-119.1 1116.19,-119.1" stroke="black"/>
</g>
<!-- G&#45;&gt;B -->
<g class="edge" id="edge6">
<title>G-&gt;B</title>
<path d="M1039.73,-72.94C990.86,-62.18 926.46,-48.01 875.95,-36.89" fill="none" stroke="black"/>
<polygon fill="black" points="876.91,-33.29 866.39,-34.56 875.4,-40.13 876.91,-33.29" stroke="black"/>
</g>
<!-- H -->
<g class="node" id="node8"><a xlink:href="https://mindset.umc.edu/blsa-explore-me/index.html?search=emZunRR0cl"><title>H</title><ellipse cx="1435.69" cy="-162" fill="#a0ced9" rx="152.18" ry="18" stroke="black"/><text font-family="Times,serif" font-size="14.00" text-anchor="middle" x="1435.69" y="-156.95">OC::BLSA_General_Interview::pf01a</text></a></g>
<!-- H&#45;&gt;G -->
<g class="edge" id="edge7">
<title>H-&gt;G</title>
<path d="M1364.81,-145.64C1315.38,-134.93 1249.21,-120.59 1197.06,-109.28" fill="none" stroke="black"/>
<polygon fill="black" points="1198.01,-105.69 1187.49,-106.99 1196.52,-112.53 1198.01,-105.69" stroke="black"/>
</g>
</g>
</svg>