<?xml version="1.0" encoding="utf-8"?>
<!DOCTYPE svg PUBLIC "-//W3C//DTD SVG 1.1//EN" "http://www.w3.org/Graphics/SVG/1.1/DTD/svg11.dtd">
<!-- Generated by graphviz version 8.1.0 (20230707.0739)
 --><!-- Pages: 1 --><svg height="116pt" viewBox="0.00 0.00 626.26 116.00" width="626pt" xmlns="http://www.w3.org/2000/svg" xmlns:xlink="http://www.w3.org/1999/xlink">
<g class="graph" id="graph0" transform="scale(1 1) rotate(0) translate(4 112)">
<polygon fill="white" points="-4,4 -4,-112 622.26,-112 622.26,4 -4,4" stroke="none"/>
<!-- A -->
<g class="node" id="node1"><a xlink:href="https://mindset.umc.edu/blsa-explore-me/index.html?search=Fw76t8mxvK"><title>A</title><ellipse cx="148.08" cy="-90" fill="#a0ced9" rx="148.08" ry="18" stroke="black"/><text font-family="Times,serif" font-size="14.00" text-anchor="middle" x="148.08" y="-84.95">OC::BLSA_General_Interview::pf19</text></a></g>
<!-- C -->
<g class="node" id="node3"><a xlink:href="https://mindset.umc.edu/blsa-explore-me/index.html?search=Tgx74tLB7IlX"><title>C</title><ellipse cx="307.08" cy="-18" fill="#ffc09f" rx="175.21" ry="18" stroke="black"/><text font-family="Times,serif" font-size="14.00" text-anchor="middle" x="307.08" y="-12.95">Derived::der_physicalfunction::IADL_meds</text></a></g>
<!-- A&#45;&gt;C -->
<g class="edge" id="edge1">
<title>A-&gt;C</title>
<path d="M186.17,-72.23C207.86,-62.69 235.25,-50.63 258.48,-40.4" fill="none" stroke="black"/>
<polygon fill="black" points="259.74,-43.23 267.48,-35.99 256.92,-36.82 259.74,-43.23" stroke="black"/>
</g>
<!-- B -->
<g class="node" id="node2"><a xlink:href="https://mindset.umc.edu/blsa-explore-me/index.html?search=FHfeJ5SyP0"><title>B</title><ellipse cx="466.08" cy="-90" fill="#a0ced9" rx="152.18" ry="18" stroke="black"/><text font-family="Times,serif" font-size="14.00" text-anchor="middle" x="466.08" y="-84.95">OC::BLSA_General_Interview::pf19a</text></a></g>
<!-- B&#45;&gt;C -->
<g class="edge" id="edge2">
<title>B-&gt;C</title>
<path d="M428,-72.23C406.31,-62.69 378.92,-50.63 355.69,-40.4" fill="none" stroke="black"/>
<polygon fill="black" points="357.25,-36.82 346.68,-35.99 354.43,-43.23 357.25,-36.82" stroke="black"/>
</g>
</g>
</svg>