<?xml version="1.0" encoding="utf-8"?>
<!DOCTYPE svg PUBLIC "-//W3C//DTD SVG 1.1//EN" "http://www.w3.org/Graphics/SVG/1.1/DTD/svg11.dtd">
<!-- Generated by graphviz version 8.1.0 (20230707.0739)
 --><!-- Pages: 1 --><svg height="188pt" viewBox="0.00 0.00 2529.02 188.00" width="2529pt" xmlns="http://www.w3.org/2000/svg" xmlns:xlink="http://www.w3.org/1999/xlink">
<g class="graph" id="graph0" transform="scale(1 1) rotate(0) translate(4 184)">
<polygon fill="white" points="-4,4 -4,-184 2525.02,-184 2525.02,4 -4,4" stroke="none"/>
<!-- A -->
<g class="node" id="node1"><a xlink:href="https://mindset.umc.edu/blsa-explore-me/index.html?search=WY9gZGN87t"><title>A</title><ellipse cx="210.01" cy="-90" fill="#a0ced9" rx="210.01" ry="18" stroke="black"/><text font-family="Times,serif" font-size="14.00" text-anchor="middle" x="210.01" y="-84.95">OC::BLSA_Long_Distance_Corridor_Walk::ldcw45a</text></a></g>
<!-- I -->
<g class="node" id="node9"><a xlink:href="https://mindset.umc.edu/blsa-explore-me/index.html?search=iXe3CJ3001XL"><title>I</title><ellipse cx="1213.01" cy="-18" fill="#ffc09f" rx="161.9" ry="18" stroke="black"/><text font-family="Times,serif" font-size="14.00" text-anchor="middle" x="1213.01" y="-12.95">Derived::der_physicalfunction::did400m</text></a></g>
<!-- A&#45;&gt;I -->
<g class="edge" id="edge1">
<title>A-&gt;I</title>
<path d="M360.79,-77.1C383.65,-75.35 406.95,-73.6 429.01,-72 650.64,-55.91 907.62,-38.84 1065.25,-28.55" fill="none" stroke="black"/>
<polygon fill="black" points="1065.21,-31.99 1074.96,-27.85 1064.75,-25.01 1065.21,-31.99" stroke="black"/>
</g>
<!-- B -->
<g class="node" id="node2"><a xlink:href="https://mindset.umc.edu/blsa-explore-me/index.html?search=ahvYZIfwq4"><title>B</title><ellipse cx="649.01" cy="-90" fill="#a0ced9" rx="210.52" ry="18" stroke="black"/><text font-family="Times,serif" font-size="14.00" text-anchor="middle" x="649.01" y="-84.95">OC::BLSA_Long_Distance_Corridor_Walk::ldcw45b</text></a></g>
<!-- B&#45;&gt;I -->
<g class="edge" id="edge2">
<title>B-&gt;I</title>
<path d="M765.19,-74.58C862.32,-62.53 1000.16,-45.42 1097.19,-33.38" fill="none" stroke="black"/>
<polygon fill="black" points="1097.43,-36.75 1106.92,-32.04 1096.57,-29.8 1097.43,-36.75" stroke="black"/>
</g>
<!-- C -->
<g class="node" id="node3"><a xlink:href="https://mindset.umc.edu/blsa-explore-me/index.html?search=bXpNmW486Mxv"><title>C</title><ellipse cx="1031.01" cy="-90" fill="#a0ced9" rx="153.71" ry="18" stroke="black"/><text font-family="Times,serif" font-size="14.00" text-anchor="middle" x="1031.01" y="-84.95">Derived::der_physicalfunction::uw150</text></a></g>
<!-- C&#45;&gt;I -->
<g class="edge" id="edge3">
<title>C-&gt;I</title>
<path d="M1074.14,-72.41C1099.68,-62.59 1132.25,-50.06 1159.43,-39.61" fill="none" stroke="black"/>
<polygon fill="black" points="1160.48,-42.57 1168.56,-35.71 1157.97,-36.04 1160.48,-42.57" stroke="black"/>
</g>
<!-- D -->
<g class="node" id="node4"><a xlink:href="https://mindset.umc.edu/blsa-explore-me/index.html?search=iTxGzluK1O"><title>D</title><ellipse cx="1447.01" cy="-90" fill="#a0ced9" rx="205.92" ry="18" stroke="black"/><text font-family="Times,serif" font-size="14.00" text-anchor="middle" x="1447.01" y="-84.95">OC::BLSA_Long_Distance_Corridor_Walk::ldcw45</text></a></g>
<!-- D&#45;&gt;I -->
<g class="edge" id="edge4">
<title>D-&gt;I</title>
<path d="M1390.96,-72.23C1357,-62.07 1313.53,-49.07 1278.05,-38.46" fill="none" stroke="black"/>
<polygon fill="black" points="1279.38,-34.9 1268.8,-35.39 1277.37,-41.61 1279.38,-34.9" stroke="black"/>
</g>
<!-- E -->
<g class="node" id="node5"><a xlink:href="https://mindset.umc.edu/blsa-explore-me/index.html?search=PqEWnvdkij"><title>E</title><ellipse cx="1877.01" cy="-90" fill="#a0ced9" rx="205.92" ry="18" stroke="black"/><text font-family="Times,serif" font-size="14.00" text-anchor="middle" x="1877.01" y="-84.95">OC::BLSA_Long_Distance_Corridor_Walk::ldcw47</text></a></g>
<!-- E&#45;&gt;I -->
<g class="edge" id="edge5">
<title>E-&gt;I</title>
<path d="M1748.99,-75.5C1630.67,-63.03 1455.93,-44.61 1338.45,-32.22" fill="none" stroke="black"/>
<polygon fill="black" points="1338.93,-28.65 1328.62,-31.08 1338.2,-35.61 1338.93,-28.65" stroke="black"/>
</g>
<!-- F -->
<g class="node" id="node6"><a xlink:href="https://mindset.umc.edu/blsa-explore-me/index.html?search=I0p197cuxj"><title>F</title><ellipse cx="769.01" cy="-162" fill="#a0ced9" rx="215.13" ry="18" stroke="black"/><text font-family="Times,serif" font-size="14.00" text-anchor="middle" x="769.01" y="-156.95">OC::BLSA_Long_Distance_Corridor_Walk::mdcw27a</text></a></g>
<!-- F&#45;&gt;C -->
<g class="edge" id="edge6">
<title>F-&gt;C</title>
<path d="M831.43,-144.32C870.34,-133.93 920.48,-120.53 960.77,-109.77" fill="none" stroke="black"/>
<polygon fill="black" points="961.56,-112.91 970.32,-106.95 959.75,-106.15 961.56,-112.91" stroke="black"/>
</g>
<!-- G -->
<g class="node" id="node7"><a xlink:href="https://mindset.umc.edu/blsa-explore-me/index.html?search=hAzGbC5Kzp"><title>G</title><ellipse cx="2311.01" cy="-90" fill="#a0ced9" rx="210.01" ry="18" stroke="black"/><text font-family="Times,serif" font-size="14.00" text-anchor="middle" x="2311.01" y="-84.95">OC::BLSA_Long_Distance_Corridor_Walk::ldcw47a</text></a></g>
<!-- G&#45;&gt;I -->
<g class="edge" id="edge7">
<title>G-&gt;I</title>
<path d="M2161.13,-77.02C2137.99,-75.27 2114.36,-73.54 2092.01,-72 1837.67,-54.46 1541.71,-37.28 1366.27,-27.44" fill="none" stroke="black"/>
<polygon fill="black" points="1366.59,-23.89 1356.41,-26.83 1366.2,-30.88 1366.59,-23.89" stroke="black"/>
</g>
<!-- H -->
<g class="node" id="node8"><a xlink:href="https://mindset.umc.edu/blsa-explore-me/index.html?search=m3psxOCWNa"><title>H</title><ellipse cx="1213.01" cy="-162" fill="#a0ced9" rx="211.04" ry="18" stroke="black"/><text font-family="Times,serif" font-size="14.00" text-anchor="middle" x="1213.01" y="-156.95">OC::BLSA_Long_Distance_Corridor_Walk::mdcw27</text></a></g>
<!-- H&#45;&gt;C -->
<g class="edge" id="edge8">
<title>H-&gt;C</title>
<path d="M1168.95,-144.05C1143.49,-134.26 1111.27,-121.87 1084.37,-111.52" fill="none" stroke="black"/>
<polygon fill="black" points="1085.94,-107.99 1075.35,-107.67 1083.43,-114.52 1085.94,-107.99" stroke="black"/>
</g>
<!-- H&#45;&gt;I -->
<g class="edge" id="edge9">
<title>H-&gt;I</title>
<path d="M1213.01,-143.59C1213.01,-119.5 1213.01,-75.75 1213.01,-47.03" fill="none" stroke="black"/>
<polygon fill="black" points="1216.51,-47.11 1213.01,-37.11 1209.51,-47.11 1216.51,-47.11" stroke="black"/>
</g>
</g>
</svg>