<?xml version="1.0" encoding="utf-8"?>
<!DOCTYPE svg PUBLIC "-//W3C//DTD SVG 1.1//EN" "http://www.w3.org/Graphics/SVG/1.1/DTD/svg11.dtd">
<!-- Generated by graphviz version 8.1.0 (20230707.0739)
 --><!-- Pages: 1 --><svg height="188pt" viewBox="0.00 0.00 10262.65 188.00" width="10263pt" xmlns="http://www.w3.org/2000/svg" xmlns:xlink="http://www.w3.org/1999/xlink">
<g class="graph" id="graph0" transform="scale(1 1) rotate(0) translate(4 184)">
<polygon fill="white" points="-4,4 -4,-184 10258.65,-184 10258.65,4 -4,4" stroke="none"/>
<!-- A -->
<g class="node" id="node1"><a xlink:href="https://mindset.umc.edu/blsa-explore-me/index.html?search=D4L95Jznjt"><title>A</title><ellipse cx="213.59" cy="-162" fill="#a0ced9" rx="213.59" ry="18" stroke="black"/><text font-family="Times,serif" font-size="14.00" text-anchor="middle" x="213.59" y="-156.95">OC::BLSA_Long_Distance_Corridor_Walk::ldcw41as</text></a></g>
<!-- G -->
<g class="node" id="node7"><a xlink:href="https://mindset.umc.edu/blsa-explore-me/index.html?search=M4u8z5uCz464"><title>G</title><ellipse cx="5136.59" cy="-90" fill="#ffc09f" rx="161.9" ry="18" stroke="black"/><text font-family="Times,serif" font-size="14.00" text-anchor="middle" x="5136.59" y="-84.95">Derived::der_physicalfunction::c400secs</text></a></g>
<!-- A&#45;&gt;G -->
<g class="edge" id="edge1">
<title>A-&gt;G</title>
<path d="M359.5,-148.47C384.85,-146.68 410.98,-145.08 435.59,-144 1343.15,-104.18 4226.74,-93.54 4963.75,-91.44" fill="none" stroke="black"/>
<polygon fill="black" points="4963.72,-94.93 4973.71,-91.41 4963.7,-87.93 4963.72,-94.93" stroke="black"/>
</g>
<!-- B -->
<g class="node" id="node2"><a xlink:href="https://mindset.umc.edu/blsa-explore-me/index.html?search=yzBcSD59jr"><title>B</title><ellipse cx="657.59" cy="-162" fill="#a0ced9" rx="212.57" ry="18" stroke="black"/><text font-family="Times,serif" font-size="14.00" text-anchor="middle" x="657.59" y="-156.95">OC::BLSA_Long_Distance_Corridor_Walk::ldcw41fs</text></a></g>
<!-- B&#45;&gt;G -->
<g class="edge" id="edge2">
<title>B-&gt;G</title>
<path d="M803.2,-148.51C828.65,-146.71 854.88,-145.1 879.59,-144 1695.02,-107.74 4272.11,-94.6 4964.13,-91.67" fill="none" stroke="black"/>
<polygon fill="black" points="4963.94,-95.17 4973.93,-91.63 4963.91,-88.17 4963.94,-95.17" stroke="black"/>
</g>
<!-- C -->
<g class="node" id="node3"><a xlink:href="https://mindset.umc.edu/blsa-explore-me/index.html?search=rwigSuprSZ"><title>C</title><ellipse cx="1102.59" cy="-162" fill="#a0ced9" rx="214.11" ry="18" stroke="black"/><text font-family="Times,serif" font-size="14.00" text-anchor="middle" x="1102.59" y="-156.95">OC::BLSA_Long_Distance_Corridor_Walk::ldcw41bs</text></a></g>
<!-- C&#45;&gt;G -->
<g class="edge" id="edge3">
<title>C-&gt;G</title>
<path d="M1249.16,-148.52C1274.63,-146.73 1300.87,-145.11 1325.59,-144 2048.74,-111.44 4319.58,-95.82 4964.34,-91.97" fill="none" stroke="black"/>
<polygon fill="black" points="4964.13,-95.47 4974.1,-91.91 4964.08,-88.47 4964.13,-95.47" stroke="black"/>
</g>
<!-- D -->
<g class="node" id="node4"><a xlink:href="https://mindset.umc.edu/blsa-explore-me/index.html?search=BW5uh8p38C"><title>D</title><ellipse cx="1548.59" cy="-162" fill="#a0ced9" rx="213.59" ry="18" stroke="black"/><text font-family="Times,serif" font-size="14.00" text-anchor="middle" x="1548.59" y="-156.95">OC::BLSA_Long_Distance_Corridor_Walk::ldcw41es</text></a></g>
<!-- D&#45;&gt;G -->
<g class="edge" id="edge4">
<title>D-&gt;G</title>
<path d="M1695.1,-148.52C1720.27,-146.73 1746.17,-145.13 1770.59,-144 2402.08,-114.88 4369.9,-97.13 4964.64,-92.33" fill="none" stroke="black"/>
<polygon fill="black" points="4964.47,-95.82 4974.44,-92.24 4964.41,-88.82 4964.47,-95.82" stroke="black"/>
</g>
<!-- E -->
<g class="node" id="node5"><a xlink:href="https://mindset.umc.edu/blsa-explore-me/index.html?search=umgyBmOJ2b"><title>E</title><ellipse cx="1997.59" cy="-162" fill="#a0ced9" rx="217.69" ry="18" stroke="black"/><text font-family="Times,serif" font-size="14.00" text-anchor="middle" x="1997.59" y="-156.95">OC::BLSA_Long_Distance_Corridor_Walk::ldcw41cm</text></a></g>
<!-- E&#45;&gt;G -->
<g class="edge" id="edge5">
<title>E-&gt;G</title>
<path d="M2147.41,-148.58C2173.14,-146.79 2199.63,-145.16 2224.59,-144 3263.59,-95.68 4513.03,-90.79 4963.87,-90.74" fill="none" stroke="black"/>
<polygon fill="black" points="4963.7,-94.24 4973.7,-90.74 4963.7,-87.24 4963.7,-94.24" stroke="black"/>
</g>
<!-- F -->
<g class="node" id="node6"><a xlink:href="https://mindset.umc.edu/blsa-explore-me/index.html?search=magGe8ri3s"><title>F</title><ellipse cx="2443.59" cy="-162" fill="#a0ced9" rx="210.01" ry="18" stroke="black"/><text font-family="Times,serif" font-size="14.00" text-anchor="middle" x="2443.59" y="-156.95">OC::BLSA_Long_Distance_Corridor_Walk::ldcw42a</text></a></g>
<!-- F&#45;&gt;G -->
<g class="edge" id="edge6">
<title>F-&gt;G</title>
<path d="M2588.42,-148.61C2613.15,-146.82 2638.6,-145.19 2662.59,-144 3526.04,-101.27 4560.68,-92.97 4963.88,-91.37" fill="none" stroke="black"/>
<polygon fill="black" points="4963.76,-94.87 4973.75,-91.33 4963.74,-87.87 4963.76,-94.87" stroke="black"/>
</g>
<!-- Q -->
<g class="node" id="node17"><a xlink:href="https://mindset.umc.edu/blsa-explore-me/index.html?search=mPdvn7rCw9"><title>Q</title><ellipse cx="5136.59" cy="-18" fill="#ffee93" rx="163.44" ry="18" stroke="black"/><text font-family="Times,serif" font-size="14.00" text-anchor="middle" x="5136.59" y="-12.95">Derived::der_physicalfunction::c400pace</text></a></g>
<!-- G&#45;&gt;Q -->
<g class="edge" id="edge7">
<title>G-&gt;Q</title>
<path d="M5136.59,-71.7C5136.59,-64.24 5136.59,-55.32 5136.59,-46.97" fill="none" stroke="black"/>
<polygon fill="black" points="5140.09,-47.1 5136.59,-37.1 5133.09,-47.1 5140.09,-47.1" stroke="black"/>
</g>
<!-- H -->
<g class="node" id="node8"><a xlink:href="https://mindset.umc.edu/blsa-explore-me/index.html?search=g2BFjISjcu"><title>H</title><ellipse cx="2889.59" cy="-162" fill="#a0ced9" rx="217.69" ry="18" stroke="black"/><text font-family="Times,serif" font-size="14.00" text-anchor="middle" x="2889.59" y="-156.95">OC::BLSA_Long_Distance_Corridor_Walk::ldcw41am</text></a></g>
<!-- H&#45;&gt;G -->
<g class="edge" id="edge8">
<title>H-&gt;G</title>
<path d="M3040.27,-148.64C3065.41,-146.87 3091.23,-145.24 3115.59,-144 3800.21,-109.3 4616.5,-96.7 4965.09,-92.67" fill="none" stroke="black"/>
<polygon fill="black" points="4965.07,-96.16 4975.03,-92.55 4964.99,-89.16 4965.07,-96.16" stroke="black"/>
</g>
<!-- I -->
<g class="node" id="node9"><a xlink:href="https://mindset.umc.edu/blsa-explore-me/index.html?search=nWNtbQ7BPG"><title>I</title><ellipse cx="3338.59" cy="-162" fill="#a0ced9" rx="213.59" ry="18" stroke="black"/><text font-family="Times,serif" font-size="14.00" text-anchor="middle" x="3338.59" y="-156.95">OC::BLSA_Long_Distance_Corridor_Walk::ldcw41cs</text></a></g>
<!-- I&#45;&gt;G -->
<g class="edge" id="edge9">
<title>I-&gt;G</title>
<path d="M3487.51,-148.71C3511.92,-146.95 3536.95,-145.3 3560.59,-144 4072.36,-115.81 4678.48,-100.51 4967.25,-94.32" fill="none" stroke="black"/>
<polygon fill="black" points="4967.31,-97.8 4977.23,-94.08 4967.16,-90.8 4967.31,-97.8" stroke="black"/>
</g>
<!-- J -->
<g class="node" id="node10"><a xlink:href="https://mindset.umc.edu/blsa-explore-me/index.html?search=akjI9yS6VC"><title>J</title><ellipse cx="3787.59" cy="-162" fill="#a0ced9" rx="217.69" ry="18" stroke="black"/><text font-family="Times,serif" font-size="14.00" text-anchor="middle" x="3787.59" y="-156.95">OC::BLSA_Long_Distance_Corridor_Walk::ldcw41em</text></a></g>
<!-- J&#45;&gt;G -->
<g class="edge" id="edge10">
<title>J-&gt;G</title>
<path d="M3941.04,-148.88C3965.31,-147.13 3990.13,-145.44 4013.59,-144 4355.57,-123.07 4756.57,-105.93 4974.86,-97.21" fill="none" stroke="black"/>
<polygon fill="black" points="4974.91,-100.68 4984.76,-96.78 4974.63,-93.68 4974.91,-100.68" stroke="black"/>
</g>
<!-- K -->
<g class="node" id="node11"><a xlink:href="https://mindset.umc.edu/blsa-explore-me/index.html?search=mXquUQvILN"><title>K</title><ellipse cx="4239.59" cy="-162" fill="#a0ced9" rx="216.67" ry="18" stroke="black"/><text font-family="Times,serif" font-size="14.00" text-anchor="middle" x="4239.59" y="-156.95">OC::BLSA_Long_Distance_Corridor_Walk::ldcw41fm</text></a></g>
<!-- K&#45;&gt;G -->
<g class="edge" id="edge11">
<title>K-&gt;G</title>
<path d="M4393.54,-148.99C4562.84,-135.77 4832.54,-114.73 4996.23,-101.95" fill="none" stroke="black"/>
<polygon fill="black" points="4996.16,-105.39 5005.85,-101.12 4995.61,-98.41 4996.16,-105.39" stroke="black"/>
</g>
<!-- L -->
<g class="node" id="node12"><a xlink:href="https://mindset.umc.edu/blsa-explore-me/index.html?search=jEUaK4RSBA"><title>L</title><ellipse cx="4688.59" cy="-162" fill="#a0ced9" rx="214.11" ry="18" stroke="black"/><text font-family="Times,serif" font-size="14.00" text-anchor="middle" x="4688.59" y="-156.95">OC::BLSA_Long_Distance_Corridor_Walk::ldcw41hs</text></a></g>
<!-- L&#45;&gt;G -->
<g class="edge" id="edge12">
<title>L-&gt;G</title>
<path d="M4787.19,-145.59C4860.61,-134.12 4960.55,-118.51 5034.74,-106.92" fill="none" stroke="black"/>
<polygon fill="black" points="5035.15,-110.24 5044.49,-105.24 5034.07,-103.32 5035.15,-110.24" stroke="black"/>
</g>
<!-- M -->
<g class="node" id="node13"><a xlink:href="https://mindset.umc.edu/blsa-explore-me/index.html?search=L9XaDd1JCZ"><title>M</title><ellipse cx="5136.59" cy="-162" fill="#a0ced9" rx="216.15" ry="18" stroke="black"/><text font-family="Times,serif" font-size="14.00" text-anchor="middle" x="5136.59" y="-156.95">OC::BLSA_Long_Distance_Corridor_Walk::ldcw41im</text></a></g>
<!-- M&#45;&gt;G -->
<g class="edge" id="edge13">
<title>M-&gt;G</title>
<path d="M5136.59,-143.7C5136.59,-136.24 5136.59,-127.32 5136.59,-118.97" fill="none" stroke="black"/>
<polygon fill="black" points="5140.09,-119.1 5136.59,-109.1 5133.09,-119.1 5140.09,-119.1" stroke="black"/>
</g>
<!-- N -->
<g class="node" id="node14"><a xlink:href="https://mindset.umc.edu/blsa-explore-me/index.html?search=D6BouXMb5Y"><title>N</title><ellipse cx="5588.59" cy="-162" fill="#a0ced9" rx="218.2" ry="18" stroke="black"/><text font-family="Times,serif" font-size="14.00" text-anchor="middle" x="5588.59" y="-156.95">OC::BLSA_Long_Distance_Corridor_Walk::ldcw41hm</text></a></g>
<!-- N&#45;&gt;G -->
<g class="edge" id="edge14">
<title>N-&gt;G</title>
<path d="M5488.84,-145.55C5414.75,-134.08 5314.01,-118.48 5239.24,-106.9" fill="none" stroke="black"/>
<polygon fill="black" points="5239.82,-103.29 5229.4,-105.22 5238.75,-110.21 5239.82,-103.29" stroke="black"/>
</g>
<!-- O -->
<g class="node" id="node15"><a xlink:href="https://mindset.umc.edu/blsa-explore-me/index.html?search=efa15yYWsK"><title>O</title><ellipse cx="6030.59" cy="-162" fill="#a0ced9" rx="205.92" ry="18" stroke="black"/><text font-family="Times,serif" font-size="14.00" text-anchor="middle" x="6030.59" y="-156.95">OC::BLSA_Long_Distance_Corridor_Walk::ldcw42</text></a></g>
<!-- O&#45;&gt;G -->
<g class="edge" id="edge15">
<title>O-&gt;G</title>
<path d="M5881.69,-149.21C5859.53,-147.46 5836.96,-145.68 5815.59,-144 5629.34,-129.37 5414.33,-112.61 5277.02,-101.92" fill="none" stroke="black"/>
<polygon fill="black" points="5277.69,-98.38 5267.45,-101.1 5277.15,-105.36 5277.69,-98.38" stroke="black"/>
</g>
<!-- P -->
<g class="node" id="node16"><a xlink:href="https://mindset.umc.edu/blsa-explore-me/index.html?search=bpHTSulDIu"><title>P</title><ellipse cx="6470.59" cy="-162" fill="#a0ced9" rx="216.15" ry="18" stroke="black"/><text font-family="Times,serif" font-size="14.00" text-anchor="middle" x="6470.59" y="-156.95">OC::BLSA_Long_Distance_Corridor_Walk::ldcw41jm</text></a></g>
<!-- P&#45;&gt;G -->
<g class="edge" id="edge16">
<title>P-&gt;G</title>
<path d="M6317.83,-148.89C6293.67,-147.13 6268.96,-145.44 6245.59,-144 5908.59,-123.22 5513.55,-106.06 5297.67,-97.3" fill="none" stroke="black"/>
<polygon fill="black" points="5298.03,-93.77 5287.89,-96.86 5297.74,-100.77 5298.03,-93.77" stroke="black"/>
</g>
<!-- R -->
<g class="node" id="node18"><a xlink:href="https://mindset.umc.edu/blsa-explore-me/index.html?search=ARdAruCf3Y"><title>R</title><ellipse cx="6918.59" cy="-162" fill="#a0ced9" rx="214.11" ry="18" stroke="black"/><text font-family="Times,serif" font-size="14.00" text-anchor="middle" x="6918.59" y="-156.95">OC::BLSA_Long_Distance_Corridor_Walk::ldcw41ds</text></a></g>
<!-- R&#45;&gt;G -->
<g class="edge" id="edge17">
<title>R-&gt;G</title>
<path d="M6769.31,-148.75C6744.69,-146.98 6719.44,-145.31 6695.59,-144 6190.18,-116.16 5591.74,-100.72 5305.53,-94.41" fill="none" stroke="black"/>
<polygon fill="black" points="5305.72,-90.89 5295.64,-94.17 5305.56,-97.89 5305.72,-90.89" stroke="black"/>
</g>
<!-- S -->
<g class="node" id="node19"><a xlink:href="https://mindset.umc.edu/blsa-explore-me/index.html?search=CA8ATlb89B"><title>S</title><ellipse cx="7368.59" cy="-162" fill="#a0ced9" rx="218.2" ry="18" stroke="black"/><text font-family="Times,serif" font-size="14.00" text-anchor="middle" x="7368.59" y="-156.95">OC::BLSA_Long_Distance_Corridor_Walk::ldcw41gm</text></a></g>
<!-- S&#45;&gt;G -->
<g class="edge" id="edge18">
<title>S-&gt;G</title>
<path d="M7217.55,-148.66C7192.21,-146.89 7166.16,-145.24 7141.59,-144 6463.26,-109.65 5654.62,-96.88 5308.05,-92.74" fill="none" stroke="black"/>
<polygon fill="black" points="5308.22,-89.23 5298.18,-92.61 5308.14,-96.23 5308.22,-89.23" stroke="black"/>
</g>
<!-- T -->
<g class="node" id="node20"><a xlink:href="https://mindset.umc.edu/blsa-explore-me/index.html?search=iTxGzluK1O"><title>T</title><ellipse cx="7810.59" cy="-162" fill="#a0ced9" rx="205.92" ry="18" stroke="black"/><text font-family="Times,serif" font-size="14.00" text-anchor="middle" x="7810.59" y="-156.95">OC::BLSA_Long_Distance_Corridor_Walk::ldcw45</text></a></g>
<!-- T&#45;&gt;G -->
<g class="edge" id="edge19">
<title>T-&gt;G</title>
<path d="M7668.42,-148.6C7644.14,-146.82 7619.15,-145.18 7595.59,-144 6738.21,-100.9 5710.93,-92.81 5309.38,-91.32" fill="none" stroke="black"/>
<polygon fill="black" points="5309.56,-87.82 5299.55,-91.28 5309.54,-94.82 5309.56,-87.82" stroke="black"/>
</g>
<!-- U -->
<g class="node" id="node21"><a xlink:href="https://mindset.umc.edu/blsa-explore-me/index.html?search=n7GedHu7ju"><title>U</title><ellipse cx="8252.59" cy="-162" fill="#a0ced9" rx="218.2" ry="18" stroke="black"/><text font-family="Times,serif" font-size="14.00" text-anchor="middle" x="8252.59" y="-156.95">OC::BLSA_Long_Distance_Corridor_Walk::ldcw41dm</text></a></g>
<!-- U&#45;&gt;G -->
<g class="edge" id="edge20">
<title>U-&gt;G</title>
<path d="M8102.48,-148.56C8076.84,-146.78 8050.47,-145.16 8025.59,-144 6996.05,-96.04 5758.22,-90.93 5309.58,-90.77" fill="none" stroke="black"/>
<polygon fill="black" points="5309.8,-87.27 5299.8,-90.77 5309.8,-94.27 5309.8,-87.27" stroke="black"/>
</g>
<!-- V -->
<g class="node" id="node22"><a xlink:href="https://mindset.umc.edu/blsa-explore-me/index.html?search=S4HnAHd9D3"><title>V</title><ellipse cx="8706.59" cy="-162" fill="#a0ced9" rx="218.2" ry="18" stroke="black"/><text font-family="Times,serif" font-size="14.00" text-anchor="middle" x="8706.59" y="-156.95">OC::BLSA_Long_Distance_Corridor_Walk::ldcw41bm</text></a></g>
<!-- V&#45;&gt;G -->
<g class="edge" id="edge21">
<title>V-&gt;G</title>
<path d="M8556.79,-148.53C8531.05,-146.74 8504.57,-145.13 8479.59,-144 7852.67,-115.58 5899.73,-97.36 5308.14,-92.38" fill="none" stroke="black"/>
<polygon fill="black" points="5308.42,-88.88 5298.4,-92.29 5308.37,-95.88 5308.42,-88.88" stroke="black"/>
</g>
<!-- W -->
<g class="node" id="node23"><a xlink:href="https://mindset.umc.edu/blsa-explore-me/index.html?search=jiEAJogWvE"><title>W</title><ellipse cx="9154.59" cy="-162" fill="#a0ced9" rx="212.06" ry="18" stroke="black"/><text font-family="Times,serif" font-size="14.00" text-anchor="middle" x="9154.59" y="-156.95">OC::BLSA_Long_Distance_Corridor_Walk::ldcw41is</text></a></g>
<!-- W&#45;&gt;G -->
<g class="edge" id="edge22">
<title>W-&gt;G</title>
<path d="M9009.35,-148.52C8984.11,-146.73 8958.1,-145.11 8933.59,-144 8213.32,-111.3 5951.9,-95.79 5308.77,-91.96" fill="none" stroke="black"/>
<polygon fill="black" points="5309.05,-88.46 5299.03,-91.9 5309.01,-95.46 5309.05,-88.46" stroke="black"/>
</g>
<!-- X -->
<g class="node" id="node24"><a xlink:href="https://mindset.umc.edu/blsa-explore-me/index.html?search=lPAEg3qKqL"><title>X</title><ellipse cx="9598.59" cy="-162" fill="#a0ced9" rx="214.11" ry="18" stroke="black"/><text font-family="Times,serif" font-size="14.00" text-anchor="middle" x="9598.59" y="-156.95">OC::BLSA_Long_Distance_Corridor_Walk::ldcw41gs</text></a></g>
<!-- X&#45;&gt;G -->
<g class="edge" id="edge23">
<title>X-&gt;G</title>
<path d="M9452.03,-148.49C9426.56,-146.7 9400.32,-145.1 9375.59,-144 8563.84,-108.02 5998.86,-94.68 5308.91,-91.69" fill="none" stroke="black"/>
<polygon fill="black" points="5309.16,-88.19 5299.15,-91.64 5309.13,-95.19 5309.16,-88.19" stroke="black"/>
</g>
<!-- Y -->
<g class="node" id="node25"><a xlink:href="https://mindset.umc.edu/blsa-explore-me/index.html?search=j2FEhHex19"><title>Y</title><ellipse cx="10042.59" cy="-162" fill="#a0ced9" rx="212.06" ry="18" stroke="black"/><text font-family="Times,serif" font-size="14.00" text-anchor="middle" x="10042.59" y="-156.95">OC::BLSA_Long_Distance_Corridor_Walk::ldcw41js</text></a></g>
<!-- Y&#45;&gt;G -->
<g class="edge" id="edge24">
<title>Y-&gt;G</title>
<path d="M9897.65,-148.49C9872.31,-146.69 9846.2,-145.08 9821.59,-144 8917.27,-104.15 6044.16,-93.53 5309.16,-91.44" fill="none" stroke="black"/>
<polygon fill="black" points="5309.24,-87.93 5299.23,-91.41 5309.22,-94.93 5309.24,-87.93" stroke="black"/>
</g>
</g>
</svg>