<?xml version="1.0" encoding="utf-8"?>
<!DOCTYPE svg PUBLIC "-//W3C//DTD SVG 1.1//EN" "http://www.w3.org/Graphics/SVG/1.1/DTD/svg11.dtd">
<!-- Generated by graphviz version 8.1.0 (20230707.0739)
 --><!-- Pages: 1 --><svg height="188pt" viewBox="0.00 0.00 635.87 188.00" width="636pt" xmlns="http://www.w3.org/2000/svg" xmlns:xlink="http://www.w3.org/1999/xlink">
<g class="graph" id="graph0" transform="scale(1 1) rotate(0) translate(4 184)">
<polygon fill="white" points="-4,4 -4,-184 631.87,-184 631.87,4 -4,4" stroke="none"/>
<!-- A -->
<g class="node" id="node1"><a xlink:href="https://mindset.umc.edu/blsa-explore-me/index.html?search=s4W7eWQ5H0"><title>A</title><ellipse cx="152.18" cy="-162" fill="#a0ced9" rx="152.18" ry="18" stroke="black"/><text font-family="Times,serif" font-size="14.00" text-anchor="middle" x="152.18" y="-156.95">OC::BLSA_General_Interview::pf02a</text></a></g>
<!-- C -->
<g class="node" id="node3"><a xlink:href="https://mindset.umc.edu/blsa-explore-me/index.html?search=eYd9xu67rp24"><title>C</title><ellipse cx="313.18" cy="-90" fill="#ffc09f" rx="157.3" ry="18" stroke="black"/><text font-family="Times,serif" font-size="14.00" text-anchor="middle" x="313.18" y="-84.95">Derived::der_physicalfunction::stairs10</text></a></g>
<!-- A&#45;&gt;C -->
<g class="edge" id="edge1">
<title>A-&gt;C</title>
<path d="M190.74,-144.23C212.88,-134.61 240.89,-122.43 264.54,-112.15" fill="none" stroke="black"/>
<polygon fill="black" points="265.6,-115.07 273.37,-107.87 262.8,-108.65 265.6,-115.07" stroke="black"/>
</g>
<!-- B -->
<g class="node" id="node2"><a xlink:href="https://mindset.umc.edu/blsa-explore-me/index.html?search=n8UdU15321q9"><title>B</title><ellipse cx="313.18" cy="-18" fill="#ffee93" rx="155.25" ry="18" stroke="black"/><text font-family="Times,serif" font-size="14.00" text-anchor="middle" x="313.18" y="-12.95">Derived::der_physicalfunction::stindex</text></a></g>
<!-- C&#45;&gt;B -->
<g class="edge" id="edge2">
<title>C-&gt;B</title>
<path d="M313.18,-71.7C313.18,-64.24 313.18,-55.32 313.18,-46.97" fill="none" stroke="black"/>
<polygon fill="black" points="316.68,-47.1 313.18,-37.1 309.68,-47.1 316.68,-47.1" stroke="black"/>
</g>
<!-- D -->
<g class="node" id="node4"><a xlink:href="https://mindset.umc.edu/blsa-explore-me/index.html?search=ipXo3DpZ6X"><title>D</title><ellipse cx="475.18" cy="-162" fill="#a0ced9" rx="152.69" ry="18" stroke="black"/><text font-family="Times,serif" font-size="14.00" text-anchor="middle" x="475.18" y="-156.95">OC::BLSA_General_Interview::pf02b</text></a></g>
<!-- D&#45;&gt;C -->
<g class="edge" id="edge3">
<title>D-&gt;C</title>
<path d="M436.37,-144.23C414.1,-134.61 385.91,-122.43 362.12,-112.15" fill="none" stroke="black"/>
<polygon fill="black" points="363.79,-108.63 353.23,-107.87 361.02,-115.05 363.79,-108.63" stroke="black"/>
</g>
</g>
</svg>