<?xml version="1.0" encoding="utf-8"?>
<!DOCTYPE svg PUBLIC "-//W3C//DTD SVG 1.1//EN" "http://www.w3.org/Graphics/SVG/1.1/DTD/svg11.dtd">
<!-- Generated by graphviz version 8.1.0 (20230707.0739)
 --><!-- Pages: 1 --><svg height="188pt" viewBox="0.00 0.00 329.76 188.00" width="330pt" xmlns="http://www.w3.org/2000/svg" xmlns:xlink="http://www.w3.org/1999/xlink">
<g class="graph" id="graph0" transform="scale(1 1) rotate(0) translate(4 184)">
<polygon fill="white" points="-4,4 -4,-184 325.76,-184 325.76,4 -4,4" stroke="none"/>
<!-- A -->
<g class="node" id="node1"><a xlink:href="https://mindset.umc.edu/blsa-explore-me/index.html?search=XqD265yVCyme"><title>A</title><ellipse cx="160.88" cy="-18" fill="#ffc09f" rx="160.88" ry="18" stroke="black"/><text font-family="Times,serif" font-size="14.00" text-anchor="middle" x="160.88" y="-12.95">Derived::der_cohort::yearsfromprevvisit</text></a></g>
<!-- B -->
<g class="node" id="node2"><a xlink:href="https://mindset.umc.edu/blsa-explore-me/index.html?search=AalmVrpsJs"><title>B</title><ellipse cx="160.88" cy="-162" fill="#a0ced9" rx="101.51" ry="18" stroke="black"/><text font-family="Times,serif" font-size="14.00" text-anchor="middle" x="160.88" y="-156.95">Cohort::cohort::visitdate</text></a></g>
<!-- C -->
<g class="node" id="node3"><a xlink:href="https://mindset.umc.edu/blsa-explore-me/index.html?search=yc3wBExI755f"><title>C</title><ellipse cx="160.88" cy="-90" fill="#a0ced9" rx="121.98" ry="18" stroke="black"/><text font-family="Times,serif" font-size="14.00" text-anchor="middle" x="160.88" y="-84.95">Derived::der_cohort::visitdate</text></a></g>
<!-- B&#45;&gt;C -->
<g class="edge" id="edge1">
<title>B-&gt;C</title>
<path d="M160.88,-143.7C160.88,-136.24 160.88,-127.32 160.88,-118.97" fill="none" stroke="black"/>
<polygon fill="black" points="164.38,-119.1 160.88,-109.1 157.38,-119.1 164.38,-119.1" stroke="black"/>
</g>
<!-- C&#45;&gt;A -->
<g class="edge" id="edge2">
<title>C-&gt;A</title>
<path d="M160.88,-71.7C160.88,-64.24 160.88,-55.32 160.88,-46.97" fill="none" stroke="black"/>
<polygon fill="black" points="164.38,-47.1 160.88,-37.1 157.38,-47.1 164.38,-47.1" stroke="black"/>
</g>
</g>
</svg>