<?xml version="1.0" encoding="utf-8"?>
<!DOCTYPE svg PUBLIC "-//W3C//DTD SVG 1.1//EN" "http://www.w3.org/Graphics/SVG/1.1/DTD/svg11.dtd">
<!-- Generated by graphviz version 8.1.0 (20230707.0739)
 --><!-- Pages: 1 --><svg height="260pt" viewBox="0.00 0.00 1475.07 260.00" width="1475pt" xmlns="http://www.w3.org/2000/svg" xmlns:xlink="http://www.w3.org/1999/xlink">
<g class="graph" id="graph0" transform="scale(1 1) rotate(0) translate(4 256)">
<polygon fill="white" points="-4,4 -4,-256 1471.07,-256 1471.07,4 -4,4" stroke="none"/>
<!-- A -->
<g class="node" id="node1"><a xlink:href="https://mindset.umc.edu/blsa-explore-me/index.html?search=oMZDbqVsWe"><title>A</title><ellipse cx="211.04" cy="-162" fill="#a0ced9" rx="211.04" ry="18" stroke="black"/><text font-family="Times,serif" font-size="14.00" text-anchor="middle" x="211.04" y="-156.95">OC::BLSA_Long_Distance_Corridor_Walk::mdcw24</text></a></g>
<!-- B -->
<g class="node" id="node2"><a xlink:href="https://mindset.umc.edu/blsa-explore-me/index.html?search=CTHDzDgRRwdR"><title>B</title><ellipse cx="739.04" cy="-90" fill="#ffc09f" rx="178.79" ry="18" stroke="black"/><text font-family="Times,serif" font-size="14.00" text-anchor="middle" x="739.04" y="-84.95">Derived::der_physicalfunction::uw150meters</text></a></g>
<!-- A&#45;&gt;B -->
<g class="edge" id="edge1">
<title>A-&gt;B</title>
<path d="M322.04,-146.28C410.4,-134.57 533.68,-118.23 623.27,-106.35" fill="none" stroke="black"/>
<polygon fill="black" points="623.57,-109.71 633.02,-104.92 622.65,-102.77 623.57,-109.71" stroke="black"/>
</g>
<!-- E -->
<g class="node" id="node5"><a xlink:href="https://mindset.umc.edu/blsa-explore-me/index.html?search=W1c64F4Vu23H"><title>E</title><ellipse cx="842.04" cy="-18" fill="#ffee93" rx="170.6" ry="18" stroke="black"/><text font-family="Times,serif" font-size="14.00" text-anchor="middle" x="842.04" y="-12.95">Derived::der_physicalfunction::uw150pace</text></a></g>
<!-- B&#45;&gt;E -->
<g class="edge" id="edge2">
<title>B-&gt;E</title>
<path d="M764.5,-71.7C777.59,-62.8 793.74,-51.82 807.9,-42.2" fill="none" stroke="black"/>
<polygon fill="black" points="809.56,-44.62 815.87,-36.1 805.63,-38.83 809.56,-44.62" stroke="black"/>
</g>
<!-- C -->
<g class="node" id="node3"><a xlink:href="https://mindset.umc.edu/blsa-explore-me/index.html?search=bXpNmW486Mxv"><title>C</title><ellipse cx="1034.04" cy="-162" fill="#a0ced9" rx="153.71" ry="18" stroke="black"/><text font-family="Times,serif" font-size="14.00" text-anchor="middle" x="1034.04" y="-156.95">Derived::der_physicalfunction::uw150</text></a></g>
<!-- C&#45;&gt;B -->
<g class="edge" id="edge3">
<title>C-&gt;B</title>
<path d="M968.2,-145.38C923.52,-134.78 864.25,-120.71 817.18,-109.54" fill="none" stroke="black"/>
<polygon fill="black" points="818.25,-105.96 807.72,-107.06 816.64,-112.77 818.25,-105.96" stroke="black"/>
</g>
<!-- C&#45;&gt;E -->
<g class="edge" id="edge4">
<title>C-&gt;E</title>
<path d="M1014.96,-143.77C994.03,-125.21 959.16,-95.21 927.04,-72 912.47,-61.47 895.81,-50.81 881.12,-41.83" fill="none" stroke="black"/>
<polygon fill="black" points="883.16,-38.37 872.79,-36.19 879.54,-44.36 883.16,-38.37" stroke="black"/>
</g>
<!-- D -->
<g class="node" id="node4"><a xlink:href="https://mindset.umc.edu/blsa-explore-me/index.html?search=I0p197cuxj"><title>D</title><ellipse cx="812.04" cy="-234" fill="#a0ced9" rx="215.13" ry="18" stroke="black"/><text font-family="Times,serif" font-size="14.00" text-anchor="middle" x="812.04" y="-228.95">OC::BLSA_Long_Distance_Corridor_Walk::mdcw27a</text></a></g>
<!-- D&#45;&gt;C -->
<g class="edge" id="edge5">
<title>D-&gt;C</title>
<path d="M865.49,-216.14C897.58,-206.03 938.54,-193.11 972.05,-182.55" fill="none" stroke="black"/>
<polygon fill="black" points="972.71,-185.69 981.19,-179.35 970.6,-179.02 972.71,-185.69" stroke="black"/>
</g>
<!-- F -->
<g class="node" id="node6"><a xlink:href="https://mindset.umc.edu/blsa-explore-me/index.html?search=m3psxOCWNa"><title>F</title><ellipse cx="1256.04" cy="-234" fill="#a0ced9" rx="211.04" ry="18" stroke="black"/><text font-family="Times,serif" font-size="14.00" text-anchor="middle" x="1256.04" y="-228.95">OC::BLSA_Long_Distance_Corridor_Walk::mdcw27</text></a></g>
<!-- F&#45;&gt;C -->
<g class="edge" id="edge6">
<title>F-&gt;C</title>
<path d="M1202.58,-216.14C1170.49,-206.03 1129.53,-193.11 1096.02,-182.55" fill="none" stroke="black"/>
<polygon fill="black" points="1097.47,-179.02 1086.88,-179.35 1095.37,-185.69 1097.47,-179.02" stroke="black"/>
</g>
<!-- G -->
<g class="node" id="node7"><a xlink:href="https://mindset.umc.edu/blsa-explore-me/index.html?search=rIb7BdFdrD"><title>G</title><ellipse cx="651.04" cy="-162" fill="#a0ced9" rx="211.04" ry="18" stroke="black"/><text font-family="Times,serif" font-size="14.00" text-anchor="middle" x="651.04" y="-156.95">OC::BLSA_Long_Distance_Corridor_Walk::mdcw25</text></a></g>
<!-- G&#45;&gt;B -->
<g class="edge" id="edge7">
<title>G-&gt;B</title>
<path d="M672.79,-143.7C683.68,-135.03 697.05,-124.4 708.91,-114.96" fill="none" stroke="black"/>
<polygon fill="black" points="710.58,-117.31 716.23,-108.35 706.22,-111.83 710.58,-117.31" stroke="black"/>
</g>
</g>
</svg>