<?xml version="1.0" encoding="utf-8"?>
<!DOCTYPE svg PUBLIC "-//W3C//DTD SVG 1.1//EN" "http://www.w3.org/Graphics/SVG/1.1/DTD/svg11.dtd">
<!-- Generated by graphviz version 8.1.0 (20230707.0739)
 --><!-- Pages: 1 --><svg height="188pt" viewBox="0.00 0.00 1595.38 188.00" width="1595pt" xmlns="http://www.w3.org/2000/svg" xmlns:xlink="http://www.w3.org/1999/xlink">
<g class="graph" id="graph0" transform="scale(1 1) rotate(0) translate(4 184)">
<polygon fill="white" points="-4,4 -4,-184 1591.38,-184 1591.38,4 -4,4" stroke="none"/>
<!-- A -->
<g class="node" id="node1"><a xlink:href="https://mindset.umc.edu/blsa-explore-me/index.html?search=Bz73ukXgV8"><title>A</title><ellipse cx="152.69" cy="-162" fill="#a0ced9" rx="152.69" ry="18" stroke="black"/><text font-family="Times,serif" font-size="14.00" text-anchor="middle" x="152.69" y="-156.95">OC::BLSA_General_Interview::pf02d</text></a></g>
<!-- F -->
<g class="node" id="node6"><a xlink:href="https://mindset.umc.edu/blsa-explore-me/index.html?search=ZT8NHF9OM9J8"><title>F</title><ellipse cx="625.69" cy="-90" fill="#a0ced9" rx="157.3" ry="18" stroke="black"/><text font-family="Times,serif" font-size="14.00" text-anchor="middle" x="625.69" y="-84.95">Derived::der_physicalfunction::stairs20</text></a></g>
<!-- A&#45;&gt;F -->
<g class="edge" id="edge1">
<title>A-&gt;F</title>
<path d="M245.29,-147.3C324.65,-135.55 438.88,-118.65 521.43,-106.43" fill="none" stroke="black"/>
<polygon fill="black" points="521.72,-109.78 531.1,-104.85 520.69,-102.85 521.72,-109.78" stroke="black"/>
</g>
<!-- B -->
<g class="node" id="node2"><a xlink:href="https://mindset.umc.edu/blsa-explore-me/index.html?search=doagRdnsv7"><title>B</title><ellipse cx="471.69" cy="-162" fill="#a0ced9" rx="148.08" ry="18" stroke="black"/><text font-family="Times,serif" font-size="14.00" text-anchor="middle" x="471.69" y="-156.95">OC::BLSA_General_Interview::pf02</text></a></g>
<!-- B&#45;&gt;F -->
<g class="edge" id="edge2">
<title>B-&gt;F</title>
<path d="M508.58,-144.23C529.57,-134.69 556.07,-122.64 578.56,-112.42" fill="none" stroke="black"/>
<polygon fill="black" points="579.91,-115.2 587.57,-107.87 577.02,-108.82 579.91,-115.2" stroke="black"/>
</g>
<!-- C -->
<g class="node" id="node3"><a xlink:href="https://mindset.umc.edu/blsa-explore-me/index.html?search=s4W7eWQ5H0"><title>C</title><ellipse cx="1111.69" cy="-162" fill="#a0ced9" rx="152.18" ry="18" stroke="black"/><text font-family="Times,serif" font-size="14.00" text-anchor="middle" x="1111.69" y="-156.95">OC::BLSA_General_Interview::pf02a</text></a></g>
<!-- G -->
<g class="node" id="node7"><a xlink:href="https://mindset.umc.edu/blsa-explore-me/index.html?search=eYd9xu67rp24"><title>G</title><ellipse cx="1111.69" cy="-90" fill="#a0ced9" rx="157.3" ry="18" stroke="black"/><text font-family="Times,serif" font-size="14.00" text-anchor="middle" x="1111.69" y="-84.95">Derived::der_physicalfunction::stairs10</text></a></g>
<!-- C&#45;&gt;G -->
<g class="edge" id="edge3">
<title>C-&gt;G</title>
<path d="M1111.69,-143.7C1111.69,-136.24 1111.69,-127.32 1111.69,-118.97" fill="none" stroke="black"/>
<polygon fill="black" points="1115.19,-119.1 1111.69,-109.1 1108.19,-119.1 1115.19,-119.1" stroke="black"/>
</g>
<!-- D -->
<g class="node" id="node4"><a xlink:href="https://mindset.umc.edu/blsa-explore-me/index.html?search=EuTFolnvbp"><title>D</title><ellipse cx="789.69" cy="-162" fill="#a0ced9" rx="152.18" ry="18" stroke="black"/><text font-family="Times,serif" font-size="14.00" text-anchor="middle" x="789.69" y="-156.95">OC::BLSA_General_Interview::pf02c</text></a></g>
<!-- D&#45;&gt;F -->
<g class="edge" id="edge4">
<title>D-&gt;F</title>
<path d="M750.41,-144.23C727.85,-134.61 699.32,-122.43 675.24,-112.15" fill="none" stroke="black"/>
<polygon fill="black" points="676.79,-108.58 666.22,-107.87 674.04,-115.02 676.79,-108.58" stroke="black"/>
</g>
<!-- E -->
<g class="node" id="node5"><a xlink:href="https://mindset.umc.edu/blsa-explore-me/index.html?search=n8UdU15321q9"><title>E</title><ellipse cx="791.69" cy="-18" fill="#ffc09f" rx="155.25" ry="18" stroke="black"/><text font-family="Times,serif" font-size="14.00" text-anchor="middle" x="791.69" y="-12.95">Derived::der_physicalfunction::stindex</text></a></g>
<!-- F&#45;&gt;E -->
<g class="edge" id="edge5">
<title>F-&gt;E</title>
<path d="M665.45,-72.23C688.38,-62.56 717.42,-50.32 741.86,-40.01" fill="none" stroke="black"/>
<polygon fill="black" points="742.82,-42.98 750.68,-35.87 740.1,-36.53 742.82,-42.98" stroke="black"/>
</g>
<!-- G&#45;&gt;E -->
<g class="edge" id="edge6">
<title>G-&gt;E</title>
<path d="M1041.07,-73.55C991.39,-62.68 924.79,-48.12 872.91,-36.77" fill="none" stroke="black"/>
<polygon fill="black" points="873.92,-33.19 863.41,-34.47 872.43,-40.03 873.92,-33.19" stroke="black"/>
</g>
<!-- H -->
<g class="node" id="node8"><a xlink:href="https://mindset.umc.edu/blsa-explore-me/index.html?search=ipXo3DpZ6X"><title>H</title><ellipse cx="1434.69" cy="-162" fill="#a0ced9" rx="152.69" ry="18" stroke="black"/><text font-family="Times,serif" font-size="14.00" text-anchor="middle" x="1434.69" y="-156.95">OC::BLSA_General_Interview::pf02b</text></a></g>
<!-- H&#45;&gt;G -->
<g class="edge" id="edge7">
<title>H-&gt;G</title>
<path d="M1363.81,-145.64C1313.6,-134.76 1246.11,-120.13 1193.6,-108.75" fill="none" stroke="black"/>
<polygon fill="black" points="1194.48,-105.14 1183.97,-106.45 1193,-111.99 1194.48,-105.14" stroke="black"/>
</g>
</g>
</svg>