<?xml version="1.0" encoding="utf-8"?>
<!DOCTYPE svg PUBLIC "-//W3C//DTD SVG 1.1//EN" "http://www.w3.org/Graphics/SVG/1.1/DTD/svg11.dtd">
<!-- Generated by graphviz version 8.1.0 (20230707.0739)
 --><!-- Pages: 1 --><svg height="188pt" viewBox="0.00 0.00 949.87 188.00" width="950pt" xmlns="http://www.w3.org/2000/svg" xmlns:xlink="http://www.w3.org/1999/xlink">
<g class="graph" id="graph0" transform="scale(1 1) rotate(0) translate(4 184)">
<polygon fill="white" points="-4,4 -4,-184 945.87,-184 945.87,4 -4,4" stroke="none"/>
<!-- A -->
<g class="node" id="node1"><a xlink:href="https://mindset.umc.edu/blsa-explore-me/index.html?search=Bz73ukXgV8"><title>A</title><ellipse cx="152.69" cy="-162" fill="#a0ced9" rx="152.69" ry="18" stroke="black"/><text font-family="Times,serif" font-size="14.00" text-anchor="middle" x="152.69" y="-156.95">OC::BLSA_General_Interview::pf02d</text></a></g>
<!-- E -->
<g class="node" id="node5"><a xlink:href="https://mindset.umc.edu/blsa-explore-me/index.html?search=ZT8NHF9OM9J8"><title>E</title><ellipse cx="471.69" cy="-90" fill="#ffc09f" rx="157.3" ry="18" stroke="black"/><text font-family="Times,serif" font-size="14.00" text-anchor="middle" x="471.69" y="-84.95">Derived::der_physicalfunction::stairs20</text></a></g>
<!-- A&#45;&gt;E -->
<g class="edge" id="edge1">
<title>A-&gt;E</title>
<path d="M222.7,-145.64C272.2,-134.78 338.7,-120.18 390.53,-108.81" fill="none" stroke="black"/>
<polygon fill="black" points="391,-112.07 400.02,-106.51 389.5,-105.23 391,-112.07" stroke="black"/>
</g>
<!-- B -->
<g class="node" id="node2"><a xlink:href="https://mindset.umc.edu/blsa-explore-me/index.html?search=doagRdnsv7"><title>B</title><ellipse cx="471.69" cy="-162" fill="#a0ced9" rx="148.08" ry="18" stroke="black"/><text font-family="Times,serif" font-size="14.00" text-anchor="middle" x="471.69" y="-156.95">OC::BLSA_General_Interview::pf02</text></a></g>
<!-- B&#45;&gt;E -->
<g class="edge" id="edge2">
<title>B-&gt;E</title>
<path d="M471.69,-143.7C471.69,-136.24 471.69,-127.32 471.69,-118.97" fill="none" stroke="black"/>
<polygon fill="black" points="475.19,-119.1 471.69,-109.1 468.19,-119.1 475.19,-119.1" stroke="black"/>
</g>
<!-- C -->
<g class="node" id="node3"><a xlink:href="https://mindset.umc.edu/blsa-explore-me/index.html?search=EuTFolnvbp"><title>C</title><ellipse cx="789.69" cy="-162" fill="#a0ced9" rx="152.18" ry="18" stroke="black"/><text font-family="Times,serif" font-size="14.00" text-anchor="middle" x="789.69" y="-156.95">OC::BLSA_General_Interview::pf02c</text></a></g>
<!-- C&#45;&gt;E -->
<g class="edge" id="edge3">
<title>C-&gt;E</title>
<path d="M719.9,-145.64C670.56,-134.78 604.26,-120.18 552.6,-108.81" fill="none" stroke="black"/>
<polygon fill="black" points="553.66,-105.24 543.14,-106.51 552.15,-112.08 553.66,-105.24" stroke="black"/>
</g>
<!-- D -->
<g class="node" id="node4"><a xlink:href="https://mindset.umc.edu/blsa-explore-me/index.html?search=n8UdU15321q9"><title>D</title><ellipse cx="471.69" cy="-18" fill="#ffee93" rx="155.25" ry="18" stroke="black"/><text font-family="Times,serif" font-size="14.00" text-anchor="middle" x="471.69" y="-12.95">Derived::der_physicalfunction::stindex</text></a></g>
<!-- E&#45;&gt;D -->
<g class="edge" id="edge4">
<title>E-&gt;D</title>
<path d="M471.69,-71.7C471.69,-64.24 471.69,-55.32 471.69,-46.97" fill="none" stroke="black"/>
<polygon fill="black" points="475.19,-47.1 471.69,-37.1 468.19,-47.1 475.19,-47.1" stroke="black"/>
</g>
</g>
</svg>