<?xml version="1.0" encoding="utf-8"?>
<!DOCTYPE svg PUBLIC "-//W3C//DTD SVG 1.1//EN" "http://www.w3.org/Graphics/SVG/1.1/DTD/svg11.dtd">
<!-- Generated by graphviz version 8.1.0 (20230707.0739)
 --><!-- Pages: 1 --><svg height="188pt" viewBox="0.00 0.00 635.87 188.00" width="636pt" xmlns="http://www.w3.org/2000/svg" xmlns:xlink="http://www.w3.org/1999/xlink">
<g class="graph" id="graph0" transform="scale(1 1) rotate(0) translate(4 184)">
<polygon fill="white" points="-4,4 -4,-184 631.87,-184 631.87,4 -4,4" stroke="none"/>
<!-- A -->
<g class="node" id="node1"><a xlink:href="https://mindset.umc.edu/blsa-explore-me/index.html?search=l2hA5wDctO"><title>A</title><ellipse cx="152.69" cy="-162" fill="#a0ced9" rx="152.69" ry="18" stroke="black"/><text font-family="Times,serif" font-size="14.00" text-anchor="middle" x="152.69" y="-156.95">OC::BLSA_General_Interview::pf01b</text></a></g>
<!-- B -->
<g class="node" id="node2"><a xlink:href="https://mindset.umc.edu/blsa-explore-me/index.html?search=bHYzjQ0a2T40"><title>B</title><ellipse cx="313.69" cy="-90" fill="#ffc09f" rx="189.54" ry="18" stroke="black"/><text font-family="Times,serif" font-size="14.00" text-anchor="middle" x="313.69" y="-84.95">Derived::der_physicalfunction::walkquartermile</text></a></g>
<!-- A&#45;&gt;B -->
<g class="edge" id="edge1">
<title>A-&gt;B</title>
<path d="M191.25,-144.23C213.31,-134.64 241.2,-122.52 264.79,-112.26" fill="none" stroke="black"/>
<polygon fill="black" points="265.83,-115.19 273.6,-107.99 263.04,-108.77 265.83,-115.19" stroke="black"/>
</g>
<!-- C -->
<g class="node" id="node3"><a xlink:href="https://mindset.umc.edu/blsa-explore-me/index.html?search=j2nM4051H4Mz"><title>C</title><ellipse cx="313.69" cy="-18" fill="#ffee93" rx="160.37" ry="18" stroke="black"/><text font-family="Times,serif" font-size="14.00" text-anchor="middle" x="313.69" y="-12.95">Derived::der_physicalfunction::wkindex</text></a></g>
<!-- B&#45;&gt;C -->
<g class="edge" id="edge2">
<title>B-&gt;C</title>
<path d="M313.69,-71.7C313.69,-64.24 313.69,-55.32 313.69,-46.97" fill="none" stroke="black"/>
<polygon fill="black" points="317.19,-47.1 313.69,-37.1 310.19,-47.1 317.19,-47.1" stroke="black"/>
</g>
<!-- D -->
<g class="node" id="node4"><a xlink:href="https://mindset.umc.edu/blsa-explore-me/index.html?search=emZunRR0cl"><title>D</title><ellipse cx="475.69" cy="-162" fill="#a0ced9" rx="152.18" ry="18" stroke="black"/><text font-family="Times,serif" font-size="14.00" text-anchor="middle" x="475.69" y="-156.95">OC::BLSA_General_Interview::pf01a</text></a></g>
<!-- D&#45;&gt;B -->
<g class="edge" id="edge3">
<title>D-&gt;B</title>
<path d="M436.89,-144.23C414.69,-134.64 386.63,-122.52 362.9,-112.26" fill="none" stroke="black"/>
<polygon fill="black" points="364.59,-108.75 354.02,-107.99 361.81,-115.17 364.59,-108.75" stroke="black"/>
</g>
</g>
</svg>