<?xml version="1.0" encoding="utf-8"?>
<!DOCTYPE svg PUBLIC "-//W3C//DTD SVG 1.1//EN" "http://www.w3.org/Graphics/SVG/1.1/DTD/svg11.dtd">
<!-- Generated by graphviz version 8.1.0 (20230707.0739)
 --><!-- Pages: 1 --><svg height="260pt" viewBox="0.00 0.00 888.28 260.00" width="888pt" xmlns="http://www.w3.org/2000/svg" xmlns:xlink="http://www.w3.org/1999/xlink">
<g class="graph" id="graph0" transform="scale(1 1) rotate(0) translate(4 256)">
<polygon fill="white" points="-4,4 -4,-256 884.28,-256 884.28,4 -4,4" stroke="none"/>
<!-- A -->
<g class="node" id="node1"><a xlink:href="https://mindset.umc.edu/blsa-explore-me/index.html?search=RStLkdGH1Fe3"><title>A</title><ellipse cx="589.28" cy="-90" fill="#ffee93" rx="137.34" ry="18" stroke="black"/><text font-family="Times,serif" font-size="14.00" text-anchor="middle" x="589.28" y="-84.95">Derived::der_cohort::visitduration</text></a></g>
<!-- B -->
<g class="node" id="node2"><a xlink:href="https://mindset.umc.edu/blsa-explore-me/index.html?search=qfjDUq9zeC"><title>B</title><ellipse cx="692.28" cy="-234" fill="#a0ced9" rx="188" ry="18" stroke="black"/><text font-family="Times,serif" font-size="14.00" text-anchor="middle" x="692.28" y="-228.95">OC::BLSA_Visit_Procedure_Checklist::vtdate1</text></a></g>
<!-- B&#45;&gt;A -->
<g class="edge" id="edge2">
<title>B-&gt;A</title>
<path d="M682.27,-215.78C671.4,-197.48 653.19,-167.95 635.28,-144 628.27,-134.63 620.05,-124.84 612.51,-116.25" fill="none" stroke="black"/>
<polygon fill="black" points="615.54,-114.27 606.27,-109.13 610.32,-118.93 615.54,-114.27" stroke="black"/>
</g>
<!-- E -->
<g class="node" id="node5"><a xlink:href="https://mindset.umc.edu/blsa-explore-me/index.html?search=V4bhL60w1fNe"><title>E</title><ellipse cx="504.28" cy="-162" fill="#ffc09f" rx="122.49" ry="18" stroke="black"/><text font-family="Times,serif" font-size="14.00" text-anchor="middle" x="504.28" y="-156.95">Derived::der_cohort::visittype</text></a></g>
<!-- B&#45;&gt;E -->
<g class="edge" id="edge1">
<title>B-&gt;E</title>
<path d="M646.77,-216.05C619.96,-206.07 585.9,-193.39 557.81,-182.93" fill="none" stroke="black"/>
<polygon fill="black" points="559.35,-179.4 548.75,-179.19 556.9,-185.96 559.35,-179.4" stroke="black"/>
</g>
<!-- C -->
<g class="node" id="node3"><a xlink:href="https://mindset.umc.edu/blsa-explore-me/index.html?search=BBC4i8QwuTPK"><title>C</title><ellipse cx="306.28" cy="-90" fill="#ffee93" rx="127.61" ry="18" stroke="black"/><text font-family="Times,serif" font-size="14.00" text-anchor="middle" x="306.28" y="-84.95">Derived::der_cohort::homevisit</text></a></g>
<!-- F -->
<g class="node" id="node6"><a xlink:href="https://mindset.umc.edu/blsa-explore-me/index.html?search=cHk4s3PVf2k4"><title>F</title><ellipse cx="306.28" cy="-18" fill="#ffee93" rx="198.75" ry="18" stroke="black"/><text font-family="Times,serif" font-size="14.00" text-anchor="middle" x="306.28" y="-12.95">Derived::der_physicalperformance::rapidgaitspeed</text></a></g>
<!-- C&#45;&gt;F -->
<g class="edge" id="edge3">
<title>C-&gt;F</title>
<path d="M306.28,-71.7C306.28,-64.24 306.28,-55.32 306.28,-46.97" fill="none" stroke="black"/>
<polygon fill="black" points="309.78,-47.1 306.28,-37.1 302.78,-47.1 309.78,-47.1" stroke="black"/>
</g>
<!-- D -->
<g class="node" id="node4"><a xlink:href="https://mindset.umc.edu/blsa-explore-me/index.html?search=yQslZwHTJn"><title>D</title><ellipse cx="243.28" cy="-234" fill="#a0ced9" rx="243.28" ry="18" stroke="black"/><text font-family="Times,serif" font-size="14.00" text-anchor="middle" x="243.28" y="-228.95">OC::BLSA_HV_Visit_Procedure_Checklist::obsdate_hvtdate1</text></a></g>
<!-- D&#45;&gt;A -->
<g class="edge" id="edge5">
<title>D-&gt;A</title>
<path d="M263.5,-215.69C287.94,-195.61 331.08,-162.87 373.28,-144 411.06,-127.11 455.06,-115.07 493.46,-106.78" fill="none" stroke="black"/>
<polygon fill="black" points="494.06,-110.02 503.13,-104.54 492.62,-103.17 494.06,-110.02" stroke="black"/>
</g>
<!-- D&#45;&gt;E -->
<g class="edge" id="edge4">
<title>D-&gt;E</title>
<path d="M306.13,-216.14C345.59,-205.56 396.46,-191.92 436.78,-181.1" fill="none" stroke="black"/>
<polygon fill="black" points="437.57,-184.25 446.32,-178.28 435.75,-177.49 437.57,-184.25" stroke="black"/>
</g>
<!-- E&#45;&gt;A -->
<g class="edge" id="edge7">
<title>E-&gt;A</title>
<path d="M524.86,-144.05C535.35,-135.41 548.3,-124.75 559.83,-115.26" fill="none" stroke="black"/>
<polygon fill="black" points="561.81,-117.33 567.3,-108.28 557.36,-111.93 561.81,-117.33" stroke="black"/>
</g>
<!-- E&#45;&gt;C -->
<g class="edge" id="edge6">
<title>E-&gt;C</title>
<path d="M458.85,-144.94C430.13,-134.79 392.8,-121.59 362.26,-110.79" fill="none" stroke="black"/>
<polygon fill="black" points="363.77,-107.26 353.18,-107.23 361.44,-113.86 363.77,-107.26" stroke="black"/>
</g>
</g>
</svg>