<?xml version="1.0" encoding="utf-8"?>
<!DOCTYPE svg PUBLIC "-//W3C//DTD SVG 1.1//EN" "http://www.w3.org/Graphics/SVG/1.1/DTD/svg11.dtd">
<!-- Generated by graphviz version 8.1.0 (20230707.0739)
 --><!-- Pages: 1 --><svg height="332pt" viewBox="0.00 0.00 588.86 332.00" width="589pt" xmlns="http://www.w3.org/2000/svg" xmlns:xlink="http://www.w3.org/1999/xlink">
<g class="graph" id="graph0" transform="scale(1 1) rotate(0) translate(4 328)">
<polygon fill="white" points="-4,4 -4,-328 584.86,-328 584.86,4 -4,4" stroke="none"/>
<!-- A -->
<g class="node" id="node1"><a xlink:href="https://mindset.umc.edu/blsa-explore-me/index.html?search=M2f82OB5wpq5"><title>A</title><ellipse cx="137.85" cy="-90" fill="#ffee93" rx="135.29" ry="18" stroke="black"/><text font-family="Times,serif" font-size="14.00" text-anchor="middle" x="137.85" y="-84.95">Derived::der_cohort::daysfromv1</text></a></g>
<!-- C -->
<g class="node" id="node3"><a xlink:href="https://mindset.umc.edu/blsa-explore-me/index.html?search=MQ8WCwmMoDIJ"><title>C</title><ellipse cx="137.85" cy="-18" fill="#ffee93" rx="137.85" ry="18" stroke="black"/><text font-family="Times,serif" font-size="14.00" text-anchor="middle" x="137.85" y="-12.95">Derived::der_cohort::yearsfromv1</text></a></g>
<!-- A&#45;&gt;C -->
<g class="edge" id="edge1">
<title>A-&gt;C</title>
<path d="M137.85,-71.7C137.85,-64.24 137.85,-55.32 137.85,-46.97" fill="none" stroke="black"/>
<polygon fill="black" points="141.35,-47.1 137.85,-37.1 134.35,-47.1 141.35,-47.1" stroke="black"/>
</g>
<!-- B -->
<g class="node" id="node2"><a xlink:href="https://mindset.umc.edu/blsa-explore-me/index.html?search=yc3wBExI755f"><title>B</title><ellipse cx="216.85" cy="-234" fill="#a0ced9" rx="121.98" ry="18" stroke="black"/><text font-family="Times,serif" font-size="14.00" text-anchor="middle" x="216.85" y="-228.95">Derived::der_cohort::visitdate</text></a></g>
<!-- B&#45;&gt;A -->
<g class="edge" id="edge3">
<title>B-&gt;A</title>
<path d="M190.86,-215.98C178.74,-206.74 165.19,-194.28 156.85,-180 146.01,-161.45 141.32,-137.49 139.31,-119.11" fill="none" stroke="black"/>
<polygon fill="black" points="142.72,-118.87 138.36,-109.21 135.74,-119.48 142.72,-118.87" stroke="black"/>
</g>
<!-- D -->
<g class="node" id="node4"><a xlink:href="https://mindset.umc.edu/blsa-explore-me/index.html?search=W1v2d8sbiR"><title>D</title><ellipse cx="296.85" cy="-162" fill="#ffc09f" rx="131.19" ry="18" stroke="black"/><text font-family="Times,serif" font-size="14.00" text-anchor="middle" x="296.85" y="-156.95">Derived::der_cohort::v1visitdate</text></a></g>
<!-- B&#45;&gt;D -->
<g class="edge" id="edge2">
<title>B-&gt;D</title>
<path d="M236.21,-216.05C246.09,-207.41 258.27,-196.75 269.13,-187.26" fill="none" stroke="black"/>
<polygon fill="black" points="270.88,-189.49 276.1,-180.28 266.27,-184.23 270.88,-189.49" stroke="black"/>
</g>
<!-- D&#45;&gt;A -->
<g class="edge" id="edge4">
<title>D-&gt;A</title>
<path d="M259.17,-144.41C237.15,-134.72 209.15,-122.39 185.6,-112.02" fill="none" stroke="black"/>
<polygon fill="black" points="187.37,-108.54 176.81,-107.71 184.55,-114.95 187.37,-108.54" stroke="black"/>
</g>
<!-- E -->
<g class="node" id="node5"><a xlink:href="https://mindset.umc.edu/blsa-explore-me/index.html?search=xk7h9og10f6B"><title>E</title><ellipse cx="435.85" cy="-90" fill="#ffee93" rx="145.01" ry="18" stroke="black"/><text font-family="Times,serif" font-size="14.00" text-anchor="middle" x="435.85" y="-84.95">Derived::der_cohort::v1tostatusdays</text></a></g>
<!-- D&#45;&gt;E -->
<g class="edge" id="edge5">
<title>D-&gt;E</title>
<path d="M330.14,-144.23C348.91,-134.78 372.58,-122.86 392.76,-112.7" fill="none" stroke="black"/>
<polygon fill="black" points="393.99,-115.5 401.34,-107.87 390.84,-109.24 393.99,-115.5" stroke="black"/>
</g>
<!-- F -->
<g class="node" id="node6"><a xlink:href="https://mindset.umc.edu/blsa-explore-me/index.html?search=AalmVrpsJs"><title>F</title><ellipse cx="216.85" cy="-306" fill="#a0ced9" rx="101.51" ry="18" stroke="black"/><text font-family="Times,serif" font-size="14.00" text-anchor="middle" x="216.85" y="-300.95">Cohort::cohort::visitdate</text></a></g>
<!-- F&#45;&gt;B -->
<g class="edge" id="edge6">
<title>F-&gt;B</title>
<path d="M216.85,-287.7C216.85,-280.24 216.85,-271.32 216.85,-262.97" fill="none" stroke="black"/>
<polygon fill="black" points="220.35,-263.1 216.85,-253.1 213.35,-263.1 220.35,-263.1" stroke="black"/>
</g>
</g>
</svg>