<?xml version="1.0" encoding="utf-8"?>
<!DOCTYPE svg PUBLIC "-//W3C//DTD SVG 1.1//EN" "http://www.w3.org/Graphics/SVG/1.1/DTD/svg11.dtd">
<!-- Generated by graphviz version 8.1.0 (20230707.0739)
 --><!-- Pages: 1 --><svg height="116pt" viewBox="0.00 0.00 1041.50 116.00" width="1042pt" xmlns="http://www.w3.org/2000/svg" xmlns:xlink="http://www.w3.org/1999/xlink">
<g class="graph" id="graph0" transform="scale(1 1) rotate(0) translate(4 112)">
<polygon fill="white" points="-4,4 -4,-112 1037.5,-112 1037.5,4 -4,4" stroke="none"/>
<!-- A -->
<g class="node" id="node1"><a xlink:href="https://mindset.umc.edu/blsa-explore-me/index.html?search=rbX3ZIAPNX"><title>A</title><ellipse cx="166" cy="-90" fill="#a0ced9" rx="166" ry="18" stroke="black"/><text font-family="Times,serif" font-size="14.00" text-anchor="middle" x="166" y="-84.95">OC::BLSA_Body_Measurements::ant07a</text></a></g>
<!-- D -->
<g class="node" id="node4"><a xlink:href="https://mindset.umc.edu/blsa-explore-me/index.html?search=ZB764fCoxBef"><title>D</title><ellipse cx="516" cy="-18" fill="#ffc09f" rx="160.37" ry="18" stroke="black"/><text font-family="Times,serif" font-size="14.00" text-anchor="middle" x="516" y="-12.95">Derived::der_anthropometry::waistdiam</text></a></g>
<!-- A&#45;&gt;D -->
<g class="edge" id="edge1">
<title>A-&gt;D</title>
<path d="M242.81,-73.64C297.84,-62.63 372.02,-47.79 429.2,-36.36" fill="none" stroke="black"/>
<polygon fill="black" points="429.55,-39.66 438.67,-34.27 428.18,-32.79 429.55,-39.66" stroke="black"/>
</g>
<!-- B -->
<g class="node" id="node2"><a xlink:href="https://mindset.umc.edu/blsa-explore-me/index.html?search=uNvop9T9K6"><title>B</title><ellipse cx="516" cy="-90" fill="#a0ced9" rx="166" ry="18" stroke="black"/><text font-family="Times,serif" font-size="14.00" text-anchor="middle" x="516" y="-84.95">OC::BLSA_Body_Measurements::ant07c</text></a></g>
<!-- B&#45;&gt;D -->
<g class="edge" id="edge2">
<title>B-&gt;D</title>
<path d="M516,-71.7C516,-64.24 516,-55.32 516,-46.97" fill="none" stroke="black"/>
<polygon fill="black" points="519.5,-47.1 516,-37.1 512.5,-47.1 519.5,-47.1" stroke="black"/>
</g>
<!-- C -->
<g class="node" id="node3"><a xlink:href="https://mindset.umc.edu/blsa-explore-me/index.html?search=A6VFgbVe1I"><title>C</title><ellipse cx="867" cy="-90" fill="#a0ced9" rx="166.51" ry="18" stroke="black"/><text font-family="Times,serif" font-size="14.00" text-anchor="middle" x="867" y="-84.95">OC::BLSA_Body_Measurements::ant07b</text></a></g>
<!-- C&#45;&gt;D -->
<g class="edge" id="edge3">
<title>C-&gt;D</title>
<path d="M789.97,-73.64C734.78,-62.63 660.38,-47.79 603.04,-36.36" fill="none" stroke="black"/>
<polygon fill="black" points="604.03,-32.79 593.54,-34.27 602.67,-39.65 604.03,-32.79" stroke="black"/>
</g>
</g>
</svg>