<?xml version="1.0" encoding="utf-8"?>
<!DOCTYPE svg PUBLIC "-//W3C//DTD SVG 1.1//EN" "http://www.w3.org/Graphics/SVG/1.1/DTD/svg11.dtd">
<!-- Generated by graphviz version 8.1.0 (20230707.0739)
 --><!-- Pages: 1 --><svg height="188pt" viewBox="0.00 0.00 1161.53 188.00" width="1162pt" xmlns="http://www.w3.org/2000/svg" xmlns:xlink="http://www.w3.org/1999/xlink">
<g class="graph" id="graph0" transform="scale(1 1) rotate(0) translate(4 184)">
<polygon fill="white" points="-4,4 -4,-184 1157.53,-184 1157.53,4 -4,4" stroke="none"/>
<!-- A -->
<g class="node" id="node1"><a xlink:href="https://mindset.umc.edu/blsa-explore-me/index.html?search=ph7w4aO6JC"><title>A</title><ellipse cx="210.52" cy="-90" fill="#a0ced9" rx="210.52" ry="18" stroke="black"/><text font-family="Times,serif" font-size="14.00" text-anchor="middle" x="210.52" y="-84.95">OC::BLSA_HV_Visit_Procedure_Checklist::hvtdate2</text></a></g>
<!-- B -->
<g class="node" id="node2"><a xlink:href="https://mindset.umc.edu/blsa-explore-me/index.html?search=RStLkdGH1Fe3"><title>B</title><ellipse cx="599.52" cy="-18" fill="#ffc09f" rx="137.34" ry="18" stroke="black"/><text font-family="Times,serif" font-size="14.00" text-anchor="middle" x="599.52" y="-12.95">Derived::der_cohort::visitduration</text></a></g>
<!-- A&#45;&gt;B -->
<g class="edge" id="edge1">
<title>A-&gt;B</title>
<path d="M298.31,-73.2C361.54,-61.82 446.56,-46.52 510.16,-35.08" fill="none" stroke="black"/>
<polygon fill="black" points="510.75,-38.35 519.97,-33.14 509.51,-31.46 510.75,-38.35" stroke="black"/>
</g>
<!-- C -->
<g class="node" id="node3"><a xlink:href="https://mindset.umc.edu/blsa-explore-me/index.html?search=qfjDUq9zeC"><title>C</title><ellipse cx="375.52" cy="-162" fill="#a0ced9" rx="188" ry="18" stroke="black"/><text font-family="Times,serif" font-size="14.00" text-anchor="middle" x="375.52" y="-156.95">OC::BLSA_Visit_Procedure_Checklist::vtdate1</text></a></g>
<!-- C&#45;&gt;B -->
<g class="edge" id="edge3">
<title>C-&gt;B</title>
<path d="M393.37,-143.76C419.78,-118.27 466.38,-73.39 468.52,-72 489.52,-58.43 514.55,-47.26 537.09,-38.74" fill="none" stroke="black"/>
<polygon fill="black" points="538.06,-41.74 546.24,-35.01 535.65,-35.17 538.06,-41.74" stroke="black"/>
</g>
<!-- F -->
<g class="node" id="node6"><a xlink:href="https://mindset.umc.edu/blsa-explore-me/index.html?search=V4bhL60w1fNe"><title>F</title><ellipse cx="599.52" cy="-90" fill="#a0ced9" rx="122.49" ry="18" stroke="black"/><text font-family="Times,serif" font-size="14.00" text-anchor="middle" x="599.52" y="-84.95">Derived::der_cohort::visittype</text></a></g>
<!-- C&#45;&gt;F -->
<g class="edge" id="edge2">
<title>C-&gt;F</title>
<path d="M428.89,-144.32C461.85,-134.02 504.23,-120.78 538.51,-110.07" fill="none" stroke="black"/>
<polygon fill="black" points="539.37,-113.15 547.87,-106.83 537.28,-106.47 539.37,-113.15" stroke="black"/>
</g>
<!-- D -->
<g class="node" id="node4"><a xlink:href="https://mindset.umc.edu/blsa-explore-me/index.html?search=kiBGlR4fOZ"><title>D</title><ellipse cx="965.52" cy="-90" fill="#a0ced9" rx="188" ry="18" stroke="black"/><text font-family="Times,serif" font-size="14.00" text-anchor="middle" x="965.52" y="-84.95">OC::BLSA_Visit_Procedure_Checklist::vtdate2</text></a></g>
<!-- D&#45;&gt;B -->
<g class="edge" id="edge4">
<title>D-&gt;B</title>
<path d="M883.84,-73.38C824.91,-62.11 745.52,-46.92 685.6,-35.46" fill="none" stroke="black"/>
<polygon fill="black" points="686.51,-31.88 676.03,-33.44 685.19,-38.76 686.51,-31.88" stroke="black"/>
</g>
<!-- E -->
<g class="node" id="node5"><a xlink:href="https://mindset.umc.edu/blsa-explore-me/index.html?search=yQslZwHTJn"><title>E</title><ellipse cx="824.52" cy="-162" fill="#a0ced9" rx="243.28" ry="18" stroke="black"/><text font-family="Times,serif" font-size="14.00" text-anchor="middle" x="824.52" y="-156.95">OC::BLSA_HV_Visit_Procedure_Checklist::obsdate_hvtdate1</text></a></g>
<!-- E&#45;&gt;B -->
<g class="edge" id="edge6">
<title>E-&gt;B</title>
<path d="M806.11,-143.58C795.18,-133.24 781.06,-119.87 768.52,-108 751.63,-92 750.09,-84.58 730.52,-72 709.5,-58.48 684.45,-47.33 661.92,-38.8" fill="none" stroke="black"/>
<polygon fill="black" points="663.37,-35.23 652.77,-35.06 660.95,-41.8 663.37,-35.23" stroke="black"/>
</g>
<!-- E&#45;&gt;F -->
<g class="edge" id="edge5">
<title>E-&gt;F</title>
<path d="M770.06,-144.05C737.06,-133.79 694.88,-120.67 660.73,-110.04" fill="none" stroke="black"/>
<polygon fill="black" points="661.99,-106.46 651.4,-106.83 659.91,-113.14 661.99,-106.46" stroke="black"/>
</g>
<!-- F&#45;&gt;B -->
<g class="edge" id="edge7">
<title>F-&gt;B</title>
<path d="M599.52,-71.7C599.52,-64.24 599.52,-55.32 599.52,-46.97" fill="none" stroke="black"/>
<polygon fill="black" points="603.02,-47.1 599.52,-37.1 596.02,-47.1 603.02,-47.1" stroke="black"/>
</g>
</g>
</svg>