<?xml version="1.0" encoding="utf-8"?>
<!DOCTYPE svg PUBLIC "-//W3C//DTD SVG 1.1//EN" "http://www.w3.org/Graphics/SVG/1.1/DTD/svg11.dtd">
<!-- Generated by graphviz version 8.1.0 (20230707.0739)
 --><!-- Pages: 1 --><svg height="260pt" viewBox="0.00 0.00 1150.95 260.00" width="1151pt" xmlns="http://www.w3.org/2000/svg" xmlns:xlink="http://www.w3.org/1999/xlink">
<g class="graph" id="graph0" transform="scale(1 1) rotate(0) translate(4 256)">
<polygon fill="white" points="-4,4 -4,-256 1146.95,-256 1146.95,4 -4,4" stroke="none"/>
<!-- A -->
<g class="node" id="node1"><a xlink:href="https://mindset.umc.edu/blsa-explore-me/index.html?search=MzIIW1QTjp"><title>A</title><ellipse cx="274.95" cy="-234" fill="#a0ced9" rx="166" ry="18" stroke="black"/><text font-family="Times,serif" font-size="14.00" text-anchor="middle" x="274.95" y="-228.95">OC::BLSA_Body_Measurements::ant06c</text></a></g>
<!-- B -->
<g class="node" id="node2"><a xlink:href="https://mindset.umc.edu/blsa-explore-me/index.html?search=sEuwbBOvvFoZ"><title>B</title><ellipse cx="625.95" cy="-162" fill="#ffc09f" rx="145.01" ry="18" stroke="black"/><text font-family="Times,serif" font-size="14.00" text-anchor="middle" x="625.95" y="-156.95">Derived::der_anthropometry::height</text></a></g>
<!-- A&#45;&gt;B -->
<g class="edge" id="edge1">
<title>A-&gt;B</title>
<path d="M351.98,-217.64C407.83,-206.5 483.36,-191.44 540.97,-179.95" fill="none" stroke="black"/>
<polygon fill="black" points="541.39,-183.23 550.51,-177.85 540.02,-176.37 541.39,-183.23" stroke="black"/>
</g>
<!-- E -->
<g class="node" id="node5"><a xlink:href="https://mindset.umc.edu/blsa-explore-me/index.html?search=jTtD8vdsBXqB"><title>E</title><ellipse cx="336.95" cy="-90" fill="#ffee93" rx="136.82" ry="18" stroke="black"/><text font-family="Times,serif" font-size="14.00" text-anchor="middle" x="336.95" y="-84.95">Derived::der_anthropometry::bmi</text></a></g>
<!-- B&#45;&gt;E -->
<g class="edge" id="edge3">
<title>B-&gt;E</title>
<path d="M561.81,-145.46C517.23,-134.67 457.67,-120.24 411.06,-108.95" fill="none" stroke="black"/>
<polygon fill="black" points="411.95,-105.32 401.41,-106.37 410.31,-112.13 411.95,-105.32" stroke="black"/>
</g>
<!-- F -->
<g class="node" id="node6"><a xlink:href="https://mindset.umc.edu/blsa-explore-me/index.html?search=HDY2jNdIom"><title>F</title><ellipse cx="625.95" cy="-90" fill="#ffee93" rx="134.26" ry="18" stroke="black"/><text font-family="Times,serif" font-size="14.00" text-anchor="middle" x="625.95" y="-84.95">Derived::der_anthropometry::bsa</text></a></g>
<!-- B&#45;&gt;F -->
<g class="edge" id="edge2">
<title>B-&gt;F</title>
<path d="M625.95,-143.7C625.95,-136.24 625.95,-127.32 625.95,-118.97" fill="none" stroke="black"/>
<polygon fill="black" points="629.45,-119.1 625.95,-109.1 622.45,-119.1 629.45,-119.1" stroke="black"/>
</g>
<!-- G -->
<g class="node" id="node7"><a xlink:href="https://mindset.umc.edu/blsa-explore-me/index.html?search=cqYVX309eR9T"><title>G</title><ellipse cx="942.95" cy="-90" fill="#ffee93" rx="164.46" ry="18" stroke="black"/><text font-family="Times,serif" font-size="14.00" text-anchor="middle" x="942.95" y="-84.95">Derived::der_anthropometry::waistheight</text></a></g>
<!-- B&#45;&gt;G -->
<g class="edge" id="edge4">
<title>B-&gt;G</title>
<path d="M695.12,-145.72C744.12,-134.9 810.03,-120.35 861.57,-108.97" fill="none" stroke="black"/>
<polygon fill="black" points="861.99,-112.24 871,-106.67 860.48,-105.41 861.99,-112.24" stroke="black"/>
</g>
<!-- C -->
<g class="node" id="node3"><a xlink:href="https://mindset.umc.edu/blsa-explore-me/index.html?search=HfNC8dppeC"><title>C</title><ellipse cx="625.95" cy="-234" fill="#a0ced9" rx="166.51" ry="18" stroke="black"/><text font-family="Times,serif" font-size="14.00" text-anchor="middle" x="625.95" y="-228.95">OC::BLSA_Body_Measurements::ant06b</text></a></g>
<!-- C&#45;&gt;B -->
<g class="edge" id="edge5">
<title>C-&gt;B</title>
<path d="M625.95,-215.7C625.95,-208.24 625.95,-199.32 625.95,-190.97" fill="none" stroke="black"/>
<polygon fill="black" points="629.45,-191.1 625.95,-181.1 622.45,-191.1 629.45,-191.1" stroke="black"/>
</g>
<!-- D -->
<g class="node" id="node4"><a xlink:href="https://mindset.umc.edu/blsa-explore-me/index.html?search=I9Ti7Icb4X6e"><title>D</title><ellipse cx="163.95" cy="-18" fill="#ffee93" rx="163.95" ry="18" stroke="black"/><text font-family="Times,serif" font-size="14.00" text-anchor="middle" x="163.95" y="-12.95">Derived::der_anthropometry::obesity6cat</text></a></g>
<!-- E&#45;&gt;D -->
<g class="edge" id="edge7">
<title>E-&gt;D</title>
<path d="M295.95,-72.41C271.87,-62.67 241.21,-50.26 215.5,-39.86" fill="none" stroke="black"/>
<polygon fill="black" points="217.14,-36.34 206.55,-35.83 214.51,-42.83 217.14,-36.34" stroke="black"/>
</g>
<!-- I -->
<g class="node" id="node9"><a xlink:href="https://mindset.umc.edu/blsa-explore-me/index.html?search=wT7G1AJ11DS4"><title>I</title><ellipse cx="509.95" cy="-18" fill="#ffee93" rx="163.95" ry="18" stroke="black"/><text font-family="Times,serif" font-size="14.00" text-anchor="middle" x="509.95" y="-12.95">Derived::der_anthropometry::obesity4cat</text></a></g>
<!-- E&#45;&gt;I -->
<g class="edge" id="edge6">
<title>E-&gt;I</title>
<path d="M377.95,-72.41C402.03,-62.67 432.69,-50.26 458.4,-39.86" fill="none" stroke="black"/>
<polygon fill="black" points="459.39,-42.83 467.34,-35.83 456.76,-36.34 459.39,-42.83" stroke="black"/>
</g>
<!-- H -->
<g class="node" id="node8"><a xlink:href="https://mindset.umc.edu/blsa-explore-me/index.html?search=ezFitGBaHq"><title>H</title><ellipse cx="976.95" cy="-234" fill="#a0ced9" rx="166" ry="18" stroke="black"/><text font-family="Times,serif" font-size="14.00" text-anchor="middle" x="976.95" y="-228.95">OC::BLSA_Body_Measurements::ant06a</text></a></g>
<!-- H&#45;&gt;B -->
<g class="edge" id="edge8">
<title>H-&gt;B</title>
<path d="M899.92,-217.64C844.07,-206.5 768.54,-191.44 710.93,-179.95" fill="none" stroke="black"/>
<polygon fill="black" points="711.88,-176.37 701.39,-177.85 710.51,-183.23 711.88,-176.37" stroke="black"/>
</g>
</g>
</svg>