<?xml version="1.0" encoding="utf-8"?>
<!DOCTYPE svg PUBLIC "-//W3C//DTD SVG 1.1//EN" "http://www.w3.org/Graphics/SVG/1.1/DTD/svg11.dtd">
<!-- Generated by graphviz version 8.1.0 (20230707.0739)
 --><!-- Pages: 1 --><svg height="188pt" viewBox="0.00 0.00 2312.82 188.00" width="2313pt" xmlns="http://www.w3.org/2000/svg" xmlns:xlink="http://www.w3.org/1999/xlink">
<g class="graph" id="graph0" transform="scale(1 1) rotate(0) translate(4 184)">
<polygon fill="white" points="-4,4 -4,-184 2308.82,-184 2308.82,4 -4,4" stroke="none"/>
<!-- A -->
<g class="node" id="node1"><a xlink:href="https://mindset.umc.edu/blsa-explore-me/index.html?search=kLwK24xjeC"><title>A</title><ellipse cx="186.47" cy="-162" fill="#a0ced9" rx="186.47" ry="18" stroke="black"/><text font-family="Times,serif" font-size="14.00" text-anchor="middle" x="186.47" y="-156.95">OC::BLSA_LE_Physical_Performance::lep8b1</text></a></g>
<!-- F -->
<g class="node" id="node6"><a xlink:href="https://mindset.umc.edu/blsa-explore-me/index.html?search=oKATx4iZQQ"><title>F</title><ellipse cx="1356.47" cy="-90" fill="#ffc09f" rx="177.26" ry="18" stroke="black"/><text font-family="Times,serif" font-size="14.00" text-anchor="middle" x="1356.47" y="-84.95">Derived::der_physicalperformance::r6mtime</text></a></g>
<!-- A&#45;&gt;F -->
<g class="edge" id="edge1">
<title>A-&gt;F</title>
<path d="M318.33,-148.92C339.43,-147.15 361.05,-145.44 381.47,-144 663.19,-124.07 991.16,-107.63 1185.87,-98.58" fill="none" stroke="black"/>
<polygon fill="black" points="1185.94,-102.04 1195.77,-98.08 1185.62,-95.05 1185.94,-102.04" stroke="black"/>
</g>
<!-- B -->
<g class="node" id="node2"><a xlink:href="https://mindset.umc.edu/blsa-explore-me/index.html?search=DP9H480ybE"><title>B</title><ellipse cx="576.47" cy="-162" fill="#a0ced9" rx="185.96" ry="18" stroke="black"/><text font-family="Times,serif" font-size="14.00" text-anchor="middle" x="576.47" y="-156.95">OC::BLSA_LE_Physical_Performance::lep8a1</text></a></g>
<!-- B&#45;&gt;F -->
<g class="edge" id="edge2">
<title>B-&gt;F</title>
<path d="M709.23,-149.09C850.29,-136.43 1072.41,-116.49 1216.26,-103.58" fill="none" stroke="black"/>
<polygon fill="black" points="1216.26,-107.01 1225.91,-102.63 1215.64,-100.04 1216.26,-107.01" stroke="black"/>
</g>
<!-- C -->
<g class="node" id="node3"><a xlink:href="https://mindset.umc.edu/blsa-explore-me/index.html?search=dlHH9hMtgo"><title>C</title><ellipse cx="966.47" cy="-162" fill="#a0ced9" rx="186.47" ry="18" stroke="black"/><text font-family="Times,serif" font-size="14.00" text-anchor="middle" x="966.47" y="-156.95">OC::BLSA_LE_Physical_Performance::lep8b2</text></a></g>
<!-- C&#45;&gt;F -->
<g class="edge" id="edge3">
<title>C-&gt;F</title>
<path d="M1052.06,-145.64C1113.86,-134.54 1197.36,-119.56 1261.27,-108.09" fill="none" stroke="black"/>
<polygon fill="black" points="1261.53,-111.42 1270.75,-106.21 1260.29,-104.53 1261.53,-111.42" stroke="black"/>
</g>
<!-- D -->
<g class="node" id="node4"><a xlink:href="https://mindset.umc.edu/blsa-explore-me/index.html?search=x42VsbN1hS"><title>D</title><ellipse cx="1356.47" cy="-162" fill="#a0ced9" rx="185.96" ry="18" stroke="black"/><text font-family="Times,serif" font-size="14.00" text-anchor="middle" x="1356.47" y="-156.95">OC::BLSA_LE_Physical_Performance::lep8a2</text></a></g>
<!-- D&#45;&gt;F -->
<g class="edge" id="edge4">
<title>D-&gt;F</title>
<path d="M1356.47,-143.7C1356.47,-136.24 1356.47,-127.32 1356.47,-118.97" fill="none" stroke="black"/>
<polygon fill="black" points="1359.97,-119.1 1356.47,-109.1 1352.97,-119.1 1359.97,-119.1" stroke="black"/>
</g>
<!-- E -->
<g class="node" id="node5"><a xlink:href="https://mindset.umc.edu/blsa-explore-me/index.html?search=hEC99bi4kt"><title>E</title><ellipse cx="2123.47" cy="-162" fill="#a0ced9" rx="181.35" ry="18" stroke="black"/><text font-family="Times,serif" font-size="14.00" text-anchor="middle" x="2123.47" y="-156.95">OC::BLSA_LE_Physical_Performance::lep8a</text></a></g>
<!-- E&#45;&gt;F -->
<g class="edge" id="edge5">
<title>E-&gt;F</title>
<path d="M1993.36,-149.13C1855.17,-136.51 1637.53,-116.65 1495.89,-103.72" fill="none" stroke="black"/>
<polygon fill="black" points="1496.25,-100.15 1485.98,-102.73 1495.62,-107.12 1496.25,-100.15" stroke="black"/>
</g>
<!-- H -->
<g class="node" id="node8"><a xlink:href="https://mindset.umc.edu/blsa-explore-me/index.html?search=cHk4s3PVf2k4"><title>H</title><ellipse cx="1458.47" cy="-18" fill="#ffee93" rx="198.75" ry="18" stroke="black"/><text font-family="Times,serif" font-size="14.00" text-anchor="middle" x="1458.47" y="-12.95">Derived::der_physicalperformance::rapidgaitspeed</text></a></g>
<!-- E&#45;&gt;H -->
<g class="edge" id="edge6">
<title>E-&gt;H</title>
<path d="M2049.12,-145.12C1924.88,-118.59 1675.77,-65.4 1544.29,-37.32" fill="none" stroke="black"/>
<polygon fill="black" points="1545.38,-33.77 1534.87,-35.1 1543.91,-40.61 1545.38,-33.77" stroke="black"/>
</g>
<!-- F&#45;&gt;H -->
<g class="edge" id="edge7">
<title>F-&gt;H</title>
<path d="M1381.68,-71.7C1394.56,-62.86 1410.4,-51.99 1424.35,-42.41" fill="none" stroke="black"/>
<polygon fill="black" points="1425.93,-44.89 1432.19,-36.35 1421.97,-39.12 1425.93,-44.89" stroke="black"/>
</g>
<!-- G -->
<g class="node" id="node7"><a xlink:href="https://mindset.umc.edu/blsa-explore-me/index.html?search=fQNEo1I915"><title>G</title><ellipse cx="1742.47" cy="-162" fill="#a0ced9" rx="181.86" ry="18" stroke="black"/><text font-family="Times,serif" font-size="14.00" text-anchor="middle" x="1742.47" y="-156.95">OC::BLSA_LE_Physical_Performance::lep8b</text></a></g>
<!-- G&#45;&gt;F -->
<g class="edge" id="edge8">
<title>G-&gt;F</title>
<path d="M1657.76,-145.64C1596.82,-134.59 1514.57,-119.67 1451.41,-108.22" fill="none" stroke="black"/>
<polygon fill="black" points="1452.11,-104.61 1441.65,-106.27 1450.86,-111.49 1452.11,-104.61" stroke="black"/>
</g>
</g>
</svg>