<?xml version="1.0" encoding="utf-8"?>
<!DOCTYPE svg PUBLIC "-//W3C//DTD SVG 1.1//EN" "http://www.w3.org/Graphics/SVG/1.1/DTD/svg11.dtd">
<!-- Generated by graphviz version 8.1.0 (20230707.0739)
 --><!-- Pages: 1 --><svg height="260pt" viewBox="0.00 0.00 878.17 260.00" width="878pt" xmlns="http://www.w3.org/2000/svg" xmlns:xlink="http://www.w3.org/1999/xlink">
<g class="graph" id="graph0" transform="scale(1 1) rotate(0) translate(4 256)">
<polygon fill="white" points="-4,4 -4,-256 874.17,-256 874.17,4 -4,4" stroke="none"/>
<!-- A -->
<g class="node" id="node1"><a xlink:href="https://mindset.umc.edu/blsa-explore-me/index.html?search=CTHDzDgRRwdR"><title>A</title><ellipse cx="262.13" cy="-90" fill="#ffee93" rx="178.79" ry="18" stroke="black"/><text font-family="Times,serif" font-size="14.00" text-anchor="middle" x="262.13" y="-84.95">Derived::der_physicalfunction::uw150meters</text></a></g>
<!-- D -->
<g class="node" id="node4"><a xlink:href="https://mindset.umc.edu/blsa-explore-me/index.html?search=W1c64F4Vu23H"><title>D</title><ellipse cx="365.13" cy="-18" fill="#ffee93" rx="170.6" ry="18" stroke="black"/><text font-family="Times,serif" font-size="14.00" text-anchor="middle" x="365.13" y="-12.95">Derived::der_physicalfunction::uw150pace</text></a></g>
<!-- A&#45;&gt;D -->
<g class="edge" id="edge1">
<title>A-&gt;D</title>
<path d="M287.59,-71.7C300.69,-62.8 316.83,-51.82 330.99,-42.2" fill="none" stroke="black"/>
<polygon fill="black" points="332.66,-44.62 338.96,-36.1 328.72,-38.83 332.66,-44.62" stroke="black"/>
</g>
<!-- B -->
<g class="node" id="node2"><a xlink:href="https://mindset.umc.edu/blsa-explore-me/index.html?search=bXpNmW486Mxv"><title>B</title><ellipse cx="469.13" cy="-162" fill="#ffc09f" rx="153.71" ry="18" stroke="black"/><text font-family="Times,serif" font-size="14.00" text-anchor="middle" x="469.13" y="-156.95">Derived::der_physicalfunction::uw150</text></a></g>
<!-- B&#45;&gt;A -->
<g class="edge" id="edge2">
<title>B-&gt;A</title>
<path d="M420.34,-144.5C390.91,-134.55 353.21,-121.8 321.99,-111.24" fill="none" stroke="black"/>
<polygon fill="black" points="323.27,-107.64 312.67,-107.75 321.03,-114.27 323.27,-107.64" stroke="black"/>
</g>
<!-- B&#45;&gt;D -->
<g class="edge" id="edge3">
<title>B-&gt;D</title>
<path d="M469.32,-143.7C468.71,-124.52 465.19,-93.47 450.13,-72 441.29,-59.4 428.4,-49.18 415.32,-41.19" fill="none" stroke="black"/>
<polygon fill="black" points="417.24,-37.69 406.82,-35.77 413.77,-43.77 417.24,-37.69" stroke="black"/>
</g>
<!-- F -->
<g class="node" id="node6"><a xlink:href="https://mindset.umc.edu/blsa-explore-me/index.html?search=iXe3CJ3001XL"><title>F</title><ellipse cx="659.13" cy="-90" fill="#ffee93" rx="161.9" ry="18" stroke="black"/><text font-family="Times,serif" font-size="14.00" text-anchor="middle" x="659.13" y="-84.95">Derived::der_physicalfunction::did400m</text></a></g>
<!-- B&#45;&gt;F -->
<g class="edge" id="edge4">
<title>B-&gt;F</title>
<path d="M514.16,-144.41C540.94,-134.54 575.12,-121.95 603.57,-111.47" fill="none" stroke="black"/>
<polygon fill="black" points="604.59,-114.45 612.77,-107.71 602.17,-107.89 604.59,-114.45" stroke="black"/>
</g>
<!-- C -->
<g class="node" id="node3"><a xlink:href="https://mindset.umc.edu/blsa-explore-me/index.html?search=I0p197cuxj"><title>C</title><ellipse cx="215.13" cy="-234" fill="#a0ced9" rx="215.13" ry="18" stroke="black"/><text font-family="Times,serif" font-size="14.00" text-anchor="middle" x="215.13" y="-228.95">OC::BLSA_Long_Distance_Corridor_Walk::mdcw27a</text></a></g>
<!-- C&#45;&gt;B -->
<g class="edge" id="edge5">
<title>C-&gt;B</title>
<path d="M275.65,-216.32C313.23,-205.97 361.62,-192.63 400.61,-181.88" fill="none" stroke="black"/>
<polygon fill="black" points="401.11,-185.1 409.83,-179.07 399.26,-178.35 401.11,-185.1" stroke="black"/>
</g>
<!-- E -->
<g class="node" id="node5"><a xlink:href="https://mindset.umc.edu/blsa-explore-me/index.html?search=m3psxOCWNa"><title>E</title><ellipse cx="659.13" cy="-234" fill="#a0ced9" rx="211.04" ry="18" stroke="black"/><text font-family="Times,serif" font-size="14.00" text-anchor="middle" x="659.13" y="-228.95">OC::BLSA_Long_Distance_Corridor_Walk::mdcw27</text></a></g>
<!-- E&#45;&gt;B -->
<g class="edge" id="edge6">
<title>E-&gt;B</title>
<path d="M613.14,-216.05C586.43,-206.22 552.62,-193.76 524.46,-183.39" fill="none" stroke="black"/>
<polygon fill="black" points="525.97,-179.84 515.37,-179.67 523.55,-186.41 525.97,-179.84" stroke="black"/>
</g>
<!-- E&#45;&gt;F -->
<g class="edge" id="edge7">
<title>E-&gt;F</title>
<path d="M659.13,-215.59C659.13,-191.5 659.13,-147.75 659.13,-119.03" fill="none" stroke="black"/>
<polygon fill="black" points="662.63,-119.11 659.13,-109.11 655.63,-119.11 662.63,-119.11" stroke="black"/>
</g>
</g>
</svg>