<?xml version="1.0" encoding="utf-8"?>
<!DOCTYPE svg PUBLIC "-//W3C//DTD SVG 1.1//EN" "http://www.w3.org/Graphics/SVG/1.1/DTD/svg11.dtd">
<!-- Generated by graphviz version 8.1.0 (20230707.0739)
 --><!-- Pages: 1 --><svg height="260pt" viewBox="0.00 0.00 888.28 260.00" width="888pt" xmlns="http://www.w3.org/2000/svg" xmlns:xlink="http://www.w3.org/1999/xlink">
<g class="graph" id="graph0" transform="scale(1 1) rotate(0) translate(4 256)">
<polygon fill="white" points="-4,4 -4,-256 884.28,-256 884.28,4 -4,4" stroke="none"/>
<!-- A -->
<g class="node" id="node1"><a xlink:href="https://mindset.umc.edu/blsa-explore-me/index.html?search=qfjDUq9zeC"><title>A</title><ellipse cx="188" cy="-234" fill="#a0ced9" rx="188" ry="18" stroke="black"/><text font-family="Times,serif" font-size="14.00" text-anchor="middle" x="188" y="-228.95">OC::BLSA_Visit_Procedure_Checklist::vtdate1</text></a></g>
<!-- D -->
<g class="node" id="node4"><a xlink:href="https://mindset.umc.edu/blsa-explore-me/index.html?search=V4bhL60w1fNe"><title>D</title><ellipse cx="412" cy="-162" fill="#a0ced9" rx="122.49" ry="18" stroke="black"/><text font-family="Times,serif" font-size="14.00" text-anchor="middle" x="412" y="-156.95">Derived::der_cohort::visittype</text></a></g>
<!-- A&#45;&gt;D -->
<g class="edge" id="edge1">
<title>A-&gt;D</title>
<path d="M241.37,-216.32C274.33,-206.02 316.71,-192.78 350.99,-182.07" fill="none" stroke="black"/>
<polygon fill="black" points="351.85,-185.15 360.35,-178.83 349.76,-178.47 351.85,-185.15" stroke="black"/>
</g>
<!-- B -->
<g class="node" id="node2"><a xlink:href="https://mindset.umc.edu/blsa-explore-me/index.html?search=BBC4i8QwuTPK"><title>B</title><ellipse cx="412" cy="-90" fill="#ffc09f" rx="127.61" ry="18" stroke="black"/><text font-family="Times,serif" font-size="14.00" text-anchor="middle" x="412" y="-84.95">Derived::der_cohort::homevisit</text></a></g>
<!-- E -->
<g class="node" id="node5"><a xlink:href="https://mindset.umc.edu/blsa-explore-me/index.html?search=cHk4s3PVf2k4"><title>E</title><ellipse cx="412" cy="-18" fill="#ffee93" rx="198.75" ry="18" stroke="black"/><text font-family="Times,serif" font-size="14.00" text-anchor="middle" x="412" y="-12.95">Derived::der_physicalperformance::rapidgaitspeed</text></a></g>
<!-- B&#45;&gt;E -->
<g class="edge" id="edge2">
<title>B-&gt;E</title>
<path d="M412,-71.7C412,-64.24 412,-55.32 412,-46.97" fill="none" stroke="black"/>
<polygon fill="black" points="415.5,-47.1 412,-37.1 408.5,-47.1 415.5,-47.1" stroke="black"/>
</g>
<!-- C -->
<g class="node" id="node3"><a xlink:href="https://mindset.umc.edu/blsa-explore-me/index.html?search=yQslZwHTJn"><title>C</title><ellipse cx="637" cy="-234" fill="#a0ced9" rx="243.28" ry="18" stroke="black"/><text font-family="Times,serif" font-size="14.00" text-anchor="middle" x="637" y="-228.95">OC::BLSA_HV_Visit_Procedure_Checklist::obsdate_hvtdate1</text></a></g>
<!-- C&#45;&gt;D -->
<g class="edge" id="edge3">
<title>C-&gt;D</title>
<path d="M582.54,-216.05C549.54,-205.79 507.36,-192.67 473.21,-182.04" fill="none" stroke="black"/>
<polygon fill="black" points="474.47,-178.46 463.88,-178.83 472.39,-185.14 474.47,-178.46" stroke="black"/>
</g>
<!-- D&#45;&gt;B -->
<g class="edge" id="edge4">
<title>D-&gt;B</title>
<path d="M412,-143.7C412,-136.24 412,-127.32 412,-118.97" fill="none" stroke="black"/>
<polygon fill="black" points="415.5,-119.1 412,-109.1 408.5,-119.1 415.5,-119.1" stroke="black"/>
</g>
</g>
</svg>