<?xml version="1.0" encoding="utf-8"?>
<!DOCTYPE svg PUBLIC "-//W3C//DTD SVG 1.1//EN" "http://www.w3.org/Graphics/SVG/1.1/DTD/svg11.dtd">
<!-- Generated by graphviz version 8.1.0 (20230707.0739)
 --><!-- Pages: 1 --><svg height="188pt" viewBox="0.00 0.00 269.36 188.00" width="269pt" xmlns="http://www.w3.org/2000/svg" xmlns:xlink="http://www.w3.org/1999/xlink">
<g class="graph" id="graph0" transform="scale(1 1) rotate(0) translate(4 184)">
<polygon fill="white" points="-4,4 -4,-184 265.36,-184 265.36,4 -4,4" stroke="none"/>
<!-- A -->
<g class="node" id="node1"><a xlink:href="https://mindset.umc.edu/blsa-explore-me/index.html?search=fYVgTuhvNcwt"><title>A</title><ellipse cx="130.68" cy="-18" fill="#ffc09f" rx="130.68" ry="18" stroke="black"/><text font-family="Times,serif" font-size="14.00" text-anchor="middle" x="130.68" y="-12.95">Derived::der_cohort::visitmonth</text></a></g>
<!-- B -->
<g class="node" id="node2"><a xlink:href="https://mindset.umc.edu/blsa-explore-me/index.html?search=AalmVrpsJs"><title>B</title><ellipse cx="130.68" cy="-162" fill="#a0ced9" rx="101.51" ry="18" stroke="black"/><text font-family="Times,serif" font-size="14.00" text-anchor="middle" x="130.68" y="-156.95">Cohort::cohort::visitdate</text></a></g>
<!-- C -->
<g class="node" id="node3"><a xlink:href="https://mindset.umc.edu/blsa-explore-me/index.html?search=yc3wBExI755f"><title>C</title><ellipse cx="130.68" cy="-90" fill="#a0ced9" rx="121.98" ry="18" stroke="black"/><text font-family="Times,serif" font-size="14.00" text-anchor="middle" x="130.68" y="-84.95">Derived::der_cohort::visitdate</text></a></g>
<!-- B&#45;&gt;C -->
<g class="edge" id="edge1">
<title>B-&gt;C</title>
<path d="M130.68,-143.7C130.68,-136.24 130.68,-127.32 130.68,-118.97" fill="none" stroke="black"/>
<polygon fill="black" points="134.18,-119.1 130.68,-109.1 127.18,-119.1 134.18,-119.1" stroke="black"/>
</g>
<!-- C&#45;&gt;A -->
<g class="edge" id="edge2">
<title>C-&gt;A</title>
<path d="M130.68,-71.7C130.68,-64.24 130.68,-55.32 130.68,-46.97" fill="none" stroke="black"/>
<polygon fill="black" points="134.18,-47.1 130.68,-37.1 127.18,-47.1 134.18,-47.1" stroke="black"/>
</g>
</g>
</svg>