<?xml version="1.0" encoding="utf-8"?>
<!DOCTYPE svg PUBLIC "-//W3C//DTD SVG 1.1//EN" "http://www.w3.org/Graphics/SVG/1.1/DTD/svg11.dtd">
<!-- Generated by graphviz version 8.1.0 (20230707.0739)
 --><!-- Pages: 1 --><svg height="116pt" viewBox="0.00 0.00 1905.21 116.00" width="1905pt" xmlns="http://www.w3.org/2000/svg" xmlns:xlink="http://www.w3.org/1999/xlink">
<g class="graph" id="graph0" transform="scale(1 1) rotate(0) translate(4 112)">
<polygon fill="white" points="-4,4 -4,-112 1901.21,-112 1901.21,4 -4,4" stroke="none"/>
<!-- A -->
<g class="node" id="node1"><a xlink:href="https://mindset.umc.edu/blsa-explore-me/index.html?search=NGyia56dGj"><title>A</title><ellipse cx="185.96" cy="-90" fill="#a0ced9" rx="185.96" ry="18" stroke="black"/><text font-family="Times,serif" font-size="14.00" text-anchor="middle" x="185.96" y="-84.95">OC::BLSA_LE_Physical_Performance::lep2c1</text></a></g>
<!-- F -->
<g class="node" id="node6"><a xlink:href="https://mindset.umc.edu/blsa-explore-me/index.html?search=F1Y58Fkfjx2w"><title>F</title><ellipse cx="948.96" cy="-18" fill="#ffc09f" rx="174.7" ry="18" stroke="black"/><text font-family="Times,serif" font-size="14.00" text-anchor="middle" x="948.96" y="-12.95">Derived::der_physicalperformance::sppb_cs</text></a></g>
<!-- A&#45;&gt;F -->
<g class="edge" id="edge1">
<title>A-&gt;F</title>
<path d="M317.56,-76.93C455.29,-64.29 670.61,-44.54 810.76,-31.68" fill="none" stroke="black"/>
<polygon fill="black" points="810.92,-35.09 820.56,-30.69 810.28,-28.12 810.92,-35.09" stroke="black"/>
</g>
<!-- B -->
<g class="node" id="node2"><a xlink:href="https://mindset.umc.edu/blsa-explore-me/index.html?search=tjJofCvuU2"><title>B</title><ellipse cx="566.96" cy="-90" fill="#a0ced9" rx="177.26" ry="18" stroke="black"/><text font-family="Times,serif" font-size="14.00" text-anchor="middle" x="566.96" y="-84.95">OC::BLSA_LE_Physical_Performance::lep1</text></a></g>
<!-- B&#45;&gt;F -->
<g class="edge" id="edge2">
<title>B-&gt;F</title>
<path d="M650.32,-73.72C710.71,-62.66 792.41,-47.69 855.09,-36.2" fill="none" stroke="black"/>
<polygon fill="black" points="855.57,-39.49 864.78,-34.24 854.31,-32.6 855.57,-39.49" stroke="black"/>
</g>
<!-- C -->
<g class="node" id="node3"><a xlink:href="https://mindset.umc.edu/blsa-explore-me/index.html?search=sASDAl5RgO"><title>C</title><ellipse cx="948.96" cy="-90" fill="#a0ced9" rx="186.47" ry="18" stroke="black"/><text font-family="Times,serif" font-size="14.00" text-anchor="middle" x="948.96" y="-84.95">OC::BLSA_LE_Physical_Performance::lep2b1</text></a></g>
<!-- C&#45;&gt;F -->
<g class="edge" id="edge3">
<title>C-&gt;F</title>
<path d="M948.96,-71.7C948.96,-64.24 948.96,-55.32 948.96,-46.97" fill="none" stroke="black"/>
<polygon fill="black" points="952.46,-47.1 948.96,-37.1 945.46,-47.1 952.46,-47.1" stroke="black"/>
</g>
<!-- D -->
<g class="node" id="node4"><a xlink:href="https://mindset.umc.edu/blsa-explore-me/index.html?search=r3gG1fbmSx"><title>D</title><ellipse cx="1338.96" cy="-90" fill="#a0ced9" rx="185.96" ry="18" stroke="black"/><text font-family="Times,serif" font-size="14.00" text-anchor="middle" x="1338.96" y="-84.95">OC::BLSA_LE_Physical_Performance::lep2c2</text></a></g>
<!-- D&#45;&gt;F -->
<g class="edge" id="edge4">
<title>D-&gt;F</title>
<path d="M1253.37,-73.64C1191.46,-62.53 1107.78,-47.51 1043.83,-36.03" fill="none" stroke="black"/>
<polygon fill="black" points="1044.8,-32.47 1034.34,-34.15 1043.56,-39.36 1044.8,-32.47" stroke="black"/>
</g>
<!-- E -->
<g class="node" id="node5"><a xlink:href="https://mindset.umc.edu/blsa-explore-me/index.html?search=vT8XEWqjjR"><title>E</title><ellipse cx="1719.96" cy="-90" fill="#a0ced9" rx="177.26" ry="18" stroke="black"/><text font-family="Times,serif" font-size="14.00" text-anchor="middle" x="1719.96" y="-84.95">OC::BLSA_LE_Physical_Performance::lep2</text></a></g>
<!-- E&#45;&gt;F -->
<g class="edge" id="edge5">
<title>E-&gt;F</title>
<path d="M1591.38,-77.24C1572.14,-75.48 1552.53,-73.69 1533.96,-72 1381.43,-58.12 1206.52,-42.28 1087.99,-31.57" fill="none" stroke="black"/>
<polygon fill="black" points="1088.33,-27.99 1078.06,-30.58 1087.7,-34.96 1088.33,-27.99" stroke="black"/>
</g>
</g>
</svg>