<?xml version="1.0" encoding="utf-8"?>
<!DOCTYPE svg PUBLIC "-//W3C//DTD SVG 1.1//EN" "http://www.w3.org/Graphics/SVG/1.1/DTD/svg11.dtd">
<!-- Generated by graphviz version 8.1.0 (20230707.0739)
 --><!-- Pages: 1 --><svg height="116pt" viewBox="0.00 0.00 626.26 116.00" width="626pt" xmlns="http://www.w3.org/2000/svg" xmlns:xlink="http://www.w3.org/1999/xlink">
<g class="graph" id="graph0" transform="scale(1 1) rotate(0) translate(4 112)">
<polygon fill="white" points="-4,4 -4,-112 622.26,-112 622.26,4 -4,4" stroke="none"/>
<!-- A -->
<g class="node" id="node1"><a xlink:href="https://mindset.umc.edu/blsa-explore-me/index.html?search=Ftj7e1g2u04H"><title>A</title><ellipse cx="311.18" cy="-18" fill="#ffc09f" rx="196.19" ry="18" stroke="black"/><text font-family="Times,serif" font-size="14.00" text-anchor="middle" x="311.18" y="-12.95">Derived::der_physicalfunction::IADL_heavywork</text></a></g>
<!-- B -->
<g class="node" id="node2"><a xlink:href="https://mindset.umc.edu/blsa-explore-me/index.html?search=ofjhVhQP3C"><title>B</title><ellipse cx="152.18" cy="-90" fill="#a0ced9" rx="152.18" ry="18" stroke="black"/><text font-family="Times,serif" font-size="14.00" text-anchor="middle" x="152.18" y="-84.95">OC::BLSA_General_Interview::pf15a</text></a></g>
<!-- B&#45;&gt;A -->
<g class="edge" id="edge1">
<title>B-&gt;A</title>
<path d="M190.26,-72.23C211.87,-62.72 239.14,-50.71 262.31,-40.51" fill="none" stroke="black"/>
<polygon fill="black" points="263.56,-43.35 271.3,-36.12 260.74,-36.94 263.56,-43.35" stroke="black"/>
</g>
<!-- C -->
<g class="node" id="node3"><a xlink:href="https://mindset.umc.edu/blsa-explore-me/index.html?search=uRwidQFPVd"><title>C</title><ellipse cx="470.18" cy="-90" fill="#a0ced9" rx="148.08" ry="18" stroke="black"/><text font-family="Times,serif" font-size="14.00" text-anchor="middle" x="470.18" y="-84.95">OC::BLSA_General_Interview::pf15</text></a></g>
<!-- C&#45;&gt;A -->
<g class="edge" id="edge2">
<title>C-&gt;A</title>
<path d="M432.09,-72.23C410.49,-62.72 383.21,-50.71 360.04,-40.51" fill="none" stroke="black"/>
<polygon fill="black" points="361.62,-36.94 351.06,-36.12 358.8,-43.35 361.62,-36.94" stroke="black"/>
</g>
</g>
</svg>