<?xml version="1.0" encoding="utf-8"?>
<!DOCTYPE svg PUBLIC "-//W3C//DTD SVG 1.1//EN" "http://www.w3.org/Graphics/SVG/1.1/DTD/svg11.dtd">
<!-- Generated by graphviz version 8.1.0 (20230707.0739)
 --><!-- Pages: 1 --><svg height="188pt" viewBox="0.00 0.00 949.87 188.00" width="950pt" xmlns="http://www.w3.org/2000/svg" xmlns:xlink="http://www.w3.org/1999/xlink">
<g class="graph" id="graph0" transform="scale(1 1) rotate(0) translate(4 184)">
<polygon fill="white" points="-4,4 -4,-184 945.87,-184 945.87,4 -4,4" stroke="none"/>
<!-- A -->
<g class="node" id="node1"><a xlink:href="https://mindset.umc.edu/blsa-explore-me/index.html?search=GT3nS9q0vC"><title>A</title><ellipse cx="152.18" cy="-162" fill="#a0ced9" rx="152.18" ry="18" stroke="black"/><text font-family="Times,serif" font-size="14.00" text-anchor="middle" x="152.18" y="-156.95">OC::BLSA_General_Interview::pf03c</text></a></g>
<!-- B -->
<g class="node" id="node2"><a xlink:href="https://mindset.umc.edu/blsa-explore-me/index.html?search=CTYVd3Wjrs3Y"><title>B</title><ellipse cx="470.18" cy="-90" fill="#ffc09f" rx="167.53" ry="18" stroke="black"/><text font-family="Times,serif" font-size="14.00" text-anchor="middle" x="470.18" y="-84.95">Derived::der_physicalfunction::liftcarry20</text></a></g>
<!-- A&#45;&gt;B -->
<g class="edge" id="edge1">
<title>A-&gt;B</title>
<path d="M221.96,-145.64C271.05,-134.83 336.92,-120.33 388.46,-108.99" fill="none" stroke="black"/>
<polygon fill="black" points="388.89,-112.26 397.9,-106.69 387.38,-105.42 388.89,-112.26" stroke="black"/>
</g>
<!-- C -->
<g class="node" id="node3"><a xlink:href="https://mindset.umc.edu/blsa-explore-me/index.html?search=dbBgl2HS43K5"><title>C</title><ellipse cx="470.18" cy="-18" fill="#ffee93" rx="155.76" ry="18" stroke="black"/><text font-family="Times,serif" font-size="14.00" text-anchor="middle" x="470.18" y="-12.95">Derived::der_physicalfunction::lcindex</text></a></g>
<!-- B&#45;&gt;C -->
<g class="edge" id="edge2">
<title>B-&gt;C</title>
<path d="M470.18,-71.7C470.18,-64.24 470.18,-55.32 470.18,-46.97" fill="none" stroke="black"/>
<polygon fill="black" points="473.68,-47.1 470.18,-37.1 466.68,-47.1 473.68,-47.1" stroke="black"/>
</g>
<!-- D -->
<g class="node" id="node4"><a xlink:href="https://mindset.umc.edu/blsa-explore-me/index.html?search=JIGat8XJYr"><title>D</title><ellipse cx="470.18" cy="-162" fill="#a0ced9" rx="148.08" ry="18" stroke="black"/><text font-family="Times,serif" font-size="14.00" text-anchor="middle" x="470.18" y="-156.95">OC::BLSA_General_Interview::pf03</text></a></g>
<!-- D&#45;&gt;B -->
<g class="edge" id="edge3">
<title>D-&gt;B</title>
<path d="M470.18,-143.7C470.18,-136.24 470.18,-127.32 470.18,-118.97" fill="none" stroke="black"/>
<polygon fill="black" points="473.68,-119.1 470.18,-109.1 466.68,-119.1 473.68,-119.1" stroke="black"/>
</g>
<!-- E -->
<g class="node" id="node5"><a xlink:href="https://mindset.umc.edu/blsa-explore-me/index.html?search=CBzhrVTIjz"><title>E</title><ellipse cx="789.18" cy="-162" fill="#a0ced9" rx="152.69" ry="18" stroke="black"/><text font-family="Times,serif" font-size="14.00" text-anchor="middle" x="789.18" y="-156.95">OC::BLSA_General_Interview::pf03d</text></a></g>
<!-- E&#45;&gt;B -->
<g class="edge" id="edge4">
<title>E-&gt;B</title>
<path d="M719.17,-145.64C669.93,-134.83 603.86,-120.33 552.15,-108.99" fill="none" stroke="black"/>
<polygon fill="black" points="553.19,-105.41 542.68,-106.69 551.69,-112.25 553.19,-105.41" stroke="black"/>
</g>
</g>
</svg>