<?xml version="1.0" encoding="utf-8"?>
<!DOCTYPE svg PUBLIC "-//W3C//DTD SVG 1.1//EN" "http://www.w3.org/Graphics/SVG/1.1/DTD/svg11.dtd">
<!-- Generated by graphviz version 8.1.0 (20230707.0739)
 --><!-- Pages: 1 --><svg height="116pt" viewBox="0.00 0.00 1041.99 116.00" width="1042pt" xmlns="http://www.w3.org/2000/svg" xmlns:xlink="http://www.w3.org/1999/xlink">
<g class="graph" id="graph0" transform="scale(1 1) rotate(0) translate(4 112)">
<polygon fill="white" points="-4,4 -4,-112 1037.99,-112 1037.99,4 -4,4" stroke="none"/>
<!-- A -->
<g class="node" id="node1"><a xlink:href="https://mindset.umc.edu/blsa-explore-me/index.html?search=BRELPDYmNJ"><title>A</title><ellipse cx="166" cy="-90" fill="#a0ced9" rx="166" ry="18" stroke="black"/><text font-family="Times,serif" font-size="14.00" text-anchor="middle" x="166" y="-84.95">OC::BLSA_Body_Measurements::ant08a</text></a></g>
<!-- B -->
<g class="node" id="node2"><a xlink:href="https://mindset.umc.edu/blsa-explore-me/index.html?search=QFGgRAPZ6Cu8"><title>B</title><ellipse cx="517" cy="-18" fill="#ffc09f" rx="161.9" ry="18" stroke="black"/><text font-family="Times,serif" font-size="14.00" text-anchor="middle" x="517" y="-12.95">Derived::der_anthropometry::waistdepth</text></a></g>
<!-- A&#45;&gt;B -->
<g class="edge" id="edge1">
<title>A-&gt;B</title>
<path d="M243.02,-73.64C298.21,-62.63 372.61,-47.79 429.95,-36.36" fill="none" stroke="black"/>
<polygon fill="black" points="430.33,-39.65 439.45,-34.27 428.96,-32.79 430.33,-39.65" stroke="black"/>
</g>
<!-- C -->
<g class="node" id="node3"><a xlink:href="https://mindset.umc.edu/blsa-explore-me/index.html?search=lBFMdGlak4"><title>C</title><ellipse cx="517" cy="-90" fill="#a0ced9" rx="166.51" ry="18" stroke="black"/><text font-family="Times,serif" font-size="14.00" text-anchor="middle" x="517" y="-84.95">OC::BLSA_Body_Measurements::ant08b</text></a></g>
<!-- C&#45;&gt;B -->
<g class="edge" id="edge2">
<title>C-&gt;B</title>
<path d="M517,-71.7C517,-64.24 517,-55.32 517,-46.97" fill="none" stroke="black"/>
<polygon fill="black" points="520.5,-47.1 517,-37.1 513.5,-47.1 520.5,-47.1" stroke="black"/>
</g>
<!-- D -->
<g class="node" id="node4"><a xlink:href="https://mindset.umc.edu/blsa-explore-me/index.html?search=X0MaBumzZO"><title>D</title><ellipse cx="868" cy="-90" fill="#a0ced9" rx="166" ry="18" stroke="black"/><text font-family="Times,serif" font-size="14.00" text-anchor="middle" x="868" y="-84.95">OC::BLSA_Body_Measurements::ant08c</text></a></g>
<!-- D&#45;&gt;B -->
<g class="edge" id="edge3">
<title>D-&gt;B</title>
<path d="M790.97,-73.64C735.78,-62.63 661.38,-47.79 604.04,-36.36" fill="none" stroke="black"/>
<polygon fill="black" points="605.03,-32.79 594.54,-34.27 603.67,-39.65 605.03,-32.79" stroke="black"/>
</g>
</g>
</svg>