<?xml version="1.0" encoding="utf-8"?>
<!DOCTYPE svg PUBLIC "-//W3C//DTD SVG 1.1//EN" "http://www.w3.org/Graphics/SVG/1.1/DTD/svg11.dtd">
<!-- Generated by graphviz version 8.1.0 (20230707.0739)
 --><!-- Pages: 1 --><svg height="188pt" viewBox="0.00 0.00 1106.37 188.00" width="1106pt" xmlns="http://www.w3.org/2000/svg" xmlns:xlink="http://www.w3.org/1999/xlink">
<g class="graph" id="graph0" transform="scale(1 1) rotate(0) translate(4 184)">
<polygon fill="white" points="-4,4 -4,-184 1102.37,-184 1102.37,4 -4,4" stroke="none"/>
<!-- A -->
<g class="node" id="node1"><a xlink:href="https://mindset.umc.edu/blsa-explore-me/index.html?search=sXXWsuC1UE"><title>A</title><ellipse cx="384.11" cy="-162" fill="#a0ced9" rx="152.18" ry="18" stroke="black"/><text font-family="Times,serif" font-size="14.00" text-anchor="middle" x="384.11" y="-156.95">OC::BLSA_General_Interview::pf13a</text></a></g>
<!-- D -->
<g class="node" id="node4"><a xlink:href="https://mindset.umc.edu/blsa-explore-me/index.html?search=E26C5RJI040a"><title>D</title><ellipse cx="543.11" cy="-90" fill="#ffc09f" rx="170.09" ry="18" stroke="black"/><text font-family="Times,serif" font-size="14.00" text-anchor="middle" x="543.11" y="-84.95">Derived::der_physicalfunction::ADL_walk</text></a></g>
<!-- A&#45;&gt;D -->
<g class="edge" id="edge1">
<title>A-&gt;D</title>
<path d="M422.2,-144.23C443.89,-134.69 471.28,-122.63 494.51,-112.4" fill="none" stroke="black"/>
<polygon fill="black" points="495.77,-115.23 503.51,-107.99 492.95,-108.82 495.77,-115.23" stroke="black"/>
</g>
<!-- B -->
<g class="node" id="node2"><a xlink:href="https://mindset.umc.edu/blsa-explore-me/index.html?search=XnFwqv2o03TH"><title>B</title><ellipse cx="171.11" cy="-18" fill="#ffee93" rx="171.11" ry="18" stroke="black"/><text font-family="Times,serif" font-size="14.00" text-anchor="middle" x="171.11" y="-12.95">Derived::der_physicalfunction::ADL_Total</text></a></g>
<!-- C -->
<g class="node" id="node3"><a xlink:href="https://mindset.umc.edu/blsa-explore-me/index.html?search=Xm6azS2nj9j3"><title>C</title><ellipse cx="543.11" cy="-18" fill="#ffee93" rx="182.89" ry="18" stroke="black"/><text font-family="Times,serif" font-size="14.00" text-anchor="middle" x="543.11" y="-12.95">Derived::der_physicalfunction::ADL_Number</text></a></g>
<!-- D&#45;&gt;B -->
<g class="edge" id="edge2">
<title>D-&gt;B</title>
<path d="M462.4,-73.81C403.73,-62.77 324.24,-47.81 263.12,-36.31" fill="none" stroke="black"/>
<polygon fill="black" points="263.79,-32.69 253.32,-34.28 262.5,-39.57 263.79,-32.69" stroke="black"/>
</g>
<!-- D&#45;&gt;C -->
<g class="edge" id="edge4">
<title>D-&gt;C</title>
<path d="M543.11,-71.7C543.11,-64.24 543.11,-55.32 543.11,-46.97" fill="none" stroke="black"/>
<polygon fill="black" points="546.61,-47.1 543.11,-37.1 539.61,-47.1 546.61,-47.1" stroke="black"/>
</g>
<!-- F -->
<g class="node" id="node6"><a xlink:href="https://mindset.umc.edu/blsa-explore-me/index.html?search=SWjTjJQzwu0D"><title>F</title><ellipse cx="921.11" cy="-18" fill="#ffee93" rx="177.26" ry="18" stroke="black"/><text font-family="Times,serif" font-size="14.00" text-anchor="middle" x="921.11" y="-12.95">Derived::der_physicalfunction::ADL_NMiss</text></a></g>
<!-- D&#45;&gt;F -->
<g class="edge" id="edge3">
<title>D-&gt;F</title>
<path d="M625.13,-73.81C684.76,-62.77 765.57,-47.8 827.69,-36.3" fill="none" stroke="black"/>
<polygon fill="black" points="828.08,-39.6 837.28,-34.34 826.81,-32.72 828.08,-39.6" stroke="black"/>
</g>
<!-- E -->
<g class="node" id="node5"><a xlink:href="https://mindset.umc.edu/blsa-explore-me/index.html?search=YTqjlaHfVK"><title>E</title><ellipse cx="702.11" cy="-162" fill="#a0ced9" rx="148.08" ry="18" stroke="black"/><text font-family="Times,serif" font-size="14.00" text-anchor="middle" x="702.11" y="-156.95">OC::BLSA_General_Interview::pf13</text></a></g>
<!-- E&#45;&gt;D -->
<g class="edge" id="edge5">
<title>E-&gt;D</title>
<path d="M664.03,-144.23C642.34,-134.69 614.95,-122.63 591.72,-112.4" fill="none" stroke="black"/>
<polygon fill="black" points="593.28,-108.82 582.72,-107.99 590.46,-115.23 593.28,-108.82" stroke="black"/>
</g>
</g>
</svg>