<?xml version="1.0" encoding="utf-8"?>
<!DOCTYPE svg PUBLIC "-//W3C//DTD SVG 1.1//EN" "http://www.w3.org/Graphics/SVG/1.1/DTD/svg11.dtd">
<!-- Generated by graphviz version 8.1.0 (20230707.0739)
 --><!-- Pages: 1 --><svg height="332pt" viewBox="0.00 0.00 357.04 332.00" width="357pt" xmlns="http://www.w3.org/2000/svg" xmlns:xlink="http://www.w3.org/1999/xlink">
<g class="graph" id="graph0" transform="scale(1 1) rotate(0) translate(4 328)">
<polygon fill="white" points="-4,4 -4,-328 353.04,-328 353.04,4 -4,4" stroke="none"/>
<!-- A -->
<g class="node" id="node1"><a xlink:href="https://mindset.umc.edu/blsa-explore-me/index.html?search=M2f82OB5wpq5"><title>A</title><ellipse cx="137.85" cy="-90" fill="#ffc09f" rx="135.29" ry="18" stroke="black"/><text font-family="Times,serif" font-size="14.00" text-anchor="middle" x="137.85" y="-84.95">Derived::der_cohort::daysfromv1</text></a></g>
<!-- C -->
<g class="node" id="node3"><a xlink:href="https://mindset.umc.edu/blsa-explore-me/index.html?search=MQ8WCwmMoDIJ"><title>C</title><ellipse cx="137.85" cy="-18" fill="#ffee93" rx="137.85" ry="18" stroke="black"/><text font-family="Times,serif" font-size="14.00" text-anchor="middle" x="137.85" y="-12.95">Derived::der_cohort::yearsfromv1</text></a></g>
<!-- A&#45;&gt;C -->
<g class="edge" id="edge1">
<title>A-&gt;C</title>
<path d="M137.85,-71.7C137.85,-64.24 137.85,-55.32 137.85,-46.97" fill="none" stroke="black"/>
<polygon fill="black" points="141.35,-47.1 137.85,-37.1 134.35,-47.1 141.35,-47.1" stroke="black"/>
</g>
<!-- B -->
<g class="node" id="node2"><a xlink:href="https://mindset.umc.edu/blsa-explore-me/index.html?search=yc3wBExI755f"><title>B</title><ellipse cx="137.85" cy="-234" fill="#a0ced9" rx="121.98" ry="18" stroke="black"/><text font-family="Times,serif" font-size="14.00" text-anchor="middle" x="137.85" y="-228.95">Derived::der_cohort::visitdate</text></a></g>
<!-- B&#45;&gt;A -->
<g class="edge" id="edge3">
<title>B-&gt;A</title>
<path d="M109.9,-216.2C97.64,-207.17 84.53,-194.82 77.85,-180 71.27,-165.41 71.27,-158.59 77.85,-144 82.92,-132.75 91.7,-122.92 100.99,-114.89" fill="none" stroke="black"/>
<polygon fill="black" points="102.96,-117 108.59,-108.03 98.59,-111.53 102.96,-117" stroke="black"/>
</g>
<!-- D -->
<g class="node" id="node4"><a xlink:href="https://mindset.umc.edu/blsa-explore-me/index.html?search=W1v2d8sbiR"><title>D</title><ellipse cx="217.85" cy="-162" fill="#a0ced9" rx="131.19" ry="18" stroke="black"/><text font-family="Times,serif" font-size="14.00" text-anchor="middle" x="217.85" y="-156.95">Derived::der_cohort::v1visitdate</text></a></g>
<!-- B&#45;&gt;D -->
<g class="edge" id="edge2">
<title>B-&gt;D</title>
<path d="M157.21,-216.05C167.09,-207.41 179.27,-196.75 190.13,-187.26" fill="none" stroke="black"/>
<polygon fill="black" points="191.88,-189.49 197.1,-180.28 187.27,-184.23 191.88,-189.49" stroke="black"/>
</g>
<!-- D&#45;&gt;A -->
<g class="edge" id="edge4">
<title>D-&gt;A</title>
<path d="M198.48,-144.05C188.61,-135.41 176.42,-124.75 165.57,-115.26" fill="none" stroke="black"/>
<polygon fill="black" points="168.42,-112.23 158.59,-108.28 163.81,-117.49 168.42,-112.23" stroke="black"/>
</g>
<!-- E -->
<g class="node" id="node5"><a xlink:href="https://mindset.umc.edu/blsa-explore-me/index.html?search=AalmVrpsJs"><title>E</title><ellipse cx="137.85" cy="-306" fill="#a0ced9" rx="101.51" ry="18" stroke="black"/><text font-family="Times,serif" font-size="14.00" text-anchor="middle" x="137.85" y="-300.95">Cohort::cohort::visitdate</text></a></g>
<!-- E&#45;&gt;B -->
<g class="edge" id="edge5">
<title>E-&gt;B</title>
<path d="M137.85,-287.7C137.85,-280.24 137.85,-271.32 137.85,-262.97" fill="none" stroke="black"/>
<polygon fill="black" points="141.35,-263.1 137.85,-253.1 134.35,-263.1 141.35,-263.1" stroke="black"/>
</g>
</g>
</svg>